<svg width="33" height="36" viewBox="0 0 33 36" fill="none" xmlns="http://www.w3.org/2000/svg">
<path fill-rule="evenodd" clip-rule="evenodd" d="M5.48212 22.4062C4.17688 23.3621 2.65178 23.8158 1.11325 24.2389L2.04944 24.7276L2.09402 25.3793L2.62898 25.3385L3.16394 25.5829L3.07478 25.9494L3.69891 26.316C4.01097 26.5146 4.3899 26.4096 4.70196 26.3974C4.40089 27.2583 4.69367 27.1116 4.76883 27.3341C5.20946 27.5668 5.71805 27.4035 6.21769 27.1509C6.095 27.7578 6.155 28.0978 6.32914 28.2708C6.85381 28.3801 7.17045 28.3373 7.39907 28.2301C7.36665 28.6372 7.42 28.9883 7.80029 29.1261C8.12032 29.2809 8.11786 29.2402 8.26838 29.2076L9.13769 28.4948C8.98922 28.8263 9.44425 28.4096 8.55815 29.6556C8.68135 29.7208 8.6047 29.9078 9.04853 29.7777L10.2522 28.8818C9.95103 29.3893 9.76154 29.9697 9.87327 30.5312C10.2596 30.1108 10.646 29.6705 11.0324 29.513C10.802 29.9111 10.5717 30.5024 10.3414 30.9995C10.4366 31.1128 10.9041 30.682 11.2775 30.3886C11.2062 30.9127 11.1631 31.4219 11.5004 31.7326C11.7485 31.7149 11.7503 31.4721 11.7679 31.2439C11.8357 31.5646 11.957 31.941 12.1914 32.1603C12.4235 30.9019 13.0608 29.8592 13.5511 28.7188C13.1338 29.9681 12.5754 31.2495 12.8379 32.3435L13.1499 32.0992C12.7997 33.0555 13.3218 32.8988 13.6849 32.7712C14.1364 33.1811 14.5405 33.2878 14.9331 33.321L15.2452 32.425C15.2749 33.1852 15.4829 33.5925 15.8693 33.6468C15.9552 34.0945 16.0808 34.2159 16.226 34.1762C16.4562 34.1466 16.4677 33.7161 16.538 33.4431C16.9172 34.3132 17.1114 34.1698 17.385 34.4613C17.5125 34.6179 17.6055 34.9634 17.7863 34.8279L18.1652 34.2373C18.3913 34.7018 18.6601 34.6588 18.9453 34.4206C18.6978 33.9579 18.2881 33.1278 18.1472 32.5715C17.9609 31.8357 17.8492 31.3448 17.92 30.5515L5.48212 22.4062Z" fill="white" stroke="white" stroke-width="0.377953"/>
<path fill-rule="evenodd" clip-rule="evenodd" d="M17.9199 30.5924C18.9824 30.5347 20.0449 30.2289 21.1074 29.7371C21.8237 30.8189 22.4554 31.9489 23.6262 32.7712L23.0912 33.0156L22.5786 32.9138C22.5681 33.1975 22.749 33.6414 22.0659 33.3618L21.5086 33.1989L21.2634 33.7894L20.6393 33.8709C20.757 34.1277 20.6421 34.1722 20.5279 34.217C20.2615 34.391 20.0974 34.3313 19.9483 34.2374C19.8507 34.5079 19.4389 34.4915 18.9898 34.441C18.6637 33.8842 18.2739 33.1264 18.082 32.4137C17.9307 31.8513 17.9446 31.3861 17.9199 30.5924Z" fill="white" stroke="white" stroke-width="0.2"/>
<path fill-rule="evenodd" clip-rule="evenodd" d="M5.72234 22.1947C5.68268 22.196 5.64447 22.2087 5.61328 22.2312C4.18836 23.2665 2.56355 23.7795 1.18032 24.0487C1.01727 24.0804 0.977808 24.2773 1.11791 24.3601L1.91218 24.8307L1.96773 25.4101C1.97808 25.5181 2.09384 25.5902 2.20711 25.5592C2.31612 25.5295 2.42601 25.4933 2.53634 25.4542C2.57347 25.5226 2.62483 25.5895 2.70782 25.6322C2.77556 25.6671 2.88063 25.6645 2.96914 25.6762C2.9451 25.7658 2.89371 25.8503 2.92524 25.9474C2.98093 26.1188 3.15669 26.2444 3.40332 26.3104C3.42983 26.3174 3.45771 26.3189 3.48494 26.3148C3.61499 26.464 3.80652 26.5524 4.01034 26.5834C4.15458 26.6054 4.31444 26.5674 4.46989 26.5501C4.43571 26.6226 4.39769 26.6765 4.37592 26.7615C4.32721 26.9516 4.34386 27.1878 4.51584 27.3881C4.5253 27.3989 4.53611 27.4086 4.54807 27.417C4.59722 27.4521 4.65364 27.4695 4.71132 27.4799C4.81206 27.5894 4.97118 27.6314 5.12629 27.6334C5.30977 27.6357 5.51488 27.5946 5.73194 27.5208C5.83315 27.4864 5.93625 27.4205 6.0399 27.3717C5.94239 27.7162 6.02864 28.0897 6.18806 28.3915C6.22459 28.4605 6.3067 28.4989 6.38902 28.4853H6.38973C6.69863 28.547 6.85306 28.5699 7.00566 28.5507C7.09206 28.5398 7.19715 28.505 7.28413 28.479C7.28096 28.6025 7.23794 28.7194 7.28625 28.8451C7.37297 29.0713 7.73976 29.4888 7.84046 29.2713C7.89137 29.4625 8.02004 29.4401 8.08396 29.4648C8.20089 29.4605 8.28655 29.4103 8.38438 29.3421C8.5454 29.23 8.79063 28.9855 9.07302 28.7017C8.85404 29.1747 8.69968 29.2098 8.38216 29.6586C8.32363 29.7423 8.45464 29.8539 8.54983 29.9014C8.81206 30.032 9.0397 29.9218 9.31726 29.7844C9.47333 29.7072 9.85722 29.2869 10.0164 29.1608C10.0091 29.1772 9.74918 29.5888 9.7423 29.6052C9.58099 29.9907 9.54292 30.2589 9.71303 30.6187C9.76829 30.7358 9.93885 30.7583 10.0279 30.6602C10.1157 30.5634 10.5571 29.9861 10.7351 29.8859C10.533 30.1025 10.1922 30.6988 10.1616 30.8728C10.1414 30.9612 10.1912 31.0524 10.2034 31.115C10.2593 31.2368 10.3735 31.1988 10.4702 31.2314C10.5546 31.2164 10.6026 31.1818 10.6527 31.1458C10.8022 31.028 10.9513 30.8872 11.0752 30.7778C11.062 30.9468 10.9954 31.1288 11.034 31.2761C11.1102 31.5663 11.2775 31.8149 11.5526 31.9039C11.618 31.9252 11.691 31.9114 11.7419 31.8681C11.7623 31.9289 11.7802 31.9973 11.8043 32.0474C11.8476 32.1373 11.8928 32.2174 11.995 32.2739C12.046 32.3021 12.1165 32.3183 12.1822 32.3097C12.3149 32.3166 12.3439 32.2009 12.4058 32.1549C12.4623 31.9692 12.7786 30.5592 12.9216 30.3561C12.8341 30.5754 12.5863 31.9363 12.6047 32.0845C12.6298 32.2864 12.6308 32.7119 12.9008 32.4486C12.8754 32.5085 12.8705 32.7113 12.8764 32.7614C12.9469 32.8691 13.033 32.9512 13.1452 32.9898C13.2575 33.0284 13.3763 33.0101 13.4649 32.9741C13.5392 32.9438 13.5781 32.8986 13.6356 32.8564C13.6912 32.99 13.7703 33.1042 13.8819 33.1748C13.9971 33.2477 14.1219 33.2877 14.2475 33.3188C14.2496 33.3372 14.2496 33.356 14.2523 33.3742C14.2591 33.4231 14.2886 33.4669 14.3332 33.4944C14.7332 33.7408 15.1057 33.6551 15.2115 32.8126C15.1982 33.165 15.2267 33.4094 15.3188 33.5126C15.4246 33.6311 15.578 33.7234 15.775 33.7844C15.7923 33.9201 15.8138 34.053 15.8435 34.1795C15.851 34.2116 15.8684 34.2411 15.8936 34.2644C15.9469 34.3134 16.0045 34.3535 16.0809 34.3733C16.1572 34.393 16.2513 34.3795 16.3141 34.3443C16.4396 34.2741 16.4762 34.1761 16.5171 34.0813C16.5543 33.995 16.5539 33.7951 16.5855 33.7118C16.6706 33.8355 16.7434 34.1368 16.8607 34.2273C16.9596 34.3035 17.0673 34.3651 17.179 34.4122C17.2163 34.567 17.3188 34.671 17.3971 34.7809C17.5166 34.8422 17.6361 35.0164 17.7545 34.9988C17.8728 34.9811 17.966 34.7688 18.0233 34.6972C18.0715 34.6371 18.0805 34.5801 18.1077 34.5173C18.12 34.5265 18.1336 34.5313 18.1461 34.5399C18.1661 34.5794 18.1838 34.6209 18.2058 34.6588C18.2226 34.6877 18.2481 34.7115 18.2792 34.7274C18.3987 34.7887 18.5182 34.8205 18.6365 34.8029C18.7549 34.7853 18.8481 34.7154 18.9054 34.6437C18.9742 34.6657 19.0275 34.6253 19.0612 34.6203C19.0731 34.6167 19.14 34.5714 19.151 34.5657C19.2226 34.5993 19.3054 34.6087 19.3752 34.6281C19.6008 34.6455 19.8081 34.582 19.9987 34.5261C20.0625 34.5073 20.1104 34.4586 20.1242 34.3984C20.3268 34.4017 20.5151 34.3468 20.6887 34.2959C20.7993 34.2635 20.8512 34.1473 20.7971 34.053C21.0063 34.0601 21.2002 34.0028 21.3787 33.9505C21.4912 33.9171 21.5419 33.7975 21.4837 33.7032C21.4974 33.6872 21.5157 33.6724 21.5262 33.6561C21.5673 33.5919 21.5693 33.5346 21.5893 33.4698C21.7193 33.5486 21.8565 33.5992 21.9919 33.5969C22.0301 33.5963 22.0663 33.5903 22.1031 33.5856L22.1072 33.5894C22.1337 33.6115 22.1665 33.6261 22.2018 33.6315C22.3369 33.6522 22.4611 33.6451 22.5661 33.5919C22.671 33.5387 22.7326 33.4436 22.7602 33.3585C22.7833 33.2871 22.7708 33.2309 22.7732 33.1635C22.92 33.2113 23.0662 33.23 23.1971 33.1981C23.4158 33.1446 23.5877 33.0203 23.7465 32.9087C23.8436 32.8403 23.8439 32.7063 23.7472 32.6375C22.6455 31.8559 22.0045 30.8912 21.1977 29.3654C21.1767 29.3259 21.1399 29.2952 21.0948 29.2799C20.2004 28.8437 18.0268 29.31 17.76 30.1896C15.7203 28.6302 13.3866 27.2265 11.3908 25.943L11.3929 25.9398L10.1206 25.0823L10.039 25.1106C10.0361 25.1077 10.0331 25.1051 10.03 25.1024L9.42849 24.613C9.39544 24.5862 9.35318 24.5711 9.30914 24.5702H9.30632L8.54703 24.0858C8.53457 24.0501 8.5098 24.0192 8.47638 23.9977L7.75002 23.5315V23.5309C7.73833 23.5171 7.72449 23.505 7.70887 23.495L6.51197 22.7174C6.50392 22.7122 6.49545 22.7076 6.48659 22.7036C6.47557 22.688 6.46195 22.6742 6.44612 22.6627L5.84458 22.2305C5.80977 22.2057 5.76637 22.193 5.72234 22.1947ZM5.57685 22.5365L6.15362 22.953C5.75436 23.2705 5.16627 23.5457 4.70356 23.8771C4.2319 24.1666 3.12474 24.4933 2.63792 24.6589C2.56502 24.5672 3.81032 24.0813 4.17973 23.8315C4.34419 23.7447 4.47847 23.555 4.28874 23.5526C4.25313 23.5522 4.18791 23.5784 4.18791 23.5784C3.55392 23.9266 3.05018 24.2352 2.87586 24.3104C2.70153 24.3857 2.63483 24.5096 2.14548 24.6159L1.92239 24.525L1.38959 24.2511C2.68354 23.9655 4.25233 23.4659 5.57685 22.5365ZM6.40481 23.0685L7.38799 23.7203C7.03051 23.9971 6.66788 24.2245 6.39895 24.4779C5.48559 25.1421 4.94163 25.7137 3.53225 26.0382C3.4263 25.9996 3.29247 25.9 3.2826 25.8696C3.27392 25.8428 3.28578 25.7652 3.31003 25.6964C4.01709 25.6404 4.48177 25.3086 5.33185 24.6821C5.4739 24.5809 6.1136 24.1891 5.93377 24.091C5.79181 24.0716 5.20799 24.5329 5.17557 24.5577C4.29521 25.2065 3.84442 25.3377 3.18932 25.3642C3.17572 25.3641 3.16213 25.3655 3.14884 25.368C3.00157 25.3676 2.91797 25.3476 2.89026 25.3334C2.87879 25.3275 2.87459 25.3242 2.87039 25.3202C3.66335 24.9812 4.4682 24.4471 5.20244 23.8996C5.58212 23.6553 5.97433 23.3805 6.40481 23.0685ZM7.53861 23.8358L7.95562 24.0808L8.0291 24.1551C7.49587 24.5845 6.84351 25.0782 6.27528 25.4776C5.72276 25.866 5.22896 26.1573 4.79968 26.2608C4.78714 26.2614 4.61956 26.2935 4.48549 26.2963C4.25074 26.3543 4.20987 26.343 4.03812 26.3168C3.97985 26.3079 3.81312 26.2078 3.76975 26.1909C4.6493 25.9435 5.54844 25.4485 5.94045 25.2025C6.1398 25.0372 6.32867 24.8629 6.52072 24.6854C6.90811 24.4032 7.20433 24.1014 7.53861 23.8358ZM8.3603 24.384L9.05189 24.7995C8.98186 24.8573 8.89062 24.9896 8.8212 25.0494C8.07091 25.6672 7.38002 26.273 6.92608 26.9546C6.72954 27.2426 6.52777 27.6351 6.3696 27.9489C6.26135 27.7552 6.28987 27.5464 6.32103 27.4099C6.34264 27.3153 6.44042 27.118 6.55985 26.998C6.61956 26.938 6.72433 26.8113 6.77429 26.757C6.9358 26.5815 7.024 26.4667 7.1037 26.3459C7.22225 26.1663 7.42008 26.0034 7.33765 25.9198C7.27478 25.8765 6.92098 26.2635 6.78659 26.4262C6.54173 26.7225 6.13855 27.0774 5.79651 27.2139C5.75778 27.2293 5.64002 27.1871 5.6023 27.2C5.58719 27.2052 5.20189 27.3758 5.14263 27.2889C5.126 27.1549 5.48115 27.0477 5.69673 26.9089C5.97696 26.6976 6.13926 26.5953 6.51204 26.2797C7.03814 25.8343 7.50465 25.227 8.04204 24.6671C8.15616 24.558 8.25783 24.4718 8.3603 24.384ZM2.40876 24.7923C2.39051 25.0488 3.61293 24.635 3.63643 24.6448C3.66129 24.6899 2.6484 25.1198 2.65358 25.1801C2.60808 25.197 2.25103 25.2497 2.206 25.2648L2.28531 24.8187C2.33265 24.8086 2.36779 24.8011 2.40876 24.7923ZM9.30615 24.9716L9.63333 25.2384C9.5635 25.2965 9.49866 25.3578 9.43167 25.4177C8.64863 25.9534 8.29678 26.8075 8.02384 27.4927C7.96252 27.6467 7.93289 27.8998 7.92246 28.0629C7.86632 28.3213 7.8645 28.7033 7.84128 29.0014C7.80636 28.9557 7.64921 28.8713 7.63805 28.7319C7.57856 28.5767 7.58851 28.3959 7.62159 28.3305C7.68814 28.1986 7.55647 28.0554 7.40348 28.0933C7.14056 28.1583 7.03402 28.2016 6.9549 28.2116C6.91573 28.2165 6.78543 28.1901 6.71209 28.1814C7.1015 27.2193 8.02066 25.9419 9.30615 24.9716ZM9.81606 25.3346C9.74513 25.4207 10.2066 25.6189 10.2028 25.6242C9.61657 26.4421 8.97586 26.8946 8.45613 27.1638C8.70065 26.7111 9.02251 25.9911 9.40199 25.6423C9.55597 25.5246 9.63208 25.4104 9.81606 25.3346ZM7.88764 24.463C7.83638 24.6955 6.38762 26.0988 6.19605 26.2923C5.84218 26.6498 5.46315 26.7612 5.19763 26.9527C5.06486 27.0485 4.94778 27.1116 4.87114 27.1364C4.81517 27.1545 4.81247 27.1475 4.80255 27.144C4.72898 27.0428 4.71012 26.9539 4.73944 26.8395C4.76578 26.7366 4.82576 26.6238 4.88485 26.5104C5.39667 26.3768 5.68417 26.0866 6.23625 25.6986C6.31743 25.6415 7.77317 24.4413 7.88764 24.463ZM10.3713 25.6517L10.9159 26.0185C10.894 26.0613 10.9708 26.1525 10.9485 26.1945L10.1797 27.3245C10.117 27.4167 9.56141 28.3559 9.48824 28.4397C9.43402 28.5018 9.19725 29.0524 9.1594 29.0863C9.13662 29.1067 9.27448 28.5725 9.26991 28.4416C9.31233 28.2077 9.54154 27.828 9.46394 27.7162C9.29162 27.8109 9.14128 28.3017 8.95909 28.4707C8.55281 28.8478 8.4112 28.9786 8.2382 29.1058C7.9476 29.1506 8.1264 28.314 8.13865 28.1544C8.53468 28.0599 8.97311 27.9266 9.21141 27.721C9.47585 27.4909 9.57032 27.3739 9.90551 27.0766C10.0279 26.9681 10.3934 26.5876 10.2898 26.5109C10.2413 26.5096 10.0386 26.6975 9.80339 26.9114C9.52091 27.1684 9.2046 27.4284 8.9438 27.6047C8.7758 27.7182 8.63414 27.7452 8.25948 27.8391C8.29935 27.6873 8.34537 27.5437 8.39734 27.4069C8.44829 27.4211 8.50345 27.4147 8.54892 27.3893C9.27015 26.9869 9.66683 26.6365 10.3597 25.6699C10.364 25.664 10.3679 25.658 10.3713 25.6517ZM11.1972 26.2368L11.4818 26.4192L11.4811 26.4199C10.8814 27.0593 10.1201 28.3046 9.56034 28.7911C10.079 27.9445 10.7134 26.9172 11.1972 26.2368ZM11.7864 26.6149L12.6326 27.1728C12.4295 27.5948 12.1187 27.9197 11.8419 28.2682C11.6949 28.4409 11.4161 28.7865 11.2672 28.9601C10.797 29.4698 10.4315 29.7452 10.0051 30.1795C9.99756 29.9999 10.0237 29.8086 10.1128 29.5957C10.2542 29.2578 10.5019 28.8957 10.7747 28.5582C11.0474 28.2208 11.3438 27.9073 11.5813 27.6561C11.8025 27.3618 11.7207 27.2846 11.4508 27.4532C10.8046 28.1564 10.457 28.3797 9.89807 28.9074C9.68535 29.1082 9.29468 29.5077 9.20294 29.3588C9.97288 28.6676 10.8403 27.6277 11.7637 26.6432C11.7723 26.6344 11.7799 26.625 11.7864 26.6149ZM13.3262 27.6218C13.1437 27.9298 12.8791 28.403 12.708 28.758C12.2363 29.7779 11.7458 30.6417 11.5848 31.5511C11.5472 31.4923 11.4193 31.282 11.3968 31.1962C11.3396 30.9781 11.3492 30.6939 11.4647 30.4167C11.5286 30.265 11.3475 30.1246 11.1951 30.2078C10.973 30.3278 10.7878 30.5417 10.6231 30.7048C11.0836 29.7829 11.6402 29.0018 12.1688 28.2491C12.3714 27.9922 12.6192 27.5475 12.7798 27.2765C12.987 27.3555 13.151 27.4965 13.3262 27.6218ZM14.7755 28.596C14.6251 28.9235 14.3957 29.303 14.1527 29.7058C13.9846 29.9671 13.8134 30.2291 13.6534 30.4991C13.3695 30.9781 13.0854 31.5882 12.9418 32.0744C12.8655 31.7251 12.9577 31.3976 12.9924 31.0508C13.0923 30.0521 13.2764 29.7805 13.525 29.0501C13.5548 28.9625 13.8092 28.5174 13.6706 28.4716C13.5128 28.4195 13.2813 29.0965 13.2805 29.0981C12.7337 30.172 12.4634 30.8022 12.1306 31.8523C12.0804 31.732 11.9387 31.5269 11.8917 31.2721C12.1704 30.3674 12.6494 29.3979 13.0779 28.538C13.2253 28.2921 13.3025 27.9737 13.4632 27.7251C13.828 28.086 14.3311 28.3215 14.7755 28.596ZM15.3901 28.9754C14.5742 30.1763 13.8809 31.3091 13.7007 32.3971C13.5746 32.6681 13.3259 32.7454 13.2719 32.7212C13.2481 32.6887 13.2479 32.5143 13.2672 32.3644C13.5674 31.1856 14.1765 30.0715 14.6995 29.1478C15.0723 28.736 14.9528 28.7227 15.3901 28.9754ZM16.2735 29.5504C16.2405 29.6896 16.2068 29.8483 16.1727 29.9977C15.8684 31.1103 15.6618 32.0751 15.733 33.0168C15.732 33.1349 15.7395 33.2478 15.7447 33.3622C15.542 33.294 15.5263 33.12 15.4827 32.9728C15.4554 32.7076 15.426 32.4301 15.4084 32.1284C15.3548 31.2105 15.6349 30.7968 15.8646 30.2543C15.9161 30.1388 16.0307 29.8709 15.8949 29.7743C15.8197 29.7772 15.7205 30.2481 15.6943 30.3127C15.2347 31.389 15.237 31.5722 15.1225 32.1325C15.0419 32.5276 14.8798 32.8262 14.7035 33.1942C14.2582 33.1751 14.7045 31.7878 14.8935 31.1901C15.1094 30.6308 15.3306 30.0584 15.5428 29.5246C15.8823 29.3489 16.0382 29.4483 16.2735 29.5504ZM20.8478 29.5571C21.2445 30.654 21.5995 32.1857 22.3869 33.1741C22.4475 33.2678 22.2098 33.3558 22.108 33.247C21.6794 32.8194 21.3637 32.2608 21.0138 31.5554C20.9415 31.4096 20.6412 30.6351 20.4555 30.1838C20.3716 29.9801 20.6393 29.7126 20.8478 29.5571ZM9.1456 29.586C9.23363 29.7271 9.08991 29.6434 9.10231 29.65C9.08561 29.649 8.77044 29.6765 8.75155 29.6798C8.75699 29.6725 8.81867 29.3798 8.95715 29.281C9.01386 29.3713 9.11512 29.4716 9.1456 29.586ZM19.9252 29.9348C19.9602 30.2268 19.9942 30.3771 20.0376 30.6407C20.0585 30.8584 20.0811 31.1936 20.1083 31.412C20.2157 32.2712 20.6698 32.9709 21.0961 33.5716C21.0825 33.6227 20.7275 33.7431 20.7202 33.7426C20.5989 33.7332 20.6125 33.7299 20.5058 33.5567C20.4963 33.5415 20.3354 33.1955 20.2706 33.0532C19.8471 32.1224 19.6615 31.5855 19.499 30.2013C19.4939 30.1578 19.5651 30.0872 19.5288 30.0588L19.5 30.0368C19.479 29.4799 19.4651 29.5775 19.9252 29.9348ZM15.2433 29.7089C15.034 30.1742 14.8413 30.629 14.6952 31.0672C14.4871 31.6976 14.2547 32.3661 14.2329 32.942C14.178 32.9282 14.1261 32.9134 14.0937 32.8929C13.9995 32.8333 13.9454 32.7656 13.9401 32.5928C14.0089 32.573 13.9814 32.3966 13.9914 32.3311C14.1688 31.1748 14.6356 30.4253 15.2433 29.7089ZM16.41 29.7164L16.8689 29.9606C16.8775 30.1205 16.9011 30.2887 16.8826 30.4664C16.8075 31.1874 16.812 31.8634 16.8689 32.5092C16.9109 32.9867 17.1418 33.7996 17.3399 34.2575C17.0037 34.1629 16.7705 33.7148 16.7295 33.5595C16.6922 33.4185 16.6643 33.3915 16.5146 33.2335C16.3833 33.3967 16.3567 33.9267 16.1898 33.9109C16.0681 33.8993 16.0948 33.5953 16.0785 33.5315C16.0356 33.3645 16.0155 32.6695 16.0143 32.5769C15.9987 31.326 16.1551 30.8204 16.41 29.7164ZM19.4073 30.2625C19.4 30.7394 19.3919 31.1944 19.3181 31.7293C19.31 31.7875 19.2071 32.4552 19.2085 32.5137C18.8518 32.155 18.7522 31.0872 18.6877 30.5383C19.2076 30.2068 18.9703 29.9293 19.4073 30.2625ZM18.1199 30.1789L18.4526 30.4375C18.4469 30.9457 18.4269 31.498 18.4341 32.0487C18.4373 32.2989 18.5882 33.171 18.6076 33.4139C18.2785 33.1411 18.0534 31.7959 17.9987 31.1981C17.9666 30.847 18.1269 30.4851 18.1199 30.1789ZM21.1195 30.0142C21.7407 31.0946 22.4756 32.0695 23.341 32.735C23.2587 32.7845 23.1684 32.8507 23.1009 32.8672C22.9833 32.8959 22.8899 32.8915 22.7257 32.7615C22.6172 32.6763 22.4489 32.7298 22.4212 32.8583C21.857 32.1072 21.4081 31.1044 21.1195 30.0142ZM17.2763 30.2626L17.7913 30.5843C17.8193 30.818 17.7629 31.0168 17.773 31.234C17.7889 31.5772 17.8004 32.0893 17.8051 32.4416C17.8134 33.0688 17.8523 33.4883 18.0115 34.0244C18.0186 34.0132 18.0606 34.255 17.9735 34.3419C17.9394 34.4252 17.7929 34.6094 17.7652 34.6751C17.7406 34.6957 17.5978 34.5013 17.5595 34.4075C17.3528 33.901 17.1423 32.7329 17.084 32.1749C17.0066 31.435 17.0715 31.0208 17.0779 30.4006C17.0786 30.3163 17.1708 30.1816 17.2763 30.2626ZM20.3704 30.3067C20.5057 30.6748 20.6437 31.1143 20.797 31.4919C21.0216 32.0453 21.2738 32.5803 21.5919 33.0213C21.4855 32.9633 21.3481 33.0147 21.3162 33.1245C21.2936 33.2033 21.2745 33.2804 21.2559 33.3453C20.7298 32.6306 20.1142 31.5786 20.1544 30.469C20.1012 30.3454 20.2676 30.3262 20.3704 30.3067ZM19.4992 31.2394C19.6768 31.1826 19.8832 32.9897 20.1893 33.4949C20.4479 33.9217 20.8888 34.1371 20.2558 34.1865C20.084 34.2293 19.9283 33.8699 19.8985 33.8719C19.1216 33.3179 19.4139 31.9613 19.4992 31.2394ZM18.8093 32.0902C18.9589 32.7356 19.4046 33.6817 19.8254 34.1791C19.72 34.4608 19.2644 34.3488 19.1885 34.309C18.9098 34.1633 18.6118 32.3305 18.6097 32.2326C18.5558 31.6465 18.7006 31.5646 18.8093 32.0902ZM18.1453 32.9087C18.295 33.3518 18.4845 33.7654 18.7276 34.1669C18.705 34.2243 18.6833 34.2769 18.6638 34.3229C18.6115 34.3349 18.5622 34.3435 18.5246 34.3406C18.5029 34.3389 18.4834 34.335 18.4636 34.3311C18.2821 33.9428 18.1871 33.4492 18.1453 32.9087Z" fill="black"/>
<path fill-rule="evenodd" clip-rule="evenodd" d="M5.35337 21.1959C5.98737 20.67 6.70131 20.6938 8.01857 20.5919C9.10525 20.5079 9.34823 20.5986 9.95471 20.9886C12.8973 22.8806 20.341 27.6286 21.031 28.127C21.545 28.5634 21.8509 29.3683 20.7802 29.8238C19.3547 30.4304 18.5888 30.693 18.209 30.6004L5.60421 22.4613C5.13289 22.1729 5.0343 21.6555 5.35337 21.1959Z" fill="white" stroke="black" stroke-width="0.2"/>
<path fill-rule="evenodd" clip-rule="evenodd" d="M5.76101 22.5476L17.8642 30.3703C19.1299 31.2583 19.7499 29.7072 18.8048 29.2199L6.70167 21.3397C5.55573 20.5553 4.47556 21.6716 5.76101 22.5476Z" fill="white" stroke="black" stroke-width="0.2"/>
<path fill-rule="evenodd" clip-rule="evenodd" d="M13.2182 24.0025L30.7772 1.22464C31.4588 0.591638 32.3693 1.43034 31.8433 2.08743L14.2843 24.6927C13.9413 25.0552 12.8445 24.3942 13.2182 24.0025Z" fill="white" stroke="black" stroke-width="0.2"/>
<g filter="url(#filter0_i_101_28)">
<path d="M7.55398 13.1449H6.49148C6.46117 12.9706 6.4053 12.8163 6.32386 12.6818C6.24242 12.5455 6.1411 12.4299 6.01989 12.3352C5.89867 12.2405 5.76042 12.1695 5.60511 12.1222C5.4517 12.0729 5.28598 12.0483 5.10795 12.0483C4.79167 12.0483 4.51136 12.1278 4.26705 12.2869C4.02273 12.4441 3.83144 12.6752 3.69318 12.9801C3.55492 13.2831 3.4858 13.6534 3.4858 14.0909C3.4858 14.536 3.55492 14.911 3.69318 15.2159C3.83333 15.5189 4.02462 15.7481 4.26705 15.9034C4.51136 16.0568 4.79072 16.1335 5.10511 16.1335C5.27936 16.1335 5.44223 16.1108 5.59375 16.0653C5.74716 16.018 5.88447 15.9489 6.00568 15.858C6.12879 15.767 6.23201 15.6553 6.31534 15.5227C6.40057 15.3902 6.45928 15.2386 6.49148 15.0682L7.55398 15.0739C7.5142 15.3504 7.42803 15.6098 7.29545 15.8523C7.16477 16.0947 6.99337 16.3087 6.78125 16.4943C6.56913 16.678 6.32102 16.822 6.03693 16.9261C5.75284 17.0284 5.4375 17.0795 5.09091 17.0795C4.57955 17.0795 4.12311 16.9612 3.72159 16.7244C3.32008 16.4877 3.00379 16.1458 2.77273 15.6989C2.54167 15.2519 2.42614 14.7159 2.42614 14.0909C2.42614 13.464 2.54261 12.928 2.77557 12.483C3.00852 12.036 3.32576 11.6941 3.72727 11.4574C4.12879 11.2206 4.58333 11.1023 5.09091 11.1023C5.41477 11.1023 5.71591 11.1477 5.99432 11.2386C6.27273 11.3295 6.52083 11.4631 6.73864 11.6392C6.95644 11.8134 7.13542 12.0275 7.27557 12.2812C7.41761 12.5331 7.51042 12.821 7.55398 13.1449ZM9.50213 11.1818V17H8.47372V11.1818H9.50213ZM12.4915 17.0852C12.054 17.0852 11.6761 16.9943 11.358 16.8125C11.0417 16.6288 10.7983 16.3693 10.6278 16.0341C10.4574 15.697 10.3722 15.3002 10.3722 14.8438C10.3722 14.3949 10.4574 14.0009 10.6278 13.6619C10.8002 13.321 11.0407 13.0559 11.3494 12.8665C11.6581 12.6752 12.0208 12.5795 12.4375 12.5795C12.7064 12.5795 12.9602 12.6231 13.1989 12.7102C13.4394 12.7955 13.6515 12.928 13.8352 13.108C14.0208 13.2879 14.1667 13.517 14.2727 13.7955C14.3788 14.072 14.4318 14.4015 14.4318 14.7841V15.0994H10.8551V14.4062H13.446C13.4441 14.2093 13.4015 14.0341 13.3182 13.8807C13.2348 13.7254 13.1184 13.6032 12.9688 13.5142C12.821 13.4252 12.6487 13.3807 12.4517 13.3807C12.2415 13.3807 12.0568 13.4318 11.8977 13.5341C11.7386 13.6345 11.6146 13.767 11.5256 13.9318C11.4384 14.0947 11.3939 14.2737 11.392 14.4688V15.0739C11.392 15.3277 11.4384 15.5455 11.5312 15.7273C11.6241 15.9072 11.7538 16.0455 11.9205 16.142C12.0871 16.2367 12.2822 16.2841 12.5057 16.2841C12.6553 16.2841 12.7907 16.2633 12.9119 16.2216C13.0331 16.178 13.1383 16.1146 13.2273 16.0312C13.3163 15.9479 13.3835 15.8447 13.429 15.7216L14.3892 15.8295C14.3286 16.0833 14.2131 16.3049 14.0426 16.4943C13.8741 16.6818 13.6581 16.8277 13.3949 16.9318C13.1316 17.0341 12.8305 17.0852 12.4915 17.0852ZM16.5575 17.0881C16.281 17.0881 16.032 17.0388 15.8104 16.9403C15.5907 16.84 15.4164 16.6922 15.2876 16.4972C15.1607 16.3021 15.0973 16.0616 15.0973 15.7756C15.0973 15.5294 15.1428 15.3258 15.2337 15.1648C15.3246 15.0038 15.4486 14.875 15.6058 14.7784C15.763 14.6818 15.9401 14.6089 16.1371 14.5597C16.3359 14.5085 16.5414 14.4716 16.7536 14.4489C17.0092 14.4223 17.2166 14.3987 17.3757 14.3778C17.5348 14.3551 17.6503 14.321 17.7223 14.2756C17.7962 14.2282 17.8331 14.1553 17.8331 14.0568V14.0398C17.8331 13.8258 17.7696 13.66 17.6428 13.5426C17.5159 13.4252 17.3331 13.3665 17.0945 13.3665C16.8426 13.3665 16.6428 13.4214 16.495 13.5312C16.3492 13.6411 16.2507 13.7708 16.1996 13.9205L15.2393 13.7841C15.3151 13.5189 15.4401 13.2973 15.6143 13.1193C15.7886 12.9394 16.0017 12.8049 16.2536 12.7159C16.5054 12.625 16.7839 12.5795 17.0888 12.5795C17.299 12.5795 17.5083 12.6042 17.7166 12.6534C17.925 12.7027 18.1153 12.7841 18.2876 12.8977C18.46 13.0095 18.5982 13.1619 18.7024 13.3551C18.8085 13.5483 18.8615 13.7898 18.8615 14.0795V17H17.8729V16.4006H17.8388C17.7763 16.5218 17.6882 16.6354 17.5746 16.7415C17.4628 16.8456 17.3217 16.9299 17.1513 16.9943C16.9827 17.0568 16.7848 17.0881 16.5575 17.0881ZM16.8246 16.3324C17.031 16.3324 17.21 16.2917 17.3615 16.2102C17.513 16.1269 17.6295 16.017 17.7109 15.8807C17.7943 15.7443 17.8359 15.5956 17.8359 15.4347V14.9205C17.8037 14.947 17.7488 14.9716 17.6712 14.9943C17.5954 15.017 17.5102 15.0369 17.4155 15.054C17.3208 15.071 17.227 15.0862 17.1342 15.0994C17.0414 15.1127 16.9609 15.1241 16.8928 15.1335C16.7393 15.1544 16.602 15.1884 16.4808 15.2358C16.3596 15.2831 16.264 15.3494 16.1939 15.4347C16.1238 15.518 16.0888 15.6259 16.0888 15.7585C16.0888 15.9479 16.1579 16.0909 16.2962 16.1875C16.4344 16.2841 16.6106 16.3324 16.8246 16.3324ZM20.924 14.4432V17H19.8956V12.6364H20.8786V13.3778H20.9297C21.0301 13.1335 21.1901 12.9394 21.4098 12.7955C21.6314 12.6515 21.9051 12.5795 22.2308 12.5795C22.532 12.5795 22.7943 12.6439 23.0178 12.7727C23.2431 12.9015 23.4174 13.0881 23.5405 13.3324C23.6655 13.5767 23.727 13.8731 23.7251 14.2216V17H22.6967V14.3807C22.6967 14.089 22.621 13.8608 22.4695 13.696C22.3198 13.5312 22.1125 13.4489 21.8473 13.4489C21.6674 13.4489 21.5073 13.4886 21.3672 13.5682C21.2289 13.6458 21.12 13.7585 21.0405 13.9062C20.9628 14.054 20.924 14.233 20.924 14.4432ZM26.7024 17.0852C26.2649 17.0852 25.8871 16.9943 25.5689 16.8125C25.2526 16.6288 25.0092 16.3693 24.8388 16.0341C24.6683 15.697 24.5831 15.3002 24.5831 14.8438C24.5831 14.3949 24.6683 14.0009 24.8388 13.6619C25.0111 13.321 25.2517 13.0559 25.5604 12.8665C25.8691 12.6752 26.2318 12.5795 26.6484 12.5795C26.9174 12.5795 27.1712 12.6231 27.4098 12.7102C27.6503 12.7955 27.8625 12.928 28.0462 13.108C28.2318 13.2879 28.3776 13.517 28.4837 13.7955C28.5897 14.072 28.6428 14.4015 28.6428 14.7841V15.0994H25.0661V14.4062H27.657C27.6551 14.2093 27.6125 14.0341 27.5291 13.8807C27.4458 13.7254 27.3293 13.6032 27.1797 13.5142C27.032 13.4252 26.8596 13.3807 26.6626 13.3807C26.4524 13.3807 26.2678 13.4318 26.1087 13.5341C25.9496 13.6345 25.8255 13.767 25.7365 13.9318C25.6494 14.0947 25.6049 14.2737 25.603 14.4688V15.0739C25.603 15.3277 25.6494 15.5455 25.7422 15.7273C25.835 15.9072 25.9647 16.0455 26.1314 16.142C26.2981 16.2367 26.4931 16.2841 26.7166 16.2841C26.8662 16.2841 27.0017 16.2633 27.1229 16.2216C27.2441 16.178 27.3492 16.1146 27.4382 16.0312C27.5272 15.9479 27.5945 15.8447 27.6399 15.7216L28.6001 15.8295C28.5395 16.0833 28.424 16.3049 28.2536 16.4943C28.085 16.6818 27.8691 16.8277 27.6058 16.9318C27.3426 17.0341 27.0414 17.0852 26.7024 17.0852ZM29.5128 17V12.6364H30.5099V13.3636H30.5554C30.6349 13.1117 30.7713 12.9176 30.9645 12.7812C31.1596 12.643 31.3821 12.5739 31.6321 12.5739C31.6889 12.5739 31.7524 12.5767 31.8224 12.5824C31.8944 12.5862 31.9541 12.5928 32.0014 12.6023V13.5483C31.9579 13.5331 31.8887 13.5199 31.794 13.5085C31.7012 13.4953 31.6113 13.4886 31.5241 13.4886C31.3366 13.4886 31.1681 13.5294 31.0185 13.6108C30.8707 13.6903 30.7543 13.8011 30.669 13.9432C30.5838 14.0852 30.5412 14.2491 30.5412 14.4347V17H29.5128Z" fill="#0282FF"/>
</g>
<path d="M7.55398 13.1449V13.2449H7.66833L7.65309 13.1316L7.55398 13.1449ZM6.49148 13.1449L6.39296 13.162L6.40737 13.2449H6.49148V13.1449ZM6.32386 12.6818L6.23801 12.7331L6.23833 12.7336L6.32386 12.6818ZM6.01989 12.3352L6.08145 12.2564L6.08145 12.2564L6.01989 12.3352ZM5.60511 12.1222L5.57455 12.2174L5.57595 12.2178L5.60511 12.1222ZM4.26705 12.2869L4.32116 12.371L4.32161 12.3707L4.26705 12.2869ZM3.69318 12.9801L3.78416 13.0216L3.78426 13.0214L3.69318 12.9801ZM3.69318 15.2159L3.6021 15.2572L3.60242 15.2579L3.69318 15.2159ZM4.26705 15.9034L4.2131 15.9876L4.21387 15.9881L4.26705 15.9034ZM5.59375 16.0653L5.62249 16.1611L5.62324 16.1609L5.59375 16.0653ZM6.00568 15.858L5.94628 15.7775L5.94568 15.778L6.00568 15.858ZM6.31534 15.5227L6.23122 15.4686L6.23068 15.4695L6.31534 15.5227ZM6.49148 15.0682L6.49201 14.9682L6.40868 14.9677L6.39322 15.0496L6.49148 15.0682ZM7.55398 15.0739L7.65296 15.0881L7.6693 14.9745L7.55451 14.9739L7.55398 15.0739ZM7.29545 15.8523L7.20772 15.8043L7.20743 15.8048L7.29545 15.8523ZM6.78125 16.4943L6.84672 16.5699L6.8471 16.5696L6.78125 16.4943ZM6.03693 16.9261L6.0708 17.0202L6.07136 17.02L6.03693 16.9261ZM3.72159 16.7244L3.77238 16.6383L3.72159 16.7244ZM2.77273 15.6989L2.68389 15.7448L2.68389 15.7448L2.77273 15.6989ZM2.77557 12.483L2.86417 12.5293L2.86425 12.5292L2.77557 12.483ZM3.72727 11.4574L3.67648 11.3712L3.67648 11.3712L3.72727 11.4574ZM5.99432 11.2386L6.02536 11.1436L6.02536 11.1436L5.99432 11.2386ZM6.73864 11.6392L6.67575 11.717L6.67617 11.7173L6.73864 11.6392ZM7.27557 12.2812L7.18803 12.3296L7.18846 12.3304L7.27557 12.2812ZM7.55398 13.0449H6.49148V13.2449H7.55398V13.0449ZM6.59 13.1278C6.55783 12.9428 6.49804 12.7764 6.4094 12.63L6.23833 12.7336C6.31256 12.8562 6.36452 12.9985 6.39296 13.162L6.59 13.1278ZM6.40972 12.6305C6.32216 12.4839 6.21271 12.359 6.08145 12.2564L5.95832 12.414C6.06949 12.5009 6.16269 12.607 6.23801 12.7331L6.40972 12.6305ZM6.08145 12.2564C5.95004 12.1538 5.80066 12.0772 5.63428 12.0265L5.57595 12.2178C5.72017 12.2618 5.84731 12.3273 5.95832 12.414L6.08145 12.2564ZM5.63568 12.0269C5.47141 11.9742 5.29528 11.9483 5.10795 11.9483V12.1483C5.27669 12.1483 5.432 12.1716 5.57455 12.2174L5.63568 12.0269ZM5.10795 11.9483C4.77401 11.9483 4.47441 12.0326 4.21248 12.2031L4.32161 12.3707C4.54832 12.2231 4.80933 12.1483 5.10795 12.1483V11.9483ZM4.21294 12.2028C3.95008 12.372 3.74707 12.6191 3.60211 12.9388L3.78426 13.0214C3.91581 12.7313 4.09537 12.5163 4.32115 12.371L4.21294 12.2028ZM3.6022 12.9386C3.45645 13.2581 3.3858 13.6434 3.3858 14.0909H3.5858C3.5858 13.6634 3.6534 13.3082 3.78416 13.0216L3.6022 12.9386ZM3.3858 14.0909C3.3858 14.5458 3.45637 14.9358 3.60211 15.2572L3.78426 15.1746C3.65348 14.8862 3.5858 14.5262 3.5858 14.0909H3.3858ZM3.60242 15.2579C3.74927 15.5754 3.9522 15.8205 4.2131 15.9876L4.32099 15.8192C4.09704 15.6757 3.9174 15.4625 3.78394 15.1739L3.60242 15.2579ZM4.21387 15.9881C4.47554 16.1524 4.77366 16.2335 5.10511 16.2335V16.0335C4.80778 16.0335 4.54719 15.9612 4.32022 15.8187L4.21387 15.9881ZM5.10511 16.2335C5.28811 16.2335 5.46075 16.2096 5.62248 16.1611L5.56502 15.9696C5.42372 16.0119 5.2706 16.0335 5.10511 16.0335V16.2335ZM5.62324 16.1609C5.78698 16.1104 5.93473 16.0362 6.06568 15.938L5.94568 15.778C5.83421 15.8616 5.70734 15.9256 5.56426 15.9698L5.62324 16.1609ZM6.06509 15.9384C6.19847 15.8399 6.31018 15.7188 6.4 15.5759L6.23068 15.4695C6.15383 15.5918 6.0591 15.6942 5.94628 15.7775L6.06509 15.9384ZM6.39946 15.5768C6.49231 15.4324 6.5554 15.2686 6.58974 15.0867L6.39322 15.0496C6.36316 15.2087 6.30883 15.3479 6.23122 15.4687L6.39946 15.5768ZM6.49094 15.1682L7.55344 15.1739L7.55451 14.9739L6.49201 14.9682L6.49094 15.1682ZM7.455 15.0596C7.41691 15.3244 7.33449 15.5725 7.20772 15.8043L7.38319 15.9003C7.52157 15.6472 7.6115 15.3763 7.65296 15.0881L7.455 15.0596ZM7.20743 15.8048C7.08255 16.0365 6.91874 16.2411 6.7154 16.4191L6.8471 16.5696C7.068 16.3763 7.24699 16.1529 7.38348 15.8997L7.20743 15.8048ZM6.71578 16.4187C6.51351 16.5939 6.27612 16.7319 6.00251 16.8322L6.07136 17.02C6.36592 16.912 6.62475 16.7622 6.84672 16.5699L6.71578 16.4187ZM6.00306 16.832C5.73131 16.9299 5.42763 16.9795 5.09091 16.9795V17.1795C5.44737 17.1795 5.77437 17.1269 6.0708 17.0202L6.00306 16.832ZM5.09091 16.9795C4.59562 16.9795 4.15704 16.8651 3.77238 16.6383L3.6708 16.8106C4.08917 17.0573 4.56347 17.1795 5.09091 17.1795V16.9795ZM3.77238 16.6383C3.38837 16.4119 3.08469 16.0846 2.86156 15.6529L2.68389 15.7448C2.92288 16.2071 3.25178 16.5635 3.6708 16.8106L3.77238 16.6383ZM2.86156 15.6529C2.6394 15.2232 2.52614 14.7037 2.52614 14.0909H2.32614C2.32614 14.7281 2.44393 15.2806 2.68389 15.7448L2.86156 15.6529ZM2.52614 14.0909C2.52614 13.4762 2.64033 12.957 2.86417 12.5293L2.68697 12.4366C2.4449 12.8991 2.32614 13.4518 2.32614 14.0909H2.52614ZM2.86425 12.5292C3.08929 12.0974 3.39397 11.77 3.77806 11.5435L3.67648 11.3712C3.25754 11.6183 2.92776 11.9746 2.68689 12.4367L2.86425 12.5292ZM3.77806 11.5435C4.16284 11.3167 4.59956 11.2023 5.09091 11.2023V11.0023C4.56711 11.0023 4.09474 11.1246 3.67648 11.3712L3.77806 11.5435ZM5.09091 11.2023C5.40534 11.2023 5.69589 11.2464 5.96328 11.3337L6.02536 11.1436C5.73593 11.0491 5.42421 11.0023 5.09091 11.0023V11.2023ZM5.96328 11.3337C6.23064 11.421 6.46785 11.5488 6.67576 11.717L6.80152 11.5614C6.57382 11.3773 6.31481 11.2381 6.02536 11.1436L5.96328 11.3337ZM6.67617 11.7173C6.88334 11.883 7.05395 12.0868 7.18803 12.3296L7.36311 12.2329C7.21688 11.9681 7.02953 11.7439 6.80111 11.5611L6.67617 11.7173ZM7.18846 12.3304C7.32351 12.5699 7.41278 12.8453 7.45487 13.1582L7.65309 13.1316C7.60805 12.7967 7.51171 12.4964 7.36267 12.2321L7.18846 12.3304ZM9.50213 11.1818H9.60213V11.0818H9.50213V11.1818ZM9.50213 17V17.1H9.60213V17H9.50213ZM8.47372 17H8.37372V17.1H8.47372V17ZM8.47372 11.1818V11.0818H8.37372V11.1818H8.47372ZM9.40213 11.1818V17H9.60213V11.1818H9.40213ZM9.50213 16.9H8.47372V17.1H9.50213V16.9ZM8.57372 17V11.1818H8.37372V17H8.57372ZM8.47372 11.2818H9.50213V11.0818H8.47372V11.2818ZM11.358 16.8125L11.3077 16.899L11.3083 16.8993L11.358 16.8125ZM10.6278 16.0341L10.5386 16.0792L10.5387 16.0794L10.6278 16.0341ZM10.6278 13.6619L10.5386 13.6168L10.5385 13.617L10.6278 13.6619ZM11.3494 12.8665L11.4017 12.9517L11.4021 12.9515L11.3494 12.8665ZM13.1989 12.7102L13.1646 12.8042L13.1655 12.8045L13.1989 12.7102ZM13.8352 13.108L13.7653 13.1794L13.7656 13.1798L13.8352 13.108ZM14.2727 13.7955L14.1793 13.8311L14.1794 13.8313L14.2727 13.7955ZM14.4318 15.0994V15.1994H14.5318V15.0994H14.4318ZM10.8551 15.0994H10.7551V15.1994H10.8551V15.0994ZM10.8551 14.4062V14.3062H10.7551V14.4062H10.8551ZM13.446 14.4062V14.5063H13.547L13.546 14.4053L13.446 14.4062ZM13.3182 13.8807L13.2301 13.928L13.2303 13.9284L13.3182 13.8807ZM12.9688 13.5142L12.9171 13.5999L12.9176 13.6001L12.9688 13.5142ZM11.8977 13.5341L11.9511 13.6187L11.9518 13.6182L11.8977 13.5341ZM11.5256 13.9318L11.4376 13.8843L11.4374 13.8847L11.5256 13.9318ZM11.392 14.4688L11.292 14.4678V14.4688H11.392ZM11.5312 15.7273L11.4422 15.7727L11.4424 15.7731L11.5312 15.7273ZM11.9205 16.142L11.8703 16.2286L11.8711 16.229L11.9205 16.142ZM12.9119 16.2216L12.9444 16.3162L12.9458 16.3157L12.9119 16.2216ZM13.2273 16.0312L13.1589 15.9582L13.2273 16.0312ZM13.429 15.7216L13.4401 15.6222L13.3623 15.6135L13.3352 15.687L13.429 15.7216ZM14.3892 15.8295L14.4865 15.8528L14.5127 15.7428L14.4004 15.7302L14.3892 15.8295ZM14.0426 16.4943L13.9683 16.4274L13.9682 16.4275L14.0426 16.4943ZM13.3949 16.9318L13.4311 17.025L13.4317 17.0248L13.3949 16.9318ZM12.4915 16.9852C12.068 16.9852 11.708 16.8973 11.4076 16.7257L11.3083 16.8993C11.6443 17.0913 12.04 17.1852 12.4915 17.1852V16.9852ZM11.4082 16.726C11.109 16.5523 10.879 16.3073 10.717 15.9888L10.5387 16.0794C10.7176 16.4313 10.9743 16.7053 11.3077 16.899L11.4082 16.726ZM10.7171 15.989C10.555 15.6685 10.4722 15.2877 10.4722 14.8438H10.2722C10.2722 15.3126 10.3597 15.7255 10.5386 16.0792L10.7171 15.989ZM10.4722 14.8438C10.4722 14.4076 10.5549 14.0296 10.7172 13.7069L10.5385 13.617C10.3599 13.9723 10.2722 14.3821 10.2722 14.8438H10.4722ZM10.7171 13.707C10.8815 13.3817 11.1097 13.1309 11.4017 12.9517L11.2971 12.7812C10.9718 12.9809 10.7188 13.2603 10.5386 13.6168L10.7171 13.707ZM11.4021 12.9515C11.6928 12.7714 12.0366 12.6795 12.4375 12.6795V12.4795C12.005 12.4795 11.6235 12.579 11.2968 12.7815L11.4021 12.9515ZM12.4375 12.6795C12.6954 12.6795 12.9376 12.7213 13.1646 12.8042L13.2332 12.6163C12.9829 12.5249 12.7174 12.4795 12.4375 12.4795V12.6795ZM13.1655 12.8045C13.3922 12.8848 13.5918 13.0096 13.7653 13.1794L13.9052 13.0365C13.7112 12.8465 13.4866 12.7061 13.2323 12.616L13.1655 12.8045ZM13.7656 13.1798C13.9392 13.3481 14.0776 13.5642 14.1793 13.8311L14.3662 13.7599C14.2557 13.4699 14.1024 13.2277 13.9048 13.0362L13.7656 13.1798ZM14.1794 13.8313C14.28 14.0936 14.3318 14.4104 14.3318 14.7841H14.5318C14.5318 14.3927 14.4776 14.0504 14.3661 13.7596L14.1794 13.8313ZM14.3318 14.7841V15.0994H14.5318V14.7841H14.3318ZM14.4318 14.9994H10.8551V15.1994H14.4318V14.9994ZM10.9551 15.0994V14.4062H10.7551V15.0994H10.9551ZM10.8551 14.5063H13.446V14.3062H10.8551V14.5063ZM13.546 14.4053C13.544 14.1941 13.4981 14.0025 13.4061 13.8329L13.2303 13.9284C13.3049 14.0657 13.3443 14.2245 13.346 14.4072L13.546 14.4053ZM13.4063 13.8334C13.3145 13.6623 13.1853 13.5267 13.0199 13.4283L12.9176 13.6001C13.0514 13.6798 13.1552 13.7885 13.2301 13.928L13.4063 13.8334ZM13.0204 13.4286C12.8549 13.3289 12.6642 13.2807 12.4517 13.2807V13.4807C12.6331 13.4807 12.7871 13.5215 12.9171 13.5999L13.0204 13.4286ZM12.4517 13.2807C12.2245 13.2807 12.0206 13.3362 11.8437 13.45L11.9518 13.6182C12.093 13.5274 12.2584 13.4807 12.4517 13.4807V13.2807ZM11.8444 13.4495C11.6708 13.559 11.5348 13.7043 11.4376 13.8843L11.6136 13.9793C11.6944 13.8298 11.8065 13.7099 11.9511 13.6187L11.8444 13.4495ZM11.4374 13.8847C11.3422 14.0626 11.2941 14.2575 11.2921 14.4678L11.492 14.4697C11.4938 14.2898 11.5347 14.1268 11.6137 13.979L11.4374 13.8847ZM11.292 14.4688V15.0739H11.492V14.4688H11.292ZM11.292 15.0739C11.292 15.3397 11.3407 15.5738 11.4422 15.7727L11.6203 15.6818C11.5362 15.5171 11.492 15.3156 11.492 15.0739H11.292ZM11.4424 15.7731C11.5435 15.9691 11.6863 16.1219 11.8703 16.2286L11.9706 16.0555C11.8213 15.969 11.7046 15.8453 11.6201 15.6814L11.4424 15.7731ZM11.8711 16.229C12.0551 16.3336 12.2678 16.3841 12.5057 16.3841V16.1841C12.2966 16.1841 12.1191 16.1399 11.9699 16.0551L11.8711 16.229ZM12.5057 16.3841C12.6646 16.3841 12.8112 16.362 12.9444 16.3162L12.8794 16.127C12.7703 16.1645 12.6461 16.1841 12.5057 16.1841V16.3841ZM12.9458 16.3157C13.0791 16.2678 13.1961 16.1974 13.2956 16.1043L13.1589 15.9582C13.0804 16.0317 12.9872 16.0883 12.8781 16.1275L12.9458 16.3157ZM13.2956 16.1043C13.3968 16.0095 13.4724 15.8928 13.5228 15.7562L13.3352 15.687C13.2947 15.7966 13.2357 15.8863 13.1589 15.9582L13.2956 16.1043ZM13.4178 15.821L14.378 15.9289L14.4004 15.7302L13.4401 15.6222L13.4178 15.821ZM14.2919 15.8063C14.2351 16.0443 14.1273 16.2507 13.9683 16.4274L14.1169 16.5612C14.2988 16.3591 14.4221 16.1224 14.4865 15.8528L14.2919 15.8063ZM13.9682 16.4275C13.8112 16.6021 13.6088 16.7396 13.3581 16.8388L13.4317 17.0248C13.7075 16.9157 13.9369 16.7615 14.117 16.5612L13.9682 16.4275ZM13.3587 16.8386C13.109 16.9356 12.8205 16.9852 12.4915 16.9852V17.1852C12.8405 17.1852 13.1542 17.1326 13.4311 17.025L13.3587 16.8386ZM15.8104 16.9403L15.7688 17.0313L15.7698 17.0317L15.8104 16.9403ZM15.2876 16.4972L15.2038 16.5517L15.2042 16.5523L15.2876 16.4972ZM15.2337 15.1648L15.1466 15.1156L15.1466 15.1156L15.2337 15.1648ZM15.6058 14.7784L15.5535 14.6932L15.5535 14.6932L15.6058 14.7784ZM16.1371 14.5597L16.1613 14.6567L16.162 14.6565L16.1371 14.5597ZM16.7536 14.4489L16.7432 14.3494L16.7429 14.3494L16.7536 14.4489ZM17.3757 14.3778L17.3887 14.477L17.3899 14.4768L17.3757 14.3778ZM17.7223 14.2756L17.7757 14.3601L17.7763 14.3598L17.7223 14.2756ZM17.6428 13.5426L17.7107 13.4692L17.7107 13.4692L17.6428 13.5426ZM16.495 13.5312L16.4354 13.451L16.4349 13.4514L16.495 13.5312ZM16.1996 13.9205L16.1855 14.0195L16.2674 14.0311L16.2942 13.9528L16.1996 13.9205ZM15.2393 13.7841L15.1432 13.7566L15.1117 13.867L15.2253 13.8831L15.2393 13.7841ZM15.6143 13.1193L15.6858 13.1893L15.6862 13.1889L15.6143 13.1193ZM16.2536 12.7159L16.2869 12.8102L16.2875 12.81L16.2536 12.7159ZM18.2876 12.8977L18.2326 12.9812L18.2332 12.9816L18.2876 12.8977ZM18.7024 13.3551L18.6144 13.4026L18.6148 13.4032L18.7024 13.3551ZM18.8615 17V17.1H18.9615V17H18.8615ZM17.8729 17H17.7729V17.1H17.8729V17ZM17.8729 16.4006H17.9729V16.3006H17.8729V16.4006ZM17.8388 16.4006V16.3006H17.7778L17.7499 16.3547L17.8388 16.4006ZM17.5746 16.7415L17.6428 16.8146L17.6428 16.8146L17.5746 16.7415ZM17.1513 16.9943L17.186 17.0881L17.1866 17.0879L17.1513 16.9943ZM17.3615 16.2102L17.4089 16.2983L17.4097 16.2978L17.3615 16.2102ZM17.7109 15.8807L17.6256 15.8285L17.6251 15.8294L17.7109 15.8807ZM17.8359 14.9205H17.9359V14.7086L17.7724 14.8433L17.8359 14.9205ZM17.6712 14.9943L17.6431 14.8983L17.6424 14.8985L17.6712 14.9943ZM17.4155 15.054L17.4332 15.1524L17.4332 15.1524L17.4155 15.054ZM16.8928 15.1335L16.9062 15.2326L16.9065 15.2326L16.8928 15.1335ZM16.4808 15.2358L16.4444 15.1426L16.4444 15.1426L16.4808 15.2358ZM16.1939 15.4347L16.2704 15.499L16.2711 15.4982L16.1939 15.4347ZM16.2962 16.1875L16.2389 16.2695L16.2389 16.2695L16.2962 16.1875ZM16.5575 16.9881C16.293 16.9881 16.0581 16.941 15.851 16.849L15.7698 17.0317C16.0058 17.1366 16.269 17.1881 16.5575 17.1881V16.9881ZM15.8519 16.8494C15.6487 16.7565 15.4892 16.621 15.3711 16.4421L15.2042 16.5523C15.3437 16.7635 15.5327 16.9234 15.7688 17.0313L15.8519 16.8494ZM15.3715 16.4426C15.2573 16.2672 15.1973 16.0466 15.1973 15.7756H14.9973C14.9973 16.0765 15.0642 16.337 15.2038 16.5517L15.3715 16.4426ZM15.1973 15.7756C15.1973 15.5411 15.2407 15.3558 15.3207 15.2139L15.1466 15.1156C15.0449 15.2958 14.9973 15.5176 14.9973 15.7756H15.1973ZM15.3207 15.2139C15.4033 15.0677 15.5155 14.9513 15.6582 14.8636L15.5535 14.6932C15.3818 14.7987 15.2458 14.9399 15.1466 15.1156L15.3207 15.2139ZM15.6582 14.8636C15.8058 14.7729 15.9733 14.7037 16.1613 14.6567L16.1128 14.4626C15.9069 14.5141 15.7202 14.5908 15.5535 14.6932L15.6582 14.8636ZM16.162 14.6565C16.356 14.6066 16.5567 14.5705 16.7642 14.5483L16.7429 14.3494C16.5262 14.3727 16.3159 14.4104 16.1122 14.4628L16.162 14.6565ZM16.7639 14.5483C17.02 14.5218 17.2284 14.498 17.3887 14.477L17.3627 14.2787C17.2049 14.2994 16.9985 14.3229 16.7432 14.3494L16.7639 14.5483ZM17.3899 14.4768C17.5527 14.4536 17.6854 14.4171 17.7757 14.3601L17.6689 14.191C17.6153 14.2249 17.5169 14.2567 17.3616 14.2788L17.3899 14.4768ZM17.7763 14.3598C17.8827 14.2915 17.9331 14.1844 17.9331 14.0568H17.7331C17.7331 14.1262 17.7096 14.1649 17.6683 14.1914L17.7763 14.3598ZM17.9331 14.0568V14.0398H17.7331V14.0568H17.9331ZM17.9331 14.0398C17.9331 13.805 17.8627 13.6099 17.7107 13.4692L17.5748 13.616C17.6766 13.7102 17.7331 13.8465 17.7331 14.0398H17.9331ZM17.7107 13.4692C17.5593 13.3291 17.3486 13.2665 17.0945 13.2665V13.4665C17.3176 13.4665 17.4725 13.5213 17.5748 13.616L17.7107 13.4692ZM17.0945 13.2665C16.8289 13.2665 16.6057 13.3244 16.4354 13.451L16.5547 13.6115C16.6798 13.5184 16.8563 13.4665 17.0945 13.4665V13.2665ZM16.4349 13.4514C16.2756 13.5713 16.1635 13.7168 16.1049 13.8881L16.2942 13.9528C16.3379 13.8249 16.4228 13.7108 16.5552 13.6111L16.4349 13.4514ZM16.2136 13.8214L15.2534 13.6851L15.2253 13.8831L16.1855 14.0195L16.2136 13.8214ZM15.3355 13.8116C15.4072 13.5607 15.5244 13.3542 15.6858 13.1893L15.5429 13.0494C15.3558 13.2405 15.223 13.4772 15.1432 13.7566L15.3355 13.8116ZM15.6862 13.1889C15.849 13.0208 16.0486 12.8944 16.2869 12.8102L16.2202 12.6216C15.9548 12.7154 15.7282 12.858 15.5425 13.0498L15.6862 13.1889ZM16.2875 12.81C16.5271 12.7235 16.7938 12.6795 17.0888 12.6795V12.4795C16.7739 12.4795 16.4838 12.5265 16.2196 12.6218L16.2875 12.81ZM17.0888 12.6795C17.2911 12.6795 17.4927 12.7032 17.6936 12.7507L17.7396 12.5561C17.5239 12.5051 17.3069 12.4795 17.0888 12.4795V12.6795ZM17.6936 12.7507C17.891 12.7974 18.0704 12.8743 18.2326 12.9812L18.3427 12.8142C18.1602 12.6939 17.9589 12.6079 17.7396 12.5561L17.6936 12.7507ZM18.2332 12.9816C18.3905 13.0836 18.5176 13.2231 18.6144 13.4026L18.7904 13.3077C18.6789 13.1007 18.5294 12.9353 18.342 12.8138L18.2332 12.9816ZM18.6148 13.4032C18.7106 13.5778 18.7615 13.8015 18.7615 14.0795H18.9615C18.9615 13.7781 18.9064 13.5188 18.7901 13.307L18.6148 13.4032ZM18.7615 14.0795V17H18.9615V14.0795H18.7615ZM18.8615 16.9H17.8729V17.1H18.8615V16.9ZM17.9729 17V16.4006H17.7729V17H17.9729ZM17.8729 16.3006H17.8388V16.5006H17.8729V16.3006ZM17.7499 16.3547C17.6933 16.4644 17.6127 16.5691 17.5063 16.6684L17.6428 16.8146C17.7637 16.7018 17.8592 16.5791 17.9277 16.4464L17.7499 16.3547ZM17.5064 16.6683C17.4058 16.7621 17.2765 16.8401 17.1159 16.9008L17.1866 17.0879C17.3669 17.0197 17.5199 16.9292 17.6428 16.8146L17.5064 16.6683ZM17.1165 16.9006C16.9616 16.958 16.7759 16.9881 16.5575 16.9881V17.1881C16.7937 17.1881 17.0039 17.1556 17.186 17.0881L17.1165 16.9006ZM16.8246 16.4324C17.0442 16.4324 17.2401 16.389 17.4089 16.2983L17.3142 16.1221C17.1798 16.1943 17.0178 16.2324 16.8246 16.2324V16.4324ZM17.4097 16.2978C17.5753 16.2067 17.7054 16.0849 17.7968 15.932L17.6251 15.8294C17.5535 15.9492 17.4507 16.047 17.3133 16.1226L17.4097 16.2978ZM17.7963 15.9328C17.8893 15.7806 17.9359 15.6139 17.9359 15.4347H17.7359C17.7359 15.5774 17.6993 15.708 17.6256 15.8285L17.7963 15.9328ZM17.9359 15.4347V14.9205H17.7359V15.4347H17.9359ZM17.7724 14.8433C17.7564 14.8564 17.7177 14.8765 17.6431 14.8983L17.6993 15.0903C17.78 15.0667 17.8511 15.0375 17.8995 14.9976L17.7724 14.8433ZM17.6424 14.8985C17.571 14.92 17.4895 14.939 17.3978 14.9556L17.4332 15.1524C17.5309 15.1348 17.6198 15.1141 17.6999 15.0901L17.6424 14.8985ZM17.3978 14.9556C17.3042 14.9724 17.2117 14.9874 17.1201 15.0004L17.1484 15.1984C17.2424 15.185 17.3373 15.1696 17.4332 15.1524L17.3978 14.9556ZM17.1201 15.0004C17.0274 15.0137 16.947 15.025 16.879 15.0345L16.9065 15.2326C16.9749 15.2231 17.0555 15.2117 17.1484 15.1984L17.1201 15.0004ZM16.8793 15.0344C16.7195 15.0561 16.5743 15.0919 16.4444 15.1426L16.5172 15.3289C16.6298 15.285 16.7592 15.2526 16.9062 15.2326L16.8793 15.0344ZM16.4444 15.1426C16.3102 15.1951 16.1994 15.2705 16.1166 15.3711L16.2711 15.4982C16.3285 15.4283 16.4091 15.3712 16.5172 15.3289L16.4444 15.1426ZM16.1174 15.3703C16.029 15.4753 15.9888 15.6077 15.9888 15.7585H16.1888C16.1888 15.6442 16.2186 15.5606 16.2704 15.499L16.1174 15.3703ZM15.9888 15.7585C15.9888 15.9759 16.0702 16.1517 16.2389 16.2695L16.3534 16.1055C16.2456 16.0302 16.1888 15.9199 16.1888 15.7585H15.9888ZM16.2389 16.2695C16.398 16.3806 16.5956 16.4324 16.8246 16.4324V16.2324C16.6255 16.2324 16.4709 16.1876 16.3534 16.1055L16.2389 16.2695ZM20.924 17V17.1H21.024V17H20.924ZM19.8956 17H19.7956V17.1H19.8956V17ZM19.8956 12.6364V12.5364H19.7956V12.6364H19.8956ZM20.8786 12.6364H20.9786V12.5364H20.8786V12.6364ZM20.8786 13.3778H20.7786V13.4778H20.8786V13.3778ZM20.9297 13.3778V13.4778H20.9967L21.0222 13.4158L20.9297 13.3778ZM21.4098 12.7955L21.3553 12.7116L21.355 12.7118L21.4098 12.7955ZM23.0178 12.7727L22.9678 12.8594L22.9681 12.8596L23.0178 12.7727ZM23.5405 13.3324L23.4512 13.3774L23.4515 13.3779L23.5405 13.3324ZM23.7251 14.2216L23.6251 14.221V14.2216H23.7251ZM23.7251 17V17.1H23.8251V17H23.7251ZM22.6967 17H22.5967V17.1H22.6967V17ZM22.4695 13.696L22.3954 13.7632L22.3959 13.7637L22.4695 13.696ZM21.3672 13.5682L21.4162 13.6554L21.4165 13.6552L21.3672 13.5682ZM21.0405 13.9062L20.9524 13.8588L20.952 13.8597L21.0405 13.9062ZM20.824 14.4432V17H21.024V14.4432H20.824ZM20.924 16.9H19.8956V17.1H20.924V16.9ZM19.9956 17V12.6364H19.7956V17H19.9956ZM19.8956 12.7364H20.8786V12.5364H19.8956V12.7364ZM20.7786 12.6364V13.3778H20.9786V12.6364H20.7786ZM20.8786 13.4778H20.9297V13.2778H20.8786V13.4778ZM21.0222 13.4158C21.1149 13.1901 21.2619 13.0119 21.4646 12.8791L21.355 12.7118C21.1183 12.8669 20.9452 13.077 20.8372 13.3398L21.0222 13.4158ZM21.4643 12.8793C21.6662 12.7481 21.9199 12.6795 22.2308 12.6795V12.4795C21.8902 12.4795 21.5965 12.5549 21.3553 12.7116L21.4643 12.8793ZM22.2308 12.6795C22.5174 12.6795 22.7619 12.7407 22.9678 12.8594L23.0677 12.6861C22.8266 12.5472 22.5465 12.4795 22.2308 12.4795V12.6795ZM22.9681 12.8596C23.1755 12.9781 23.3364 13.1496 23.4512 13.3774L23.6298 13.2874C23.4983 13.0265 23.3107 12.825 23.0674 12.6859L22.9681 12.8596ZM23.4515 13.3779C23.5675 13.6047 23.627 13.8844 23.6251 14.221L23.8251 14.2221C23.8271 13.8618 23.7635 13.5487 23.6295 13.2868L23.4515 13.3779ZM23.6251 14.2216V17H23.8251V14.2216H23.6251ZM23.7251 16.9H22.6967V17.1H23.7251V16.9ZM22.7967 17V14.3807H22.5967V17H22.7967ZM22.7967 14.3807C22.7967 14.0718 22.7162 13.8166 22.5431 13.6283L22.3959 13.7637C22.5258 13.905 22.5967 14.1063 22.5967 14.3807H22.7967ZM22.5435 13.6288C22.3713 13.4392 22.1348 13.3489 21.8473 13.3489V13.5489C22.0901 13.5489 22.2684 13.6233 22.3954 13.7632L22.5435 13.6288ZM21.8473 13.3489C21.6521 13.3489 21.4747 13.3922 21.3178 13.4812L21.4165 13.6552C21.54 13.5851 21.6826 13.5489 21.8473 13.5489V13.3489ZM21.3182 13.481C21.1624 13.5685 21.0404 13.6954 20.9524 13.8588L21.1285 13.9537C21.1996 13.8216 21.2954 13.7232 21.4162 13.6554L21.3182 13.481ZM20.952 13.8597C20.8651 14.025 20.824 14.2209 20.824 14.4432H21.024C21.024 14.245 21.0606 14.0829 21.129 13.9528L20.952 13.8597ZM25.5689 16.8125L25.5187 16.899L25.5193 16.8993L25.5689 16.8125ZM24.8388 16.0341L24.7495 16.0792L24.7496 16.0794L24.8388 16.0341ZM24.8388 13.6619L24.7495 13.6168L24.7494 13.617L24.8388 13.6619ZM25.5604 12.8665L25.6127 12.9517L25.613 12.9515L25.5604 12.8665ZM27.4098 12.7102L27.3755 12.8042L27.3764 12.8045L27.4098 12.7102ZM28.0462 13.108L27.9762 13.1794L27.9766 13.1798L28.0462 13.108ZM28.4837 13.7955L28.3902 13.8311L28.3903 13.8313L28.4837 13.7955ZM28.6428 15.0994V15.1994H28.7428V15.0994H28.6428ZM25.0661 15.0994H24.9661V15.1994H25.0661V15.0994ZM25.0661 14.4062V14.3062H24.9661V14.4062H25.0661ZM27.657 14.4062V14.5063H27.7579L27.757 14.4053L27.657 14.4062ZM27.5291 13.8807L27.441 13.928L27.4412 13.9284L27.5291 13.8807ZM27.1797 13.5142L27.1281 13.5999L27.1286 13.6001L27.1797 13.5142ZM26.1087 13.5341L26.162 13.6187L26.1627 13.6182L26.1087 13.5341ZM25.7365 13.9318L25.6485 13.8843L25.6483 13.8847L25.7365 13.9318ZM25.603 14.4688L25.503 14.4678V14.4688H25.603ZM25.7422 15.7273L25.6531 15.7727L25.6533 15.7731L25.7422 15.7273ZM26.1314 16.142L26.0812 16.2286L26.082 16.229L26.1314 16.142ZM27.1229 16.2216L27.1554 16.3162L27.1567 16.3157L27.1229 16.2216ZM27.4382 16.0312L27.3699 15.9582L27.4382 16.0312ZM27.6399 15.7216L27.6511 15.6222L27.5732 15.6135L27.5461 15.687L27.6399 15.7216ZM28.6001 15.8295L28.6974 15.8528L28.7237 15.7428L28.6113 15.7302L28.6001 15.8295ZM28.2536 16.4943L28.1792 16.4274L28.1792 16.4275L28.2536 16.4943ZM27.6058 16.9318L27.642 17.025L27.6426 17.0248L27.6058 16.9318ZM26.7024 16.9852C26.2789 16.9852 25.9189 16.8973 25.6185 16.7257L25.5193 16.8993C25.8553 17.0913 26.2509 17.1852 26.7024 17.1852V16.9852ZM25.6191 16.726C25.32 16.5523 25.0899 16.3073 24.9279 15.9888L24.7496 16.0794C24.9286 16.4313 25.1852 16.7053 25.5187 16.899L25.6191 16.726ZM24.928 15.989C24.766 15.6685 24.6831 15.2877 24.6831 14.8438H24.4831C24.4831 15.3126 24.5707 15.7255 24.7495 16.0792L24.928 15.989ZM24.6831 14.8438C24.6831 14.4076 24.7658 14.0296 24.9281 13.7069L24.7494 13.617C24.5708 13.9723 24.4831 14.3821 24.4831 14.8438H24.6831ZM24.928 13.707C25.0925 13.3817 25.3206 13.1309 25.6127 12.9517L25.5081 12.7812C25.1827 12.9809 24.9298 13.2603 24.7495 13.6168L24.928 13.707ZM25.613 12.9515C25.9037 12.7714 26.2476 12.6795 26.6484 12.6795V12.4795C26.216 12.4795 25.8345 12.579 25.5077 12.7815L25.613 12.9515ZM26.6484 12.6795C26.9064 12.6795 27.1485 12.7213 27.3755 12.8042L27.4441 12.6163C27.1938 12.5249 26.9284 12.4795 26.6484 12.4795V12.6795ZM27.3764 12.8045C27.6031 12.8848 27.8028 13.0096 27.9762 13.1794L28.1161 13.0365C27.9221 12.8465 27.6975 12.7061 27.4432 12.616L27.3764 12.8045ZM27.9766 13.1798C28.1502 13.3481 28.2886 13.5642 28.3902 13.8311L28.5771 13.7599C28.4666 13.4699 28.3134 13.2277 28.1158 13.0362L27.9766 13.1798ZM28.3903 13.8313C28.4909 14.0936 28.5428 14.4104 28.5428 14.7841H28.7428C28.7428 14.3927 28.6885 14.0504 28.577 13.7596L28.3903 13.8313ZM28.5428 14.7841V15.0994H28.7428V14.7841H28.5428ZM28.6428 14.9994H25.0661V15.1994H28.6428V14.9994ZM25.1661 15.0994V14.4062H24.9661V15.0994H25.1661ZM25.0661 14.5063H27.657V14.3062H25.0661V14.5063ZM27.757 14.4053C27.7549 14.1941 27.7091 14.0025 27.617 13.8329L27.4412 13.9284C27.5158 14.0657 27.5552 14.2245 27.557 14.4072L27.757 14.4053ZM27.6172 13.8334C27.5254 13.6623 27.3963 13.5267 27.2308 13.4283L27.1286 13.6001C27.2624 13.6798 27.3661 13.7885 27.441 13.928L27.6172 13.8334ZM27.2313 13.4286C27.0659 13.3289 26.8752 13.2807 26.6626 13.2807V13.4807C26.8441 13.4807 26.998 13.5215 27.1281 13.5999L27.2313 13.4286ZM26.6626 13.2807C26.4355 13.2807 26.2316 13.3362 26.0546 13.45L26.1627 13.6182C26.3039 13.5274 26.4694 13.4807 26.6626 13.4807V13.2807ZM26.0553 13.4495C25.8817 13.559 25.7457 13.7043 25.6485 13.8843L25.8245 13.9793C25.9053 13.8298 26.0174 13.7099 26.162 13.6187L26.0553 13.4495ZM25.6483 13.8847C25.5532 14.0626 25.505 14.2575 25.503 14.4678L25.703 14.4697C25.7047 14.2898 25.7456 14.1268 25.8247 13.979L25.6483 13.8847ZM25.503 14.4688V15.0739H25.703V14.4688H25.503ZM25.503 15.0739C25.503 15.3397 25.5516 15.5738 25.6531 15.7727L25.8313 15.6818C25.7472 15.5171 25.703 15.3156 25.703 15.0739H25.503ZM25.6533 15.7731C25.7544 15.9691 25.8972 16.1219 26.0812 16.2286L26.1815 16.0555C26.0323 15.969 25.9156 15.8453 25.8311 15.6814L25.6533 15.7731ZM26.082 16.229C26.266 16.3336 26.4787 16.3841 26.7166 16.3841V16.1841C26.5076 16.1841 26.3301 16.1399 26.1808 16.0551L26.082 16.229ZM26.7166 16.3841C26.8755 16.3841 27.0221 16.362 27.1554 16.3162L27.0904 16.127C26.9812 16.1645 26.857 16.1841 26.7166 16.1841V16.3841ZM27.1567 16.3157C27.29 16.2678 27.407 16.1974 27.5066 16.1043L27.3699 15.9582C27.2914 16.0317 27.1982 16.0883 27.089 16.1275L27.1567 16.3157ZM27.5066 16.1043C27.6078 16.0095 27.6833 15.8928 27.7337 15.7562L27.5461 15.687C27.5056 15.7966 27.4467 15.8863 27.3699 15.9582L27.5066 16.1043ZM27.6287 15.821L28.589 15.9289L28.6113 15.7302L27.6511 15.6222L27.6287 15.821ZM28.5029 15.8063C28.4461 16.0443 28.3382 16.2507 28.1792 16.4274L28.3279 16.5612C28.5098 16.3591 28.633 16.1224 28.6974 15.8528L28.5029 15.8063ZM28.1792 16.4275C28.0222 16.6021 27.8197 16.7396 27.569 16.8388L27.6426 17.0248C27.9185 16.9157 28.1478 16.7615 28.3279 16.5612L28.1792 16.4275ZM27.5696 16.8386C27.32 16.9356 27.0315 16.9852 26.7024 16.9852V17.1852C27.0514 17.1852 27.3652 17.1326 27.642 17.025L27.5696 16.8386ZM29.5128 17H29.4128V17.1H29.5128V17ZM29.5128 12.6364V12.5364H29.4128V12.6364H29.5128ZM30.5099 12.6364H30.6099V12.5364H30.5099V12.6364ZM30.5099 13.3636H30.4099V13.4636H30.5099V13.3636ZM30.5554 13.3636V13.4636H30.6287L30.6508 13.3937L30.5554 13.3636ZM30.9645 12.7812L31.0222 12.8629L31.0223 12.8628L30.9645 12.7812ZM31.8224 12.5824L31.8144 12.6821L31.8172 12.6822L31.8224 12.5824ZM32.0014 12.6023H32.1014V12.5203L32.021 12.5042L32.0014 12.6023ZM32.0014 13.5483L31.9686 13.6427L32.1014 13.689V13.5483H32.0014ZM31.794 13.5085L31.7799 13.6075L31.7821 13.6078L31.794 13.5085ZM31.0185 13.6108L31.0659 13.6988L31.0663 13.6986L31.0185 13.6108ZM30.5412 17V17.1H30.6412V17H30.5412ZM29.6128 17V12.6364H29.4128V17H29.6128ZM29.5128 12.7364H30.5099V12.5364H29.5128V12.7364ZM30.4099 12.6364V13.3636H30.6099V12.6364H30.4099ZM30.5099 13.4636H30.5554V13.2636H30.5099V13.4636ZM30.6508 13.3937C30.7245 13.1601 30.8489 12.9852 31.0222 12.8629L30.9068 12.6996C30.6937 12.85 30.5454 13.0633 30.46 13.3335L30.6508 13.3937ZM31.0223 12.8628C31.1997 12.7371 31.4018 12.6739 31.6321 12.6739V12.4739C31.3624 12.4739 31.1194 12.5489 30.9067 12.6997L31.0223 12.8628ZM31.6321 12.6739C31.6857 12.6739 31.7464 12.6765 31.8144 12.6821L31.8305 12.4827C31.7584 12.4769 31.6922 12.4739 31.6321 12.4739V12.6739ZM31.8172 12.6822C31.8864 12.6859 31.9409 12.6921 31.9818 12.7003L32.021 12.5042C31.9673 12.4935 31.9024 12.4865 31.8277 12.4825L31.8172 12.6822ZM31.9014 12.6023V13.5483H32.1014V12.6023H31.9014ZM32.0343 13.4538C31.98 13.435 31.9019 13.4207 31.8059 13.4092L31.7821 13.6078C31.8756 13.619 31.9357 13.6313 31.9686 13.6427L32.0343 13.4538ZM31.8082 13.4095C31.711 13.3957 31.6163 13.3886 31.5241 13.3886V13.5886C31.6062 13.5886 31.6914 13.5949 31.7799 13.6075L31.8082 13.4095ZM31.5241 13.3886C31.3217 13.3886 31.1364 13.4328 30.9707 13.523L31.0663 13.6986C31.1998 13.626 31.3516 13.5886 31.5241 13.5886V13.3886ZM30.9711 13.5227C30.8077 13.6107 30.6779 13.7341 30.5833 13.8917L30.7548 13.9946C30.8306 13.8682 30.9338 13.77 31.0659 13.6988L30.9711 13.5227ZM30.5833 13.8917C30.4876 14.0511 30.4412 14.2332 30.4412 14.4347H30.6412C30.6412 14.2649 30.68 14.1193 30.7548 13.9946L30.5833 13.8917ZM30.4412 14.4347V17H30.6412V14.4347H30.4412ZM30.5412 16.9H29.5128V17.1H30.5412V16.9Z" fill="black"/>
<g filter="url(#filter1_i_101_28)">
<path d="M6.66974 4.72656C6.6366 4.41643 6.49692 4.17495 6.25071 4.00213C6.00687 3.82931 5.68963 3.7429 5.29901 3.7429C5.02438 3.7429 4.78883 3.78433 4.59233 3.86719C4.39583 3.95005 4.2455 4.0625 4.14134 4.20455C4.03717 4.34659 3.9839 4.50876 3.98153 4.69105C3.98153 4.84257 4.01586 4.97396 4.08452 5.08523C4.15554 5.1965 4.25142 5.29119 4.37216 5.36932C4.4929 5.44508 4.62666 5.509 4.77344 5.56108C4.92022 5.61316 5.06818 5.65696 5.21733 5.69247L5.89915 5.86293C6.17377 5.92685 6.43774 6.01326 6.69105 6.12216C6.94673 6.23106 7.17519 6.36837 7.37642 6.53409C7.58002 6.69981 7.741 6.89986 7.85938 7.13423C7.97775 7.36861 8.03693 7.64323 8.03693 7.9581C8.03693 8.38423 7.92803 8.75947 7.71023 9.08381C7.49242 9.40578 7.17756 9.65791 6.76562 9.8402C6.35606 10.0201 5.86009 10.1101 5.2777 10.1101C4.71188 10.1101 4.22064 10.0225 3.80398 9.8473C3.38968 9.67211 3.06534 9.41643 2.83097 9.08026C2.59896 8.74408 2.47348 8.33452 2.45455 7.85156H3.75071C3.76965 8.10488 3.84777 8.31558 3.98509 8.48366C4.1224 8.65175 4.30114 8.77723 4.52131 8.86009C4.74384 8.94295 4.99242 8.98438 5.26705 8.98438C5.5535 8.98438 5.80445 8.94176 6.01989 8.85653C6.23769 8.76894 6.40814 8.6482 6.53125 8.49432C6.65436 8.33807 6.71709 8.15578 6.71946 7.94744C6.71709 7.75805 6.66146 7.6018 6.55256 7.47869C6.44366 7.35322 6.29096 7.24905 6.09446 7.16619C5.90033 7.08097 5.67306 7.00521 5.41264 6.93892L4.58523 6.72585C3.98627 6.57197 3.51278 6.33878 3.16477 6.02628C2.81913 5.71141 2.64631 5.29356 2.64631 4.77273C2.64631 4.34422 2.76231 3.96899 2.99432 3.64702C3.22869 3.32505 3.54711 3.07528 3.94957 2.89773C4.35204 2.7178 4.80777 2.62784 5.31676 2.62784C5.83286 2.62784 6.28504 2.7178 6.6733 2.89773C7.06392 3.07528 7.3705 3.32268 7.59304 3.63991C7.81558 3.95478 7.9304 4.317 7.9375 4.72656H6.66974ZM11.921 7.55682H13.1142L13.8208 8.47301L14.3251 9.0696L15.536 10.625H14.2576L13.4338 9.58097L13.0822 9.08381L11.921 7.55682ZM15.71 6.36364C15.71 7.14725 15.5633 7.81842 15.2697 8.37713C14.9785 8.93348 14.5808 9.35961 14.0765 9.65554C13.5746 9.95147 13.0053 10.0994 12.3684 10.0994C11.7316 10.0994 11.161 9.95147 10.6568 9.65554C10.1549 9.35724 9.75716 8.92992 9.4636 8.37358C9.17241 7.81487 9.02681 7.14489 9.02681 6.36364C9.02681 5.58002 9.17241 4.91004 9.4636 4.35369C9.75716 3.79498 10.1549 3.36766 10.6568 3.07173C11.161 2.7758 11.7316 2.62784 12.3684 2.62784C13.0053 2.62784 13.5746 2.7758 14.0765 3.07173C14.5808 3.36766 14.9785 3.79498 15.2697 4.35369C15.5633 4.91004 15.71 5.58002 15.71 6.36364ZM14.3855 6.36364C14.3855 5.81203 14.2991 5.34683 14.1262 4.96804C13.9558 4.58688 13.719 4.29924 13.416 4.10511C13.113 3.90862 12.7638 3.81037 12.3684 3.81037C11.9731 3.81037 11.6239 3.90862 11.3208 4.10511C11.0178 4.29924 10.7799 4.58688 10.6071 4.96804C10.4366 5.34683 10.3514 5.81203 10.3514 6.36364C10.3514 6.91525 10.4366 7.38163 10.6071 7.76278C10.7799 8.14157 11.0178 8.42921 11.3208 8.62571C11.6239 8.81984 11.9731 8.9169 12.3684 8.9169C12.7638 8.9169 13.113 8.81984 13.416 8.62571C13.719 8.42921 13.9558 8.14157 14.1262 7.76278C14.2991 7.38163 14.3855 6.91525 14.3855 6.36364ZM16.9654 10V2.72727H18.2828V8.8956H21.486V10H16.9654Z" fill="#FD7A02"/>
</g>
<path d="M6.66974 4.72656L6.57031 4.73719L6.57986 4.82656H6.66974V4.72656ZM6.25071 4.00213L6.19289 4.08372L6.19326 4.08398L6.25071 4.00213ZM4.59233 3.86719L4.63118 3.95933L4.63119 3.95933L4.59233 3.86719ZM4.14134 4.20455L4.06069 4.14541L4.06069 4.14541L4.14134 4.20455ZM3.98153 4.69105L3.88153 4.68975V4.69105H3.98153ZM4.08452 5.08523L3.9994 5.13774L4.00022 5.13903L4.08452 5.08523ZM4.37216 5.36932L4.31783 5.45328L4.31901 5.45402L4.37216 5.36932ZM4.77344 5.56108L4.74 5.65532L4.74 5.65532L4.77344 5.56108ZM5.21733 5.69247L5.24158 5.59545L5.24049 5.59519L5.21733 5.69247ZM5.89915 5.86293L5.87489 5.95995L5.87648 5.96032L5.89915 5.86293ZM6.69105 6.12216L6.65156 6.21403L6.65187 6.21416L6.69105 6.12216ZM7.37642 6.53409L7.31285 6.61129L7.31329 6.61165L7.37642 6.53409ZM7.71023 9.08381L7.79306 9.13984L7.79325 9.13956L7.71023 9.08381ZM6.76562 9.8402L6.80585 9.93175L6.80609 9.93164L6.76562 9.8402ZM3.80398 9.8473L3.76503 9.93941L3.76522 9.93948L3.80398 9.8473ZM2.83097 9.08026L2.74866 9.13706L2.74893 9.13745L2.83097 9.08026ZM2.45455 7.85156V7.75156H2.35055L2.35462 7.85548L2.45455 7.85156ZM3.75071 7.85156L3.85043 7.84411L3.84351 7.75156H3.75071V7.85156ZM3.98509 8.48366L4.06253 8.4204L4.06253 8.4204L3.98509 8.48366ZM4.52131 8.86009L4.48608 8.95368L4.48641 8.9538L4.52131 8.86009ZM6.01989 8.85653L6.05667 8.94952L6.0572 8.94931L6.01989 8.85653ZM6.53125 8.49432L6.60934 8.55679L6.6098 8.55621L6.53125 8.49432ZM6.71946 7.94744L6.81948 7.94858L6.81945 7.94619L6.71946 7.94744ZM6.55256 7.47869L6.47703 7.54424L6.47766 7.54495L6.55256 7.47869ZM6.09446 7.16619L6.05426 7.25777L6.05561 7.25834L6.09446 7.16619ZM5.41264 6.93892L5.3877 7.03576L5.38797 7.03583L5.41264 6.93892ZM4.58523 6.72585L4.61017 6.62901L4.61011 6.629L4.58523 6.72585ZM3.16477 6.02628L3.09743 6.10021L3.09796 6.10068L3.16477 6.02628ZM2.99432 3.64702L2.91347 3.58816L2.91319 3.58855L2.99432 3.64702ZM3.94957 2.89773L3.98994 2.98922L3.99039 2.98902L3.94957 2.89773ZM6.6733 2.89773L6.63125 2.98846L6.63192 2.98876L6.6733 2.89773ZM7.59304 3.63991L7.51117 3.69734L7.51138 3.69763L7.59304 3.63991ZM7.9375 4.72656V4.82656H8.03925L8.03748 4.72483L7.9375 4.72656ZM6.76918 4.71594C6.7331 4.37833 6.57896 4.11036 6.30816 3.92028L6.19326 4.08398C6.41488 4.23954 6.5401 4.45453 6.57031 4.73719L6.76918 4.71594ZM6.30853 3.92054C6.04328 3.73255 5.70403 3.6429 5.29901 3.6429V3.8429C5.67523 3.8429 5.97046 3.92607 6.19289 4.08372L6.30853 3.92054ZM5.29901 3.6429C5.01471 3.6429 4.76526 3.68574 4.55347 3.77504L4.63119 3.95933C4.8124 3.88292 5.03405 3.8429 5.29901 3.8429V3.6429ZM4.55347 3.77504C4.34384 3.86345 4.1776 3.98599 4.06069 4.14541L4.22198 4.26368C4.3134 4.13901 4.44783 4.03665 4.63118 3.95933L4.55347 3.77504ZM4.06069 4.14541C3.94376 4.30486 3.88417 4.48741 3.88154 4.68975L4.08153 4.69235C4.08363 4.53011 4.13058 4.38832 4.22198 4.26368L4.06069 4.14541ZM3.88153 4.69105C3.88153 4.85811 3.91956 5.00831 3.99941 5.13774L4.16962 5.03272C4.11217 4.9396 4.08153 4.82702 4.08153 4.69105H3.88153ZM4.00022 5.13903C4.07963 5.26343 4.18615 5.36807 4.31783 5.45328L4.42648 5.28536C4.31669 5.21432 4.23145 5.12956 4.16881 5.03142L4.00022 5.13903ZM4.31901 5.45402C4.44649 5.53401 4.58695 5.60101 4.74 5.65532L4.80688 5.46684C4.66637 5.41698 4.5393 5.35614 4.42531 5.28461L4.31901 5.45402ZM4.74 5.65532C4.89009 5.70858 5.04149 5.7534 5.19417 5.78975L5.24049 5.59519C5.09488 5.56052 4.95034 5.51774 4.80688 5.46684L4.74 5.65532ZM5.19308 5.78949L5.87489 5.95994L5.9234 5.76591L5.24158 5.59546L5.19308 5.78949ZM5.87648 5.96032C6.14547 6.02293 6.4038 6.10752 6.65156 6.21403L6.73055 6.03029C6.47168 5.919 6.20207 5.83076 5.92182 5.76553L5.87648 5.96032ZM6.65187 6.21416C6.89933 6.31956 7.11947 6.45203 7.31285 6.61128L7.43999 6.4569C7.23091 6.28471 6.99413 6.14256 6.73024 6.03016L6.65187 6.21416ZM7.31329 6.61165C7.50599 6.7685 7.65807 6.95748 7.77011 7.17931L7.94864 7.08915C7.82393 6.84224 7.65404 6.63113 7.43955 6.45653L7.31329 6.61165ZM7.77011 7.17931C7.88015 7.39719 7.93693 7.6558 7.93693 7.9581H8.13693C8.13693 7.63066 8.07534 7.34002 7.94864 7.08915L7.77011 7.17931ZM7.93693 7.9581C7.93693 8.36626 7.83294 8.7217 7.62721 9.02806L7.79325 9.13956C8.02312 8.79724 8.13693 8.40221 8.13693 7.9581H7.93693ZM7.6274 9.02778C7.42169 9.33186 7.1227 9.57283 6.72516 9.74875L6.80609 9.93164C7.23241 9.74299 7.56315 9.47969 7.79306 9.13984L7.6274 9.02778ZM6.7254 9.74864C6.33173 9.92159 5.85023 10.0101 5.2777 10.0101V10.2101C5.86994 10.2101 6.3804 10.1187 6.80585 9.93175L6.7254 9.74864ZM5.2777 10.0101C4.72196 10.0101 4.24446 9.92403 3.84274 9.75512L3.76522 9.93948C4.19682 10.121 4.70181 10.2101 5.2777 10.2101V10.0101ZM3.84292 9.7552C3.44423 9.58661 3.13555 9.34228 2.913 9.02306L2.74893 9.13745C2.99513 9.49058 3.33512 9.75762 3.76503 9.93941L3.84292 9.7552ZM2.91327 9.02346C2.69387 8.70555 2.5728 8.31518 2.55447 7.84764L2.35462 7.85548C2.37417 8.35386 2.50405 8.78261 2.74866 9.13706L2.91327 9.02346ZM2.45455 7.95156H3.75071V7.75156H2.45455V7.95156ZM3.65099 7.85902C3.67119 8.1292 3.75526 8.36039 3.90764 8.54693L4.06253 8.4204C3.94029 8.27076 3.86811 8.08056 3.85043 7.84411L3.65099 7.85902ZM3.90764 8.54693C4.05703 8.72981 4.25084 8.86514 4.48608 8.95368L4.55653 8.76649C4.35143 8.68931 4.18776 8.5737 4.06253 8.4204L3.90764 8.54693ZM4.48641 8.9538C4.72171 9.04141 4.98235 9.08438 5.26705 9.08438V8.88437C5.0025 8.88437 4.76598 8.84448 4.5562 8.76637L4.48641 8.9538ZM5.26705 9.08438C5.56322 9.08438 5.82712 9.04034 6.05667 8.94952L5.9831 8.76355C5.78178 8.84319 5.54379 8.88437 5.26705 8.88437V9.08438ZM6.0572 8.94931C6.28792 8.85652 6.47359 8.72647 6.60934 8.55679L6.45316 8.43185C6.3427 8.56993 6.18746 8.68136 5.98257 8.76376L6.0572 8.94931ZM6.6098 8.55621C6.74724 8.38176 6.81685 8.17785 6.81945 7.94858L6.61947 7.94631C6.61734 8.1337 6.56147 8.29437 6.4527 8.43243L6.6098 8.55621ZM6.81945 7.94619C6.81683 7.7367 6.75464 7.55621 6.62746 7.41244L6.47766 7.54495C6.56828 7.64739 6.61735 7.7794 6.61947 7.94869L6.81945 7.94619ZM6.62808 7.41315C6.50672 7.27332 6.34004 7.16122 6.13332 7.07405L6.05561 7.25834C6.24187 7.33688 6.38059 7.43312 6.47703 7.54424L6.62808 7.41315ZM6.13466 7.07463C5.93439 6.9867 5.70171 6.90931 5.43731 6.84201L5.38797 7.03583C5.64441 7.1011 5.86627 7.17523 6.05426 7.25776L6.13466 7.07463ZM5.43758 6.84208L4.61017 6.62901L4.56029 6.82269L5.3877 7.03576L5.43758 6.84208ZM4.61011 6.629C4.0219 6.47788 3.5644 6.25073 3.23159 5.95187L3.09796 6.10068C3.46117 6.42683 3.95063 6.66606 4.56034 6.82271L4.61011 6.629ZM3.23212 5.95235C2.90977 5.65871 2.74631 5.26898 2.74631 4.77273H2.54631C2.54631 5.31814 2.72849 5.76411 3.09743 6.1002L3.23212 5.95235ZM2.74631 4.77273C2.74631 4.36344 2.8567 4.00904 3.07545 3.70548L2.91319 3.58855C2.66792 3.92893 2.54631 4.32501 2.54631 4.77273H2.74631ZM3.07517 3.70587C3.2981 3.39962 3.60188 3.16042 3.98994 2.98922L3.90921 2.80624C3.49234 2.99015 3.15929 3.25048 2.91347 3.58816L3.07517 3.70587ZM3.99039 2.98902C4.37817 2.81566 4.81967 2.72784 5.31676 2.72784V2.52784C4.79586 2.52784 4.3259 2.61995 3.90876 2.80643L3.99039 2.98902ZM5.31676 2.72784C5.82128 2.72784 6.2586 2.81577 6.63125 2.98846L6.71534 2.807C6.31148 2.61984 5.84444 2.52784 5.31676 2.52784V2.72784ZM6.63192 2.98876C7.00808 3.15975 7.29996 3.39625 7.51117 3.69734L7.67491 3.58249C7.44104 3.2491 7.11976 2.99082 6.71468 2.80669L6.63192 2.98876ZM7.51138 3.69763C7.72159 3.99505 7.83074 4.33749 7.83752 4.7283L8.03748 4.72483C8.03006 4.29651 7.90957 3.91451 7.6747 3.5822L7.51138 3.69763ZM7.9375 4.62656H6.66974V4.82656H7.9375V4.62656ZM11.921 7.55682V7.45682H11.7193L11.8414 7.61735L11.921 7.55682ZM13.1142 7.55682L13.1934 7.49574L13.1633 7.45682H13.1142V7.55682ZM13.8208 8.47301L13.7416 8.53415L13.7445 8.53756L13.8208 8.47301ZM14.3251 9.0696L14.4041 9.00812L14.4015 9.00505L14.3251 9.0696ZM15.536 10.625V10.725H15.7406L15.615 10.5636L15.536 10.625ZM14.2576 10.625L14.1791 10.6869L14.2092 10.725H14.2576V10.625ZM13.4338 9.58097L13.352 9.63878L13.3553 9.64291L13.4338 9.58097ZM13.0822 9.08381L13.1639 9.02604L13.1618 9.02327L13.0822 9.08381ZM15.2697 8.37713L15.1812 8.33062L15.1811 8.33076L15.2697 8.37713ZM14.0765 9.65554L14.0259 9.56929L14.0257 9.5694L14.0765 9.65554ZM10.6568 9.65554L10.6057 9.7415L10.6062 9.74179L10.6568 9.65554ZM9.4636 8.37358L9.37492 8.4198L9.37516 8.42025L9.4636 8.37358ZM9.4636 4.35369L9.37508 4.30718L9.375 4.30732L9.4636 4.35369ZM10.6568 3.07173L10.6062 2.98549L10.606 2.98559L10.6568 3.07173ZM14.0765 3.07173L14.0257 3.15787L14.0259 3.15798L14.0765 3.07173ZM15.2697 4.35369L15.181 4.39991L15.1813 4.40036L15.2697 4.35369ZM14.1262 4.96804L14.035 5.00886L14.0353 5.00955L14.1262 4.96804ZM13.416 4.10511L13.3616 4.18902L13.3621 4.18932L13.416 4.10511ZM11.3208 4.10511L11.3748 4.18932L11.3753 4.18902L11.3208 4.10511ZM10.6071 4.96804L10.516 4.92674L10.5159 4.927L10.6071 4.96804ZM10.6071 7.76278L10.5158 7.80361L10.5161 7.80429L10.6071 7.76278ZM11.3208 8.62571L11.2664 8.70962L11.2669 8.70991L11.3208 8.62571ZM13.416 8.62571L13.47 8.70991L13.4704 8.70961L13.416 8.62571ZM14.1262 7.76278L14.0352 7.72149L14.0351 7.72175L14.1262 7.76278ZM11.921 7.65682H13.1142V7.45682H11.921V7.65682ZM13.035 7.61789L13.7417 8.53409L13.9 8.41194L13.1934 7.49574L13.035 7.61789ZM13.7445 8.53756L14.2487 9.13416L14.4015 9.00505L13.8972 8.40846L13.7445 8.53756ZM14.2462 9.13103L15.4571 10.6864L15.615 10.5636L14.404 9.00817L14.2462 9.13103ZM15.536 10.525H14.2576V10.725H15.536V10.525ZM14.3361 10.5631L13.5123 9.51902L13.3553 9.64291L14.1791 10.6869L14.3361 10.5631ZM13.5154 9.52323L13.1639 9.02607L13.0006 9.14154L13.3521 9.6387L13.5154 9.52323ZM13.1618 9.02327L12.0006 7.49629L11.8414 7.61735L13.0026 9.14434L13.1618 9.02327ZM15.61 6.36364C15.61 7.1349 15.4656 7.78931 15.1812 8.33062L15.3582 8.42364C15.6609 7.84753 15.81 7.15961 15.81 6.36364H15.61ZM15.1811 8.33076C14.8979 8.8718 14.5128 9.28354 14.0259 9.56929L14.1271 9.74179C14.6487 9.43568 15.0591 8.99515 15.3583 8.4235L15.1811 8.33076ZM14.0257 9.5694C13.5406 9.85542 12.9891 9.99943 12.3684 9.99943V10.1994C13.0214 10.1994 13.6086 10.0475 14.1273 9.74168L14.0257 9.5694ZM12.3684 9.99943C11.7478 9.99943 11.195 9.85542 10.7074 9.56929L10.6062 9.74179C11.1271 10.0475 11.7154 10.1994 12.3684 10.1994V9.99943ZM10.7079 9.56958C10.223 9.28142 9.8377 8.86828 9.55204 8.32691L9.37516 8.42025C9.67662 8.99157 10.0867 9.43307 10.6057 9.7415L10.7079 9.56958ZM9.55228 8.32736C9.2701 7.78594 9.12681 7.13259 9.12681 6.36364H8.92681C8.92681 7.15718 9.07472 7.84379 9.37492 8.4198L9.55228 8.32736ZM9.12681 6.36364C9.12681 5.59224 9.27013 4.93898 9.5522 4.40007L9.375 4.30732C9.07469 4.88109 8.92681 5.56779 8.92681 6.36364H9.12681ZM9.55213 4.40021C9.83778 3.85653 10.223 3.44357 10.7076 3.15787L10.606 2.98559C10.0868 3.29175 9.67654 3.73343 9.37508 4.30718L9.55213 4.40021ZM10.7074 3.15798C11.195 2.87185 11.7478 2.72784 12.3684 2.72784V2.52784C11.7154 2.52784 11.1271 2.67976 10.6062 2.98549L10.7074 3.15798ZM12.3684 2.72784C12.9891 2.72784 13.5406 2.87185 14.0257 3.15787L14.1273 2.98559C13.6086 2.67976 13.0214 2.52784 12.3684 2.52784V2.72784ZM14.0259 3.15798C14.5127 3.44366 14.8978 3.85651 15.181 4.39991L15.3584 4.30748C15.0592 3.73346 14.6489 3.29166 14.1271 2.98549L14.0259 3.15798ZM15.1813 4.40036C15.4656 4.93921 15.61 5.59236 15.61 6.36364H15.81C15.81 5.56768 15.6609 4.88087 15.3582 4.30703L15.1813 4.40036ZM14.4855 6.36364C14.4855 5.80214 14.3976 5.32185 14.2172 4.92653L14.0353 5.00955C14.2005 5.3718 14.2855 5.82192 14.2855 6.36364H14.4855ZM14.2175 4.92722C14.0404 4.53119 13.7919 4.22715 13.47 4.02091L13.3621 4.18932C13.6462 4.37133 13.8712 4.64258 14.035 5.00886L14.2175 4.92722ZM13.4704 4.02121C13.1497 3.81322 12.7812 3.71037 12.3684 3.71037V3.91037C12.7464 3.91037 13.0763 4.00402 13.3616 4.18902L13.4704 4.02121ZM12.3684 3.71037C11.9557 3.71037 11.5872 3.81322 11.2664 4.02121L11.3753 4.18902C11.6606 4.00402 11.9905 3.91037 12.3684 3.91037V3.71037ZM11.2669 4.02091C10.9451 4.22706 10.6955 4.53093 10.516 4.92674L10.6981 5.00933C10.8643 4.64284 11.0905 4.37142 11.3748 4.18932L11.2669 4.02091ZM10.5159 4.927C10.338 5.32219 10.2514 5.80229 10.2514 6.36364H10.4514C10.4514 5.82176 10.5352 5.37147 10.6983 5.00908L10.5159 4.927ZM10.2514 6.36364C10.2514 6.92501 10.3381 7.40619 10.5158 7.80361L10.6984 7.72196C10.5352 7.35707 10.4514 6.90548 10.4514 6.36364H10.2514ZM10.5161 7.80429C10.6956 8.1977 10.9451 8.50125 11.2664 8.70961L11.3753 8.54181C11.0905 8.35718 10.8642 8.08544 10.698 7.72128L10.5161 7.80429ZM11.2669 8.70991C11.5876 8.91536 11.9559 9.0169 12.3684 9.0169V8.8169C11.9902 8.8169 11.6601 8.72431 11.3748 8.54151L11.2669 8.70991ZM12.3684 9.0169C12.781 9.0169 13.1493 8.91536 13.47 8.70991L13.3621 8.54151C13.0767 8.72431 12.7466 8.8169 12.3684 8.8169V9.0169ZM13.4704 8.70961C13.7919 8.50116 14.0403 8.19744 14.2174 7.80382L14.0351 7.72175C13.8713 8.0857 13.6462 8.35727 13.3616 8.54181L13.4704 8.70961ZM14.2173 7.80408C14.3976 7.40652 14.4855 6.92517 14.4855 6.36364H14.2855C14.2855 6.90532 14.2006 7.35674 14.0352 7.72149L14.2173 7.80408ZM16.9654 10H16.8654V10.1H16.9654V10ZM16.9654 2.72727V2.62727H16.8654V2.72727H16.9654ZM18.2828 2.72727H18.3828V2.62727H18.2828V2.72727ZM18.2828 8.8956H18.1828V8.9956H18.2828V8.8956ZM21.486 8.8956H21.586V8.7956H21.486V8.8956ZM21.486 10V10.1H21.586V10H21.486ZM17.0654 10V2.72727H16.8654V10H17.0654ZM16.9654 2.82727H18.2828V2.62727H16.9654V2.82727ZM18.1828 2.72727V8.8956H18.3828V2.72727H18.1828ZM18.2828 8.9956H21.486V8.7956H18.2828V8.9956ZM21.386 8.8956V10H21.586V8.8956H21.386ZM21.486 9.9H16.9654V10.1H21.486V9.9Z" fill="black"/>
<defs>
<filter id="filter0_i_101_28" x="2.42615" y="11.1023" width="29.5753" height="9.98579" filterUnits="userSpaceOnUse" color-interpolation-filters="sRGB">
<feFlood flood-opacity="0" result="BackgroundImageFix"/>
<feBlend mode="normal" in="SourceGraphic" in2="BackgroundImageFix" result="shape"/>
<feColorMatrix in="SourceAlpha" type="matrix" values="0 0 0 0 0 0 0 0 0 0 0 0 0 0 0 0 0 0 127 0" result="hardAlpha"/>
<feOffset dy="4"/>
<feGaussianBlur stdDeviation="2"/>
<feComposite in2="hardAlpha" operator="arithmetic" k2="-1" k3="1"/>
<feColorMatrix type="matrix" values="0 0 0 0 0 0 0 0 0 0 0 0 0 0 0 0 0 0 0.25 0"/>
<feBlend mode="normal" in2="shape" result="effect1_innerShadow_101_28"/>
</filter>
<filter id="filter1_i_101_28" x="2.45456" y="2.62784" width="19.0314" height="11.9972" filterUnits="userSpaceOnUse" color-interpolation-filters="sRGB">
<feFlood flood-opacity="0" result="BackgroundImageFix"/>
<feBlend mode="normal" in="SourceGraphic" in2="BackgroundImageFix" result="shape"/>
<feColorMatrix in="SourceAlpha" type="matrix" values="0 0 0 0 0 0 0 0 0 0 0 0 0 0 0 0 0 0 127 0" result="hardAlpha"/>
<feOffset dy="4"/>
<feGaussianBlur stdDeviation="2"/>
<feComposite in2="hardAlpha" operator="arithmetic" k2="-1" k3="1"/>
<feColorMatrix type="matrix" values="0 0 0 0 0 0 0 0 0 0 0 0 0 0 0 0 0 0 0.25 0"/>
<feBlend mode="normal" in2="shape" result="effect1_innerShadow_101_28"/>
</filter>
</defs>
</svg>
