<svg width="33" height="36" viewBox="0 0 33 36" fill="none" xmlns="http://www.w3.org/2000/svg">
<path fill-rule="evenodd" clip-rule="evenodd" d="M5.48212 22.4062C4.17688 23.3621 2.65178 23.8158 1.11325 24.2389L2.04944 24.7276L2.09402 25.3793L2.62898 25.3385L3.16394 25.5829L3.07478 25.9494L3.69891 26.316C4.01097 26.5146 4.3899 26.4096 4.70196 26.3974C4.40089 27.2583 4.69367 27.1116 4.76883 27.3341C5.20946 27.5668 5.71805 27.4035 6.21769 27.1509C6.095 27.7578 6.155 28.0978 6.32914 28.2708C6.85381 28.3801 7.17045 28.3373 7.39907 28.2301C7.36665 28.6372 7.42 28.9883 7.80029 29.1261C8.12032 29.2809 8.11786 29.2402 8.26838 29.2076L9.13769 28.4948C8.98922 28.8263 9.44425 28.4096 8.55815 29.6556C8.68135 29.7208 8.6047 29.9078 9.04853 29.7777L10.2522 28.8818C9.95103 29.3893 9.76154 29.9697 9.87327 30.5312C10.2596 30.1108 10.646 29.6705 11.0324 29.513C10.802 29.9111 10.5717 30.5024 10.3414 30.9995C10.4366 31.1128 10.9041 30.682 11.2775 30.3886C11.2062 30.9127 11.1631 31.4219 11.5004 31.7326C11.7485 31.7149 11.7503 31.4721 11.7679 31.2439C11.8357 31.5646 11.957 31.941 12.1914 32.1603C12.4235 30.9019 13.0608 29.8592 13.5511 28.7188C13.1338 29.9681 12.5754 31.2495 12.8379 32.3435L13.1499 32.0992C12.7997 33.0555 13.3218 32.8988 13.6849 32.7712C14.1364 33.1811 14.5405 33.2878 14.9331 33.321L15.2452 32.425C15.2749 33.1852 15.4829 33.5925 15.8693 33.6468C15.9552 34.0945 16.0808 34.2159 16.226 34.1762C16.4562 34.1466 16.4677 33.7161 16.538 33.4431C16.9172 34.3132 17.1114 34.1698 17.385 34.4613C17.5125 34.6179 17.6055 34.9634 17.7863 34.8279L18.1652 34.2373C18.3913 34.7018 18.6601 34.6588 18.9453 34.4206C18.6978 33.9579 18.2881 33.1278 18.1472 32.5715C17.9609 31.8357 17.8492 31.3448 17.92 30.5515L5.48212 22.4062Z" fill="white" stroke="white" stroke-width="0.377953"/>
<path fill-rule="evenodd" clip-rule="evenodd" d="M17.9199 30.5924C18.9824 30.5347 20.0449 30.2289 21.1074 29.7371C21.8237 30.8189 22.4554 31.9489 23.6262 32.7712L23.0912 33.0156L22.5786 32.9138C22.5681 33.1975 22.749 33.6414 22.0659 33.3618L21.5086 33.1989L21.2634 33.7894L20.6393 33.8709C20.757 34.1277 20.6421 34.1722 20.5279 34.217C20.2615 34.391 20.0974 34.3313 19.9483 34.2374C19.8507 34.5079 19.4389 34.4915 18.9898 34.441C18.6637 33.8842 18.2739 33.1264 18.082 32.4137C17.9307 31.8513 17.9446 31.3861 17.9199 30.5924Z" fill="white" stroke="white" stroke-width="0.2"/>
<path fill-rule="evenodd" clip-rule="evenodd" d="M5.72234 22.1947C5.68268 22.196 5.64447 22.2087 5.61328 22.2312C4.18836 23.2665 2.56355 23.7795 1.18032 24.0487C1.01727 24.0804 0.977808 24.2773 1.11791 24.3601L1.91218 24.8307L1.96773 25.4101C1.97808 25.5181 2.09384 25.5902 2.20711 25.5592C2.31612 25.5295 2.42601 25.4933 2.53634 25.4542C2.57347 25.5226 2.62483 25.5895 2.70782 25.6322C2.77556 25.6671 2.88063 25.6645 2.96914 25.6762C2.9451 25.7658 2.89371 25.8503 2.92524 25.9474C2.98093 26.1188 3.15669 26.2444 3.40331 26.3104C3.42983 26.3174 3.45771 26.3189 3.48494 26.3148C3.61499 26.464 3.80652 26.5524 4.01034 26.5834C4.15458 26.6054 4.31444 26.5674 4.46989 26.5501C4.43571 26.6226 4.39769 26.6765 4.37592 26.7615C4.32721 26.9516 4.34386 27.1878 4.51584 27.3881C4.5253 27.3989 4.53611 27.4086 4.54807 27.417C4.59722 27.4521 4.65364 27.4695 4.71132 27.4799C4.81206 27.5894 4.97118 27.6314 5.12629 27.6334C5.30977 27.6357 5.51488 27.5946 5.73193 27.5208C5.83315 27.4864 5.93625 27.4205 6.0399 27.3717C5.94239 27.7162 6.02864 28.0897 6.18806 28.3915C6.22459 28.4605 6.3067 28.4989 6.38902 28.4853H6.38973C6.69863 28.547 6.85306 28.5699 7.00566 28.5507C7.09206 28.5398 7.19715 28.505 7.28413 28.479C7.28096 28.6025 7.23794 28.7194 7.28625 28.8451C7.37297 29.0713 7.73976 29.4888 7.84046 29.2713C7.89137 29.4625 8.02004 29.4401 8.08396 29.4648C8.20089 29.4605 8.28655 29.4103 8.38438 29.3421C8.5454 29.23 8.79063 28.9855 9.07302 28.7017C8.85404 29.1747 8.69968 29.2098 8.38216 29.6586C8.32363 29.7423 8.45464 29.8539 8.54983 29.9014C8.81206 30.032 9.0397 29.9218 9.31726 29.7844C9.47333 29.7072 9.85722 29.2869 10.0164 29.1608C10.0091 29.1772 9.74919 29.5888 9.7423 29.6052C9.58098 29.9907 9.54292 30.2589 9.71303 30.6187C9.76829 30.7358 9.93885 30.7583 10.0279 30.6602C10.1157 30.5634 10.5571 29.9861 10.7351 29.8859C10.533 30.1025 10.1922 30.6988 10.1616 30.8728C10.1414 30.9612 10.1912 31.0524 10.2034 31.115C10.2593 31.2368 10.3735 31.1988 10.4702 31.2314C10.5546 31.2164 10.6026 31.1818 10.6527 31.1458C10.8022 31.028 10.9513 30.8872 11.0752 30.7778C11.062 30.9468 10.9954 31.1288 11.034 31.2761C11.1102 31.5663 11.2775 31.8149 11.5526 31.9039C11.618 31.9252 11.691 31.9114 11.7419 31.8681C11.7623 31.9289 11.7802 31.9973 11.8043 32.0474C11.8476 32.1373 11.8928 32.2174 11.995 32.2739C12.046 32.3021 12.1165 32.3183 12.1822 32.3097C12.3149 32.3166 12.3439 32.2009 12.4058 32.1549C12.4623 31.9692 12.7786 30.5592 12.9216 30.3561C12.8341 30.5754 12.5863 31.9363 12.6047 32.0845C12.6298 32.2864 12.6308 32.7119 12.9008 32.4486C12.8754 32.5085 12.8705 32.7113 12.8764 32.7614C12.9469 32.8691 13.033 32.9512 13.1452 32.9898C13.2575 33.0284 13.3763 33.0101 13.4649 32.9741C13.5392 32.9438 13.5781 32.8985 13.6356 32.8564C13.6912 32.99 13.7703 33.1042 13.8819 33.1748C13.9971 33.2477 14.1219 33.2877 14.2475 33.3188C14.2496 33.3372 14.2496 33.356 14.2523 33.3742C14.2591 33.4231 14.2886 33.4669 14.3332 33.4944C14.7332 33.7408 15.1057 33.6551 15.2115 32.8126C15.1982 33.165 15.2267 33.4094 15.3188 33.5126C15.4246 33.6311 15.578 33.7234 15.775 33.7844C15.7923 33.9201 15.8138 34.053 15.8435 34.1795C15.851 34.2116 15.8684 34.2411 15.8936 34.2644C15.9469 34.3134 16.0045 34.3535 16.0809 34.3733C16.1572 34.393 16.2513 34.3795 16.3141 34.3443C16.4396 34.2741 16.4762 34.1761 16.5171 34.0813C16.5543 33.995 16.5539 33.7951 16.5855 33.7118C16.6706 33.8355 16.7434 34.1368 16.8607 34.2273C16.9596 34.3035 17.0673 34.3651 17.179 34.4122C17.2163 34.567 17.3188 34.671 17.3971 34.7809C17.5166 34.8422 17.6361 35.0164 17.7545 34.9988C17.8728 34.9811 17.966 34.7688 18.0233 34.6972C18.0715 34.6371 18.0805 34.5801 18.1077 34.5173C18.12 34.5265 18.1336 34.5313 18.1461 34.5399C18.1661 34.5794 18.1838 34.6209 18.2058 34.6588C18.2226 34.6877 18.2481 34.7115 18.2792 34.7274C18.3987 34.7887 18.5182 34.8205 18.6365 34.8029C18.7549 34.7853 18.8481 34.7154 18.9054 34.6437C18.9742 34.6657 19.0275 34.6253 19.0612 34.6203C19.0731 34.6167 19.14 34.5714 19.151 34.5657C19.2226 34.5993 19.3054 34.6087 19.3752 34.6281C19.6008 34.6455 19.8081 34.582 19.9987 34.5261C20.0625 34.5073 20.1104 34.4586 20.1242 34.3984C20.3268 34.4017 20.5151 34.3468 20.6887 34.2959C20.7993 34.2635 20.8512 34.1473 20.7971 34.053C21.0063 34.0601 21.2002 34.0028 21.3787 33.9505C21.4912 33.9171 21.5419 33.7975 21.4837 33.7032C21.4974 33.6872 21.5157 33.6724 21.5262 33.6561C21.5673 33.5919 21.5693 33.5346 21.5893 33.4698C21.7193 33.5486 21.8565 33.5992 21.9919 33.5969C22.0301 33.5963 22.0663 33.5903 22.1031 33.5856L22.1072 33.5894C22.1337 33.6115 22.1665 33.6261 22.2018 33.6315C22.3369 33.6522 22.4611 33.6451 22.5661 33.5919C22.671 33.5387 22.7326 33.4436 22.7602 33.3585C22.7833 33.2871 22.7708 33.2309 22.7732 33.1635C22.92 33.2113 23.0662 33.23 23.1971 33.1981C23.4158 33.1446 23.5877 33.0203 23.7465 32.9087C23.8436 32.8403 23.8439 32.7063 23.7472 32.6375C22.6455 31.8559 22.0045 30.8912 21.1977 29.3654C21.1767 29.3259 21.1399 29.2952 21.0948 29.2799C20.2004 28.8437 18.0268 29.31 17.76 30.1896C15.7203 28.6302 13.3866 27.2265 11.3908 25.943L11.3929 25.9398L10.1206 25.0823L10.039 25.1106C10.0361 25.1077 10.0331 25.1051 10.03 25.1024L9.42849 24.613C9.39544 24.5862 9.35318 24.5711 9.30915 24.5702H9.30632L8.54703 24.0858C8.53457 24.0501 8.5098 24.0192 8.47638 23.9977L7.75002 23.5315V23.5309C7.73833 23.5171 7.72449 23.505 7.70887 23.495L6.51197 22.7174C6.50392 22.7122 6.49545 22.7076 6.48659 22.7036C6.47557 22.688 6.46195 22.6742 6.44612 22.6627L5.84458 22.2305C5.80977 22.2057 5.76637 22.193 5.72234 22.1947ZM5.57685 22.5365L6.15362 22.953C5.75436 23.2705 5.16627 23.5457 4.70356 23.8771C4.2319 24.1666 3.12474 24.4933 2.63792 24.6589C2.56502 24.5672 3.81032 24.0813 4.17973 23.8315C4.34419 23.7447 4.47847 23.555 4.28874 23.5526C4.25313 23.5522 4.18791 23.5784 4.18791 23.5784C3.55392 23.9266 3.05018 24.2352 2.87586 24.3104C2.70153 24.3857 2.63483 24.5096 2.14548 24.6159L1.92239 24.5251L1.38959 24.2511C2.68354 23.9655 4.25233 23.4659 5.57685 22.5365ZM6.40481 23.0685L7.38799 23.7203C7.03051 23.9971 6.66788 24.2245 6.39895 24.4779C5.48559 25.1421 4.94163 25.7137 3.53225 26.0382C3.42629 25.9996 3.29247 25.9 3.2826 25.8696C3.27392 25.8428 3.28578 25.7652 3.31003 25.6964C4.01709 25.6404 4.48177 25.3086 5.33185 24.6821C5.4739 24.5809 6.1136 24.1891 5.93377 24.091C5.79181 24.0716 5.20799 24.5329 5.17557 24.5577C4.29521 25.2065 3.84442 25.3377 3.18932 25.3642C3.17572 25.3641 3.16213 25.3655 3.14884 25.368C3.00157 25.3676 2.91797 25.3476 2.89026 25.3334C2.87879 25.3275 2.87459 25.3242 2.87039 25.3202C3.66335 24.9812 4.4682 24.4471 5.20244 23.8996C5.58212 23.6553 5.97433 23.3805 6.40481 23.0685ZM7.53861 23.8358L7.95562 24.0808L8.0291 24.1551C7.49587 24.5845 6.84351 25.0782 6.27528 25.4776C5.72276 25.866 5.22896 26.1573 4.79968 26.2608C4.78714 26.2614 4.61956 26.2935 4.48549 26.2963C4.25074 26.3543 4.20987 26.343 4.03812 26.3168C3.97985 26.3079 3.81312 26.2078 3.76975 26.1909C4.6493 25.9435 5.54844 25.4485 5.94045 25.2025C6.1398 25.0372 6.32867 24.8629 6.52072 24.6854C6.90811 24.4032 7.20433 24.1014 7.53861 23.8358ZM8.3603 24.384L9.05189 24.7995C8.98186 24.8573 8.89062 24.9896 8.8212 25.0494C8.07091 25.6672 7.38003 26.273 6.92608 26.9546C6.72954 27.2426 6.52777 27.6351 6.3696 27.9489C6.26135 27.7552 6.28987 27.5464 6.32103 27.4099C6.34264 27.3153 6.44042 27.118 6.55985 26.998C6.61956 26.938 6.72433 26.8113 6.77429 26.757C6.9358 26.5815 7.024 26.4667 7.1037 26.3459C7.22225 26.1663 7.42008 26.0034 7.33765 25.9198C7.27478 25.8765 6.92098 26.2635 6.78659 26.4262C6.54173 26.7225 6.13855 27.0774 5.79651 27.2139C5.75778 27.2293 5.64002 27.1871 5.6023 27.2C5.58719 27.2052 5.20189 27.3758 5.14263 27.2889C5.126 27.1549 5.48115 27.0477 5.69673 26.9089C5.97696 26.6976 6.13926 26.5953 6.51204 26.2797C7.03814 25.8343 7.50465 25.227 8.04204 24.6671C8.15616 24.558 8.25783 24.4718 8.3603 24.384ZM2.40876 24.7923C2.39051 25.0488 3.61293 24.635 3.63643 24.6448C3.66129 24.6899 2.6484 25.1198 2.65358 25.1801C2.60808 25.197 2.25103 25.2497 2.206 25.2648L2.28531 24.8187C2.33265 24.8086 2.36779 24.8011 2.40876 24.7923ZM9.30615 24.9716L9.63333 25.2384C9.5635 25.2965 9.49866 25.3578 9.43167 25.4177C8.64863 25.9534 8.29678 26.8075 8.02384 27.4927C7.96252 27.6467 7.93289 27.8998 7.92246 28.0629C7.86632 28.3213 7.8645 28.7033 7.84128 29.0014C7.80636 28.9557 7.64921 28.8713 7.63805 28.7319C7.57855 28.5767 7.58851 28.3959 7.62159 28.3305C7.68814 28.1986 7.55647 28.0554 7.40348 28.0933C7.14056 28.1583 7.03402 28.2016 6.9549 28.2116C6.91573 28.2165 6.78543 28.1901 6.71209 28.1814C7.1015 27.2193 8.02066 25.9419 9.30615 24.9716ZM9.81606 25.3346C9.74513 25.4207 10.2066 25.6189 10.2028 25.6242C9.61657 26.4421 8.97586 26.8946 8.45613 27.1638C8.70065 26.7111 9.02251 25.9911 9.40199 25.6423C9.55597 25.5246 9.63208 25.4104 9.81606 25.3346ZM7.88764 24.463C7.83638 24.6955 6.38762 26.0988 6.19605 26.2923C5.84218 26.6498 5.46315 26.7612 5.19763 26.9527C5.06486 27.0485 4.94778 27.1116 4.87114 27.1364C4.81517 27.1545 4.81247 27.1475 4.80255 27.144C4.72898 27.0428 4.71012 26.9539 4.73944 26.8395C4.76578 26.7366 4.82576 26.6238 4.88485 26.5104C5.39667 26.3768 5.68417 26.0866 6.23625 25.6986C6.31743 25.6415 7.77317 24.4413 7.88764 24.463ZM10.3713 25.6517L10.9159 26.0185C10.894 26.0613 10.9708 26.1525 10.9485 26.1945L10.1797 27.3245C10.117 27.4167 9.56141 28.3559 9.48824 28.4397C9.43402 28.5018 9.19725 29.0524 9.1594 29.0863C9.13662 29.1067 9.27448 28.5725 9.26991 28.4416C9.31233 28.2077 9.54154 27.828 9.46394 27.7162C9.29162 27.8109 9.14128 28.3017 8.95909 28.4707C8.55281 28.8478 8.4112 28.9786 8.2382 29.1058C7.9476 29.1506 8.1264 28.314 8.13865 28.1544C8.53468 28.0599 8.97311 27.9266 9.21141 27.721C9.47585 27.4909 9.57032 27.3739 9.90551 27.0766C10.0279 26.9681 10.3934 26.5876 10.2898 26.5109C10.2413 26.5096 10.0386 26.6975 9.80339 26.9114C9.52091 27.1684 9.2046 27.4284 8.9438 27.6047C8.7758 27.7182 8.63414 27.7452 8.25948 27.8391C8.29935 27.6873 8.34537 27.5437 8.39734 27.4069C8.44829 27.4211 8.50345 27.4147 8.54892 27.3893C9.27015 26.9869 9.66683 26.6365 10.3597 25.6699C10.364 25.664 10.3679 25.658 10.3713 25.6517ZM11.1972 26.2368L11.4818 26.4192L11.4811 26.4199C10.8814 27.0593 10.1201 28.3046 9.56034 28.7911C10.079 27.9445 10.7134 26.9172 11.1972 26.2368ZM11.7864 26.6149L12.6326 27.1728C12.4295 27.5948 12.1187 27.9197 11.8419 28.2682C11.6949 28.4409 11.4161 28.7865 11.2672 28.9601C10.797 29.4698 10.4315 29.7452 10.0051 30.1795C9.99756 29.9999 10.0237 29.8086 10.1128 29.5957C10.2542 29.2578 10.5019 28.8957 10.7747 28.5582C11.0474 28.2208 11.3438 27.9073 11.5813 27.6561C11.8025 27.3618 11.7207 27.2846 11.4508 27.4532C10.8046 28.1564 10.457 28.3797 9.89807 28.9074C9.68535 29.1082 9.29468 29.5077 9.20294 29.3588C9.97288 28.6676 10.8403 27.6277 11.7637 26.6432C11.7723 26.6344 11.7799 26.625 11.7864 26.6149ZM13.3262 27.6218C13.1437 27.9298 12.8791 28.403 12.708 28.758C12.2363 29.7779 11.7458 30.6417 11.5848 31.5511C11.5472 31.4923 11.4193 31.282 11.3968 31.1962C11.3396 30.9781 11.3492 30.6939 11.4647 30.4167C11.5286 30.265 11.3475 30.1246 11.1951 30.2078C10.973 30.3278 10.7878 30.5417 10.6231 30.7048C11.0836 29.7829 11.6402 29.0018 12.1688 28.2491C12.3714 27.9922 12.6192 27.5475 12.7798 27.2765C12.987 27.3555 13.151 27.4965 13.3262 27.6218ZM14.7755 28.596C14.6251 28.9235 14.3957 29.303 14.1527 29.7058C13.9846 29.9671 13.8134 30.2291 13.6534 30.4991C13.3695 30.9781 13.0854 31.5882 12.9418 32.0744C12.8655 31.7251 12.9577 31.3976 12.9924 31.0508C13.0923 30.0521 13.2764 29.7805 13.525 29.0501C13.5548 28.9625 13.8092 28.5174 13.6706 28.4716C13.5128 28.4195 13.2813 29.0965 13.2805 29.0981C12.7337 30.172 12.4634 30.8022 12.1306 31.8523C12.0804 31.732 11.9387 31.5269 11.8917 31.2721C12.1704 30.3674 12.6494 29.3979 13.0779 28.538C13.2253 28.2921 13.3025 27.9737 13.4632 27.7251C13.828 28.086 14.3311 28.3215 14.7755 28.596ZM15.3901 28.9754C14.5742 30.1763 13.8809 31.3091 13.7007 32.3971C13.5746 32.6681 13.3259 32.7454 13.2719 32.7212C13.2481 32.6887 13.2479 32.5143 13.2672 32.3644C13.5674 31.1856 14.1765 30.0715 14.6995 29.1478C15.0723 28.736 14.9528 28.7227 15.3901 28.9754ZM16.2735 29.5504C16.2405 29.6896 16.2068 29.8483 16.1727 29.9977C15.8684 31.1103 15.6618 32.0751 15.733 33.0168C15.732 33.1349 15.7395 33.2478 15.7447 33.3622C15.542 33.294 15.5263 33.12 15.4827 32.9728C15.4554 32.7076 15.426 32.4301 15.4084 32.1284C15.3548 31.2105 15.6349 30.7968 15.8646 30.2543C15.9161 30.1388 16.0307 29.8709 15.8949 29.7743C15.8197 29.7772 15.7205 30.2481 15.6943 30.3127C15.2347 31.389 15.237 31.5722 15.1225 32.1325C15.0419 32.5276 14.8798 32.8262 14.7035 33.1942C14.2582 33.1751 14.7045 31.7878 14.8935 31.1901C15.1094 30.6308 15.3306 30.0584 15.5428 29.5246C15.8823 29.3489 16.0382 29.4483 16.2735 29.5504ZM20.8478 29.5571C21.2445 30.654 21.5995 32.1857 22.3869 33.1741C22.4475 33.2678 22.2098 33.3558 22.108 33.247C21.6794 32.8194 21.3637 32.2608 21.0138 31.5554C20.9415 31.4096 20.6412 30.6351 20.4555 30.1838C20.3716 29.9801 20.6393 29.7126 20.8478 29.5571ZM9.1456 29.586C9.23363 29.7271 9.08991 29.6434 9.10231 29.65C9.08561 29.649 8.77044 29.6765 8.75155 29.6798C8.75699 29.6725 8.81867 29.3798 8.95715 29.281C9.01386 29.3713 9.11512 29.4716 9.1456 29.586ZM19.9252 29.9348C19.9602 30.2268 19.9942 30.3771 20.0376 30.6407C20.0585 30.8584 20.0811 31.1936 20.1083 31.412C20.2157 32.2712 20.6698 32.9709 21.0961 33.5716C21.0825 33.6227 20.7275 33.7431 20.7202 33.7426C20.5989 33.7332 20.6125 33.7299 20.5058 33.5567C20.4963 33.5415 20.3354 33.1955 20.2706 33.0532C19.8471 32.1224 19.6615 31.5855 19.499 30.2013C19.4939 30.1578 19.5651 30.0872 19.5288 30.0588L19.5 30.0368C19.479 29.4799 19.4651 29.5775 19.9252 29.9348ZM15.2433 29.7089C15.034 30.1742 14.8413 30.629 14.6952 31.0672C14.4871 31.6976 14.2547 32.3661 14.2329 32.942C14.178 32.9282 14.1261 32.9134 14.0937 32.8929C13.9995 32.8333 13.9454 32.7656 13.9401 32.5928C14.0089 32.573 13.9814 32.3966 13.9914 32.3311C14.1688 31.1748 14.6356 30.4253 15.2433 29.7089ZM16.41 29.7164L16.8689 29.9606C16.8775 30.1205 16.9011 30.2887 16.8826 30.4664C16.8075 31.1874 16.812 31.8634 16.8689 32.5092C16.9109 32.9867 17.1418 33.7996 17.3399 34.2575C17.0037 34.1629 16.7705 33.7148 16.7295 33.5595C16.6922 33.4185 16.6643 33.3915 16.5146 33.2335C16.3833 33.3967 16.3567 33.9267 16.1898 33.9109C16.0681 33.8993 16.0948 33.5953 16.0785 33.5315C16.0356 33.3645 16.0155 32.6695 16.0143 32.5769C15.9987 31.326 16.1551 30.8204 16.41 29.7164ZM19.4073 30.2625C19.4 30.7394 19.3919 31.1944 19.3181 31.7293C19.31 31.7875 19.2071 32.4552 19.2085 32.5137C18.8518 32.155 18.7522 31.0872 18.6877 30.5383C19.2076 30.2068 18.9703 29.9293 19.4073 30.2625ZM18.1199 30.1789L18.4526 30.4375C18.4469 30.9457 18.4269 31.498 18.4341 32.0487C18.4373 32.2989 18.5882 33.171 18.6076 33.4139C18.2785 33.1411 18.0534 31.7959 17.9987 31.1981C17.9666 30.847 18.1269 30.4851 18.1199 30.1789ZM21.1195 30.0142C21.7407 31.0946 22.4756 32.0695 23.341 32.735C23.2587 32.7845 23.1684 32.8507 23.1009 32.8672C22.9833 32.8959 22.8899 32.8915 22.7257 32.7615C22.6172 32.6763 22.4489 32.7298 22.4212 32.8583C21.857 32.1072 21.4081 31.1044 21.1195 30.0142ZM17.2763 30.2626L17.7913 30.5843C17.8193 30.818 17.7629 31.0168 17.773 31.234C17.7889 31.5772 17.8004 32.0893 17.8051 32.4416C17.8134 33.0688 17.8523 33.4883 18.0115 34.0244C18.0186 34.0132 18.0606 34.255 17.9735 34.3419C17.9394 34.4252 17.7929 34.6094 17.7652 34.6751C17.7406 34.6957 17.5978 34.5013 17.5595 34.4075C17.3528 33.901 17.1423 32.7329 17.084 32.1749C17.0066 31.435 17.0715 31.0208 17.0779 30.4006C17.0786 30.3163 17.1708 30.1816 17.2763 30.2626ZM20.3704 30.3067C20.5057 30.6748 20.6437 31.1143 20.797 31.4919C21.0216 32.0453 21.2738 32.5803 21.5919 33.0213C21.4855 32.9633 21.3481 33.0147 21.3162 33.1245C21.2936 33.2033 21.2745 33.2804 21.2559 33.3453C20.7298 32.6306 20.1142 31.5786 20.1544 30.469C20.1012 30.3454 20.2676 30.3262 20.3704 30.3067ZM19.4992 31.2394C19.6768 31.1826 19.8832 32.9897 20.1893 33.4949C20.4479 33.9217 20.8888 34.1371 20.2558 34.1865C20.084 34.2293 19.9283 33.8699 19.8985 33.8719C19.1216 33.3179 19.4139 31.9613 19.4992 31.2394ZM18.8093 32.0902C18.9589 32.7356 19.4046 33.6817 19.8254 34.1791C19.72 34.4608 19.2644 34.3488 19.1885 34.309C18.9098 34.1633 18.6118 32.3305 18.6097 32.2326C18.5558 31.6465 18.7006 31.5646 18.8093 32.0902ZM18.1453 32.9087C18.295 33.3518 18.4845 33.7654 18.7276 34.1669C18.705 34.2243 18.6833 34.2769 18.6638 34.3229C18.6115 34.3349 18.5622 34.3435 18.5246 34.3406C18.5029 34.3389 18.4834 34.335 18.4636 34.3311C18.2821 33.9428 18.1871 33.4492 18.1453 32.9087Z" fill="black"/>
<path fill-rule="evenodd" clip-rule="evenodd" d="M5.35337 21.1959C5.98737 20.67 6.70131 20.6938 8.01857 20.5919C9.10525 20.5079 9.34823 20.5986 9.95471 20.9886C12.8973 22.8806 20.341 27.6286 21.031 28.127C21.545 28.5634 21.8509 29.3683 20.7802 29.8238C19.3547 30.4304 18.5888 30.693 18.209 30.6004L5.60421 22.4613C5.13289 22.1729 5.0343 21.6555 5.35337 21.1959Z" fill="white" stroke="black" stroke-width="0.2"/>
<path fill-rule="evenodd" clip-rule="evenodd" d="M5.76101 22.5476L17.8642 30.3703C19.1299 31.2583 19.7499 29.7072 18.8048 29.2199L6.70167 21.3397C5.55573 20.5553 4.47556 21.6716 5.76101 22.5476Z" fill="white" stroke="black" stroke-width="0.2"/>
<path fill-rule="evenodd" clip-rule="evenodd" d="M13.2182 24.0025L30.7772 1.22464C31.4588 0.591638 32.3693 1.43034 31.8433 2.08743L14.2843 24.6927C13.9413 25.0552 12.8445 24.3942 13.2182 24.0025Z" fill="white" stroke="black" stroke-width="0.2"/>
<g filter="url(#filter0_i_101_28)">
<path d="M3.47124 31.9031H2.80717C2.78823 31.7942 2.75331 31.6977 2.70241 31.6136C2.65152 31.5284 2.58819 31.4562 2.51243 31.397C2.43667 31.3378 2.35026 31.2934 2.2532 31.2638C2.15732 31.2331 2.05374 31.2177 1.94247 31.2177C1.74479 31.2177 1.5696 31.2674 1.4169 31.3668C1.2642 31.4651 1.14465 31.6095 1.05824 31.8001C0.971828 31.9895 0.928622 32.2209 0.928622 32.4943C0.928622 32.7725 0.971828 33.0069 1.05824 33.1974C1.14583 33.3868 1.26539 33.5301 1.4169 33.6271C1.5696 33.723 1.7442 33.771 1.9407 33.771C2.0496 33.771 2.1514 33.7567 2.24609 33.7283C2.34197 33.6987 2.42779 33.6555 2.50355 33.5987C2.58049 33.5419 2.645 33.4721 2.69709 33.3892C2.75036 33.3063 2.78705 33.2116 2.80717 33.1051L3.47124 33.1087C3.44638 33.2815 3.39252 33.4437 3.30966 33.5952C3.22798 33.7467 3.12086 33.8804 2.98828 33.9964C2.85571 34.1113 2.70064 34.2012 2.52308 34.2663C2.34553 34.3303 2.14844 34.3622 1.93182 34.3622C1.61222 34.3622 1.32694 34.2882 1.07599 34.1403C0.825047 33.9923 0.627367 33.7786 0.482955 33.4993C0.338542 33.2199 0.266335 32.8849 0.266335 32.4943C0.266335 32.1025 0.339134 31.7675 0.48473 31.4893C0.630327 31.21 0.828598 30.9963 1.07955 30.8484C1.33049 30.7004 1.61458 30.6264 1.93182 30.6264C2.13423 30.6264 2.32244 30.6548 2.49645 30.7116C2.67045 30.7685 2.82552 30.8519 2.96165 30.962C3.09777 31.0709 3.20964 31.2047 3.29723 31.3633C3.38601 31.5207 3.44401 31.7006 3.47124 31.9031ZM4.68883 30.6761V34.3125H4.04608V30.6761H4.68883ZM6.55717 34.3658C6.28374 34.3658 6.04759 34.3089 5.84872 34.1953C5.65104 34.0805 5.49893 33.9183 5.3924 33.7088C5.28587 33.4981 5.2326 33.2501 5.2326 32.9648C5.2326 32.6843 5.28587 32.4381 5.3924 32.2262C5.50012 32.0131 5.65045 31.8474 5.84339 31.729C6.03634 31.6095 6.26302 31.5497 6.52344 31.5497C6.69152 31.5497 6.85014 31.5769 6.99929 31.6314C7.14962 31.6847 7.2822 31.7675 7.39702 31.88C7.51302 31.9924 7.60417 32.1357 7.67045 32.3097C7.73674 32.4825 7.76989 32.6884 7.76989 32.9276V33.1246H5.53445V32.6914H7.15376C7.15258 32.5683 7.12595 32.4588 7.07386 32.3629C7.02178 32.2659 6.94898 32.1895 6.85547 32.1339C6.76314 32.0782 6.65542 32.0504 6.53232 32.0504C6.40092 32.0504 6.28551 32.0824 6.18608 32.1463C6.08665 32.209 6.00911 32.2919 5.95348 32.3949C5.89903 32.4967 5.87121 32.6085 5.87003 32.7305V33.1087C5.87003 33.2673 5.89903 33.4034 5.95703 33.517C6.01503 33.6295 6.09612 33.7159 6.20028 33.7763C6.30445 33.8355 6.42637 33.8651 6.56605 33.8651C6.65956 33.8651 6.7442 33.852 6.81996 33.826C6.89571 33.7988 6.96141 33.7591 7.01705 33.707C7.07268 33.6549 7.1147 33.5904 7.14311 33.5135L7.74325 33.581C7.70537 33.7396 7.63317 33.8781 7.52663 33.9964C7.42128 34.1136 7.28634 34.2048 7.1218 34.2699C6.95727 34.3338 6.76906 34.3658 6.55717 34.3658ZM9.09846 34.3675C8.92563 34.3675 8.76998 34.3368 8.63148 34.2752C8.49417 34.2125 8.38527 34.1201 8.30478 33.9982C8.22547 33.8763 8.18581 33.726 8.18581 33.5472C8.18581 33.3933 8.21422 33.2661 8.27104 33.1655C8.32786 33.0649 8.40539 32.9844 8.50364 32.924C8.60189 32.8636 8.71257 32.8181 8.83567 32.7873C8.95996 32.7553 9.08839 32.7322 9.22097 32.718C9.38077 32.7015 9.51039 32.6867 9.60982 32.6737C9.70925 32.6594 9.78146 32.6381 9.82644 32.6097C9.8726 32.5801 9.89569 32.5346 9.89569 32.473V32.4624C9.89569 32.3286 9.85603 32.225 9.77672 32.1516C9.69741 32.0782 9.58319 32.0415 9.43404 32.0415C9.2766 32.0415 9.15172 32.0759 9.05939 32.1445C8.96825 32.2132 8.90669 32.2943 8.87473 32.3878L8.27459 32.3026C8.32194 32.1368 8.40007 31.9983 8.50897 31.8871C8.61787 31.7746 8.75104 31.6906 8.90847 31.6349C9.0659 31.5781 9.23991 31.5497 9.43049 31.5497C9.56188 31.5497 9.69268 31.5651 9.82289 31.5959C9.9531 31.6267 10.0721 31.6776 10.1798 31.7486C10.2875 31.8184 10.3739 31.9137 10.439 32.0344C10.5053 32.1552 10.5384 32.3061 10.5384 32.4872V34.3125H9.92054V33.9379H9.89924C9.86017 34.0136 9.80513 34.0846 9.73411 34.1509C9.66427 34.216 9.57608 34.2687 9.46955 34.3089C9.3642 34.348 9.2405 34.3675 9.09846 34.3675ZM9.26536 33.8952C9.39438 33.8952 9.50624 33.8698 9.60094 33.8189C9.69564 33.7668 9.76844 33.6982 9.81934 33.6129C9.87142 33.5277 9.89746 33.4348 9.89746 33.3342V33.0128C9.87734 33.0294 9.84301 33.0447 9.79448 33.0589C9.74713 33.0732 9.69386 33.0856 9.63468 33.0962C9.57549 33.1069 9.5169 33.1164 9.4589 33.1246C9.40089 33.1329 9.35059 33.14 9.30797 33.146C9.21209 33.159 9.12627 33.1803 9.05051 33.2099C8.97476 33.2395 8.91498 33.2809 8.87118 33.3342C8.82739 33.3862 8.80549 33.4537 8.80549 33.5366C8.80549 33.6549 8.84869 33.7443 8.9351 33.8047C9.02151 33.8651 9.1316 33.8952 9.26536 33.8952ZM11.8275 32.7145V34.3125H11.1847V31.5852H11.7991V32.0487H11.8311C11.8938 31.896 11.9938 31.7746 12.1311 31.6847C12.2696 31.5947 12.4407 31.5497 12.6443 31.5497C12.8325 31.5497 12.9964 31.59 13.1361 31.6705C13.277 31.7509 13.3859 31.8675 13.4628 32.0202C13.5409 32.1729 13.5794 32.3582 13.5782 32.576V34.3125H12.9355V32.6754C12.9355 32.4931 12.8881 32.3505 12.7934 32.2475C12.6999 32.1445 12.5703 32.093 12.4046 32.093C12.2921 32.093 12.1921 32.1179 12.1045 32.1676C12.0181 32.2161 11.95 32.2866 11.9003 32.3789C11.8518 32.4712 11.8275 32.5831 11.8275 32.7145ZM15.439 34.3658C15.1656 34.3658 14.9294 34.3089 14.7306 34.1953C14.5329 34.0805 14.3808 33.9183 14.2742 33.7088C14.1677 33.4981 14.1144 33.2501 14.1144 32.9648C14.1144 32.6843 14.1677 32.4381 14.2742 32.2262C14.382 32.0131 14.5323 31.8474 14.7252 31.729C14.9182 31.6095 15.1449 31.5497 15.4053 31.5497C15.5734 31.5497 15.732 31.5769 15.8811 31.6314C16.0315 31.6847 16.164 31.7675 16.2789 31.88C16.3949 31.9924 16.486 32.1357 16.5523 32.3097C16.6186 32.4825 16.6517 32.6884 16.6517 32.9276V33.1246H14.4163V32.6914H16.0356C16.0344 32.5683 16.0078 32.4588 15.9557 32.3629C15.9036 32.2659 15.8308 32.1895 15.7373 32.1339C15.645 32.0782 15.5373 32.0504 15.4142 32.0504C15.2828 32.0504 15.1673 32.0824 15.0679 32.1463C14.9685 32.209 14.891 32.2919 14.8353 32.3949C14.7809 32.4967 14.753 32.6085 14.7519 32.7305V33.1087C14.7519 33.2673 14.7809 33.4034 14.8389 33.517C14.8969 33.6295 14.978 33.7159 15.0821 33.7763C15.1863 33.8355 15.3082 33.8651 15.4479 33.8651C15.5414 33.8651 15.626 33.852 15.7018 33.826C15.7776 33.7988 15.8432 33.7591 15.8989 33.707C15.9545 33.6549 15.9965 33.5904 16.0249 33.5135L16.6251 33.581C16.5872 33.7396 16.515 33.8781 16.4085 33.9964C16.3031 34.1136 16.1682 34.2048 16.0036 34.2699C15.8391 34.3338 15.6509 34.3658 15.439 34.3658ZM17.1955 34.3125V31.5852H17.8187V32.0398H17.8471C17.8968 31.8823 17.9821 31.761 18.1028 31.6758C18.2247 31.5894 18.3638 31.5462 18.5201 31.5462C18.5556 31.5462 18.5952 31.5479 18.639 31.5515C18.684 31.5539 18.7213 31.558 18.7509 31.5639V32.1552C18.7237 32.1457 18.6805 32.1374 18.6213 32.1303C18.5633 32.122 18.507 32.1179 18.4526 32.1179C18.3354 32.1179 18.2301 32.1433 18.1365 32.1942C18.0442 32.244 17.9714 32.3132 17.9181 32.402C17.8649 32.4908 17.8382 32.5932 17.8382 32.7092V34.3125H17.1955Z" fill="#0282FF"/>
</g>
<path d="M3.47124 31.9031V32.0031H3.58559L3.57034 31.8897L3.47124 31.9031ZM2.80717 31.9031L2.70865 31.9202L2.72306 32.0031H2.80717V31.9031ZM2.70241 31.6136L2.61656 31.6649L2.61688 31.6654L2.70241 31.6136ZM2.51243 31.397L2.57399 31.3182L2.57399 31.3182L2.51243 31.397ZM2.2532 31.2638L2.22263 31.3591L2.22403 31.3595L2.2532 31.2638ZM1.4169 31.3668L1.47101 31.4509L1.47147 31.4506L1.4169 31.3668ZM1.05824 31.8001L1.14922 31.8416L1.14931 31.8414L1.05824 31.8001ZM1.05824 33.1974L0.967161 33.2387L0.967476 33.2394L1.05824 33.1974ZM1.4169 33.6271L1.36296 33.7113L1.36373 33.7118L1.4169 33.6271ZM2.24609 33.7283L2.27483 33.8241L2.27559 33.8239L2.24609 33.7283ZM2.50355 33.5987L2.44415 33.5183L2.44355 33.5187L2.50355 33.5987ZM2.69709 33.3892L2.61297 33.3351L2.61242 33.336L2.69709 33.3892ZM2.80717 33.1051L2.80771 33.0051L2.72438 33.0047L2.70891 33.0866L2.80717 33.1051ZM3.47124 33.1087L3.57022 33.1229L3.58656 33.0093L3.47177 33.0087L3.47124 33.1087ZM3.30966 33.5952L3.22192 33.5472L3.22163 33.5477L3.30966 33.5952ZM2.98828 33.9964L3.05375 34.072L3.05413 34.0717L2.98828 33.9964ZM2.52308 34.2663L2.55696 34.3604L2.55751 34.3602L2.52308 34.2663ZM1.07599 34.1403L1.12679 34.0541L1.07599 34.1403ZM0.482955 33.4993L0.394122 33.5452L0.394122 33.5452L0.482955 33.4993ZM0.48473 31.4893L0.573328 31.5357L0.573409 31.5356L0.48473 31.4893ZM1.07955 30.8484L1.02875 30.7622L1.02875 30.7622L1.07955 30.8484ZM2.49645 30.7116L2.52749 30.6166L2.52749 30.6166L2.49645 30.7116ZM2.96165 30.962L2.89877 31.0398L2.89918 31.0401L2.96165 30.962ZM3.29723 31.3633L3.20969 31.4116L3.21013 31.4124L3.29723 31.3633ZM3.47124 31.8031H2.80717V32.0031H3.47124V31.8031ZM2.90569 31.8859C2.88489 31.7663 2.84605 31.6578 2.78795 31.5618L2.61688 31.6654C2.66057 31.7376 2.69158 31.822 2.70865 31.9202L2.90569 31.8859ZM2.78827 31.5624C2.73125 31.4669 2.65979 31.3852 2.57399 31.3182L2.45086 31.4758C2.51658 31.5272 2.57178 31.5899 2.61656 31.6649L2.78827 31.5624ZM2.57399 31.3182C2.48803 31.2511 2.39051 31.2012 2.28236 31.1682L2.22403 31.3595C2.31001 31.3857 2.38531 31.4246 2.45086 31.4758L2.57399 31.3182ZM2.28376 31.1686C2.17702 31.1344 2.06303 31.1177 1.94247 31.1177V31.3177C2.04445 31.3177 2.13761 31.3318 2.22263 31.3591L2.28376 31.1686ZM1.94247 31.1177C1.72713 31.1177 1.53265 31.1721 1.36234 31.283L1.47147 31.4506C1.60655 31.3627 1.76245 31.3177 1.94247 31.3177V31.1177ZM1.36279 31.2827C1.19156 31.3929 1.06028 31.5534 0.967163 31.7588L1.14931 31.8414C1.22902 31.6656 1.33685 31.5372 1.47101 31.4509L1.36279 31.2827ZM0.967261 31.7586C0.87335 31.9644 0.828622 32.2108 0.828622 32.4943H1.02862C1.02862 32.2309 1.07031 32.0145 1.14922 31.8416L0.967261 31.7586ZM0.828622 32.4943C0.828622 32.7823 0.873271 33.0317 0.967163 33.2387L1.14931 33.1561C1.07038 32.9821 1.02862 32.7627 1.02862 32.4943H0.828622ZM0.967476 33.2394C1.06177 33.4433 1.19297 33.6024 1.36296 33.7113L1.47085 33.5429C1.33781 33.4577 1.2299 33.3304 1.149 33.1555L0.967476 33.2394ZM1.36373 33.7118C1.53378 33.8186 1.72714 33.871 1.9407 33.871V33.671C1.76126 33.671 1.60542 33.6274 1.47008 33.5424L1.36373 33.7118ZM1.9407 33.871C2.05835 33.871 2.16992 33.8556 2.27483 33.8241L2.21736 33.6326C2.13288 33.6579 2.04084 33.671 1.9407 33.671V33.871ZM2.27559 33.8239C2.38179 33.7911 2.47806 33.7428 2.56355 33.6787L2.44355 33.5187C2.37753 33.5682 2.30215 33.6064 2.2166 33.6328L2.27559 33.8239ZM2.56296 33.6792C2.65018 33.6148 2.72318 33.5356 2.78175 33.4424L2.61242 33.336C2.56683 33.4085 2.51081 33.4691 2.44415 33.5183L2.56296 33.6792ZM2.78121 33.4433C2.8421 33.3486 2.88317 33.2416 2.90544 33.1237L2.70891 33.0866C2.69093 33.1817 2.65861 33.2641 2.61297 33.3351L2.78121 33.4433ZM2.80664 33.2051L3.4707 33.2087L3.47177 33.0087L2.80771 33.0051L2.80664 33.2051ZM3.37225 33.0944C3.34908 33.2556 3.29898 33.4063 3.22192 33.5472L3.3974 33.6432C3.48605 33.481 3.54368 33.3074 3.57022 33.1229L3.37225 33.0944ZM3.22163 33.5477C3.14576 33.6885 3.04623 33.8129 2.92243 33.9212L3.05413 34.0717C3.19549 33.948 3.3102 33.8049 3.39768 33.6426L3.22163 33.5477ZM2.92281 33.9209C2.80009 34.0271 2.65574 34.1112 2.48866 34.1724L2.55751 34.3602C2.74554 34.2913 2.91133 34.1954 3.05375 34.072L2.92281 33.9209ZM2.48921 34.1722C2.324 34.2317 2.13857 34.2622 1.93182 34.2622V34.4622C2.1583 34.4622 2.36706 34.4288 2.55695 34.3604L2.48921 34.1722ZM1.93182 34.2622C1.62829 34.2622 1.36087 34.1922 1.12679 34.0541L1.0252 34.2264C1.29301 34.3843 1.59614 34.4622 1.93182 34.4622V34.2622ZM1.12679 34.0541C0.893342 33.9165 0.708272 33.7174 0.571787 33.4534L0.394122 33.5452C0.546463 33.8399 0.756753 34.0681 1.0252 34.2264L1.12679 34.0541ZM0.571787 33.4534C0.436277 33.1912 0.366335 32.8728 0.366335 32.4943H0.166335C0.166335 32.8971 0.240806 33.2486 0.394122 33.5452L0.571787 33.4534ZM0.366335 32.4943C0.366335 32.1147 0.436852 31.7965 0.573328 31.5357L0.396132 31.443C0.241415 31.7386 0.166335 32.0903 0.166335 32.4943H0.366335ZM0.573409 31.5356C0.71109 31.2714 0.896815 31.0722 1.13034 30.9345L1.02875 30.7622C0.760382 30.9205 0.549563 31.1486 0.396052 31.4431L0.573409 31.5356ZM1.13034 30.9345C1.36454 30.7964 1.63081 30.7264 1.93182 30.7264V30.5264C1.59836 30.5264 1.29644 30.6044 1.02875 30.7622L1.13034 30.9345ZM1.93182 30.7264C2.1248 30.7264 2.30243 30.7535 2.46541 30.8067L2.52749 30.6166C2.34246 30.5562 2.14367 30.5264 1.93182 30.5264V30.7264ZM2.46541 30.8067C2.62837 30.8599 2.77254 30.9377 2.89877 31.0398L3.02453 30.8842C2.8785 30.7662 2.71254 30.677 2.52749 30.6166L2.46541 30.8067ZM2.89918 31.0401C3.02468 31.1405 3.12817 31.264 3.20969 31.4116L3.38477 31.3149C3.2911 31.1453 3.17087 31.0013 3.02412 30.8839L2.89918 31.0401ZM3.21013 31.4124C3.29191 31.5574 3.34638 31.7249 3.37213 31.9164L3.57034 31.8897C3.54164 31.6764 3.48011 31.484 3.38434 31.3142L3.21013 31.4124ZM4.68883 30.6761H4.78883V30.5761H4.68883V30.6761ZM4.68883 34.3125V34.4125H4.78883V34.3125H4.68883ZM4.04608 34.3125H3.94608V34.4125H4.04608V34.3125ZM4.04608 30.6761V30.5761H3.94608V30.6761H4.04608ZM4.58883 30.6761V34.3125H4.78883V30.6761H4.58883ZM4.68883 34.2125H4.04608V34.4125H4.68883V34.2125ZM4.14608 34.3125V30.6761H3.94608V34.3125H4.14608ZM4.04608 30.7761H4.68883V30.5761H4.04608V30.7761ZM5.84872 34.1953L5.79849 34.2818L5.79911 34.2821L5.84872 34.1953ZM5.3924 33.7088L5.30316 33.7539L5.30326 33.7541L5.3924 33.7088ZM5.3924 32.2262L5.30316 32.1811L5.30306 32.1813L5.3924 32.2262ZM5.84339 31.729L5.89569 31.8143L5.89607 31.8141L5.84339 31.729ZM6.99929 31.6314L6.96499 31.7253L6.96589 31.7256L6.99929 31.6314ZM7.39702 31.88L7.32705 31.9514L7.32741 31.9518L7.39702 31.88ZM7.67045 32.3097L7.57701 32.3453L7.57709 32.3455L7.67045 32.3097ZM7.76989 33.1246V33.2246H7.86989V33.1246H7.76989ZM5.53445 33.1246H5.43445V33.2246H5.53445V33.1246ZM5.53445 32.6914V32.5914H5.43445V32.6914H5.53445ZM7.15376 32.6914V32.7914H7.25473L7.25376 32.6904L7.15376 32.6914ZM7.07386 32.3629L6.98575 32.4102L6.98599 32.4107L7.07386 32.3629ZM6.85547 32.1339L6.80386 32.2195L6.80434 32.2198L6.85547 32.1339ZM6.18608 32.1463L6.23944 32.2309L6.24016 32.2304L6.18608 32.1463ZM5.95348 32.3949L5.8655 32.3474L5.8653 32.3477L5.95348 32.3949ZM5.87003 32.7305L5.77003 32.7295V32.7305H5.87003ZM5.95703 33.517L5.86796 33.5625L5.86816 33.5629L5.95703 33.517ZM6.20028 33.7763L6.15014 33.8628L6.15088 33.8632L6.20028 33.7763ZM6.81996 33.826L6.85247 33.9206L6.85378 33.9201L6.81996 33.826ZM7.01705 33.707L6.9487 33.634L7.01705 33.707ZM7.14311 33.5135L7.15428 33.4141L7.07644 33.4054L7.0493 33.4789L7.14311 33.5135ZM7.74325 33.581L7.84052 33.6042L7.86678 33.4942L7.75443 33.4816L7.74325 33.581ZM7.52663 33.9964L7.4523 33.9296L7.45227 33.9296L7.52663 33.9964ZM7.1218 34.2699L7.15802 34.3631L7.1586 34.3629L7.1218 34.2699ZM6.55717 34.2658C6.29776 34.2658 6.0794 34.212 5.89834 34.1085L5.79911 34.2821C6.01577 34.4059 6.26971 34.4658 6.55717 34.4658V34.2658ZM5.89895 34.1088C5.71842 34.004 5.5796 33.8563 5.48154 33.6635L5.30326 33.7541C5.41827 33.9803 5.58366 34.157 5.7985 34.2818L5.89895 34.1088ZM5.48164 33.6637C5.38351 33.4696 5.3326 33.2377 5.3326 32.9648H5.1326C5.1326 33.2626 5.18823 33.5266 5.30316 33.7539L5.48164 33.6637ZM5.3326 32.9648C5.3326 32.6971 5.38339 32.4667 5.48174 32.2711L5.30306 32.1813C5.18834 32.4094 5.1326 32.6715 5.1326 32.9648H5.3326ZM5.48164 32.2713C5.58148 32.0738 5.71942 31.9224 5.89569 31.8143L5.7911 31.6438C5.58148 31.7724 5.41876 31.9524 5.30316 32.1811L5.48164 32.2713ZM5.89607 31.8141C6.07097 31.7057 6.27883 31.6497 6.52344 31.6497V31.4497C6.24721 31.4497 6.00171 31.5133 5.79072 31.644L5.89607 31.8141ZM6.52344 31.6497C6.68052 31.6497 6.82747 31.6751 6.965 31.7253L7.03358 31.5375C6.87282 31.4788 6.70253 31.4497 6.52344 31.4497V31.6497ZM6.96589 31.7256C7.10241 31.774 7.22253 31.8491 7.32705 31.9514L7.46699 31.8085C7.34186 31.686 7.19683 31.5953 7.03269 31.5371L6.96589 31.7256ZM7.32741 31.9518C7.43143 32.0526 7.51513 32.1828 7.57701 32.3453L7.7639 32.2741C7.6932 32.0885 7.59461 31.9322 7.46662 31.8082L7.32741 31.9518ZM7.57709 32.3455C7.63792 32.5041 7.66989 32.6973 7.66989 32.9276H7.86989C7.86989 32.6796 7.83557 32.4609 7.76382 32.2738L7.57709 32.3455ZM7.66989 32.9276V33.1246H7.86989V32.9276H7.66989ZM7.76989 33.0246H5.53445V33.2246H7.76989V33.0246ZM5.63445 33.1246V32.6914H5.43445V33.1246H5.63445ZM5.53445 32.7914H7.15376V32.5914H5.53445V32.7914ZM7.25376 32.6904C7.25244 32.5531 7.22258 32.4272 7.16174 32.3152L6.98599 32.4107C7.02932 32.4904 7.05272 32.5835 7.05377 32.6924L7.25376 32.6904ZM7.16198 32.3156C7.10142 32.2028 7.01592 32.113 6.9066 32.0479L6.80434 32.2198C6.88204 32.266 6.94214 32.3289 6.98575 32.4102L7.16198 32.3156ZM6.90708 32.0482C6.79706 31.9819 6.67097 31.9504 6.53232 31.9504V32.1504C6.63987 32.1504 6.72922 32.1746 6.80386 32.2195L6.90708 32.0482ZM6.53232 31.9504C6.38396 31.9504 6.24933 31.9868 6.132 32.0622L6.24016 32.2304C6.32169 32.178 6.41789 32.1504 6.53232 32.1504V31.9504ZM6.13272 32.0617C6.01882 32.1336 5.92934 32.2292 5.8655 32.3474L6.04146 32.4424C6.08889 32.3546 6.15447 32.2845 6.23944 32.2309L6.13272 32.0617ZM5.8653 32.3477C5.80282 32.4645 5.77136 32.5924 5.77003 32.7295L5.97002 32.7314C5.97106 32.6247 5.99524 32.5288 6.04166 32.4421L5.8653 32.3477ZM5.77003 32.7305V33.1087H5.97003V32.7305H5.77003ZM5.77003 33.1087C5.77003 33.2793 5.80124 33.4318 5.86796 33.5625L6.0461 33.4716C5.99682 33.375 5.97003 33.2552 5.97003 33.1087H5.77003ZM5.86816 33.5629C5.93445 33.6914 6.02858 33.7923 6.15014 33.8628L6.25043 33.6898C6.16365 33.6395 6.09562 33.5676 6.04591 33.4712L5.86816 33.5629ZM6.15088 33.8632C6.27244 33.9323 6.41195 33.9651 6.56605 33.9651V33.7651C6.4408 33.7651 6.33646 33.7386 6.24969 33.6893L6.15088 33.8632ZM6.56605 33.9651C6.66882 33.9651 6.76466 33.9507 6.85247 33.9206L6.78745 33.7314C6.72374 33.7533 6.65031 33.7651 6.56605 33.7651V33.9651ZM6.85378 33.9201C6.94163 33.8885 7.01925 33.8419 7.08539 33.78L6.9487 33.634C6.90357 33.6763 6.8498 33.709 6.78614 33.7319L6.85378 33.9201ZM7.08539 33.78C7.15323 33.7165 7.20354 33.6385 7.23692 33.5481L7.0493 33.4789C7.02586 33.5423 6.99213 33.5934 6.9487 33.634L7.08539 33.78ZM7.13194 33.6129L7.73208 33.6803L7.75443 33.4816L7.15428 33.4141L7.13194 33.6129ZM7.64599 33.5577C7.61189 33.7005 7.54739 33.8239 7.4523 33.9296L7.60096 34.0633C7.71895 33.9323 7.79886 33.7786 7.84052 33.6042L7.64599 33.5577ZM7.45227 33.9296C7.35846 34.0339 7.23695 34.1168 7.08501 34.1769L7.1586 34.3629C7.33573 34.2928 7.4841 34.1933 7.601 34.0633L7.45227 33.9296ZM7.08559 34.1767C6.93466 34.2353 6.75909 34.2658 6.55717 34.2658V34.4658C6.77902 34.4658 6.97987 34.4323 7.15802 34.3631L7.08559 34.1767ZM8.63148 34.2752L8.58992 34.3662L8.59087 34.3666L8.63148 34.2752ZM8.30478 33.9982L8.22095 34.0528L8.22132 34.0533L8.30478 33.9982ZM8.27104 33.1655L8.18397 33.1163L8.18397 33.1163L8.27104 33.1655ZM8.50364 32.924L8.45129 32.8388L8.45129 32.8388L8.50364 32.924ZM8.83567 32.7873L8.85993 32.8843L8.86058 32.8841L8.83567 32.7873ZM9.22097 32.718L9.21065 32.6186L9.21032 32.6186L9.22097 32.718ZM9.60982 32.6737L9.6228 32.7728L9.62396 32.7726L9.60982 32.6737ZM9.82644 32.6097L9.87984 32.6943L9.8804 32.6939L9.82644 32.6097ZM9.77672 32.1516L9.84464 32.0782L9.84464 32.0782L9.77672 32.1516ZM9.05939 32.1445L8.99972 32.0643L8.99923 32.0647L9.05939 32.1445ZM8.87473 32.3878L8.86067 32.4868L8.9426 32.4984L8.96936 32.4201L8.87473 32.3878ZM8.27459 32.3026L8.17844 32.2751L8.14691 32.3854L8.26053 32.4016L8.27459 32.3026ZM8.50897 31.8871L8.58043 31.957L8.5808 31.9566L8.50897 31.8871ZM8.90847 31.6349L8.94179 31.7292L8.94242 31.729L8.90847 31.6349ZM10.1798 31.7486L10.1247 31.8321L10.1254 31.8325L10.1798 31.7486ZM10.439 32.0344L10.351 32.0819L10.3514 32.0826L10.439 32.0344ZM10.5384 34.3125V34.4125H10.6384V34.3125H10.5384ZM9.92054 34.3125H9.82054V34.4125H9.92054V34.3125ZM9.92054 33.9379H10.0205V33.8379H9.92054V33.9379ZM9.89924 33.9379V33.8379H9.83829L9.81036 33.892L9.89924 33.9379ZM9.73411 34.1509L9.8023 34.2241L9.80234 34.224L9.73411 34.1509ZM9.46955 34.3089L9.50432 34.4027L9.50489 34.4025L9.46955 34.3089ZM9.60094 33.8189L9.64829 33.907L9.64913 33.9065L9.60094 33.8189ZM9.81934 33.6129L9.734 33.5608L9.73348 33.5617L9.81934 33.6129ZM9.89746 33.0128H9.99746V32.8009L9.83389 32.9356L9.89746 33.0128ZM9.79448 33.0589L9.76639 32.963L9.76574 32.9632L9.79448 33.0589ZM9.63468 33.0962L9.65239 33.1947L9.65239 33.1947L9.63468 33.0962ZM9.30797 33.146L9.32143 33.245L9.32173 33.245L9.30797 33.146ZM9.05051 33.2099L9.01413 33.1167L9.01413 33.1167L9.05051 33.2099ZM8.87118 33.3342L8.94772 33.3985L8.94843 33.3977L8.87118 33.3342ZM8.9351 33.8047L8.87783 33.8867L8.87783 33.8867L8.9351 33.8047ZM9.09846 34.2675C8.93767 34.2675 8.79613 34.239 8.67209 34.1838L8.59087 34.3666C8.74382 34.4346 8.9136 34.4675 9.09846 34.4675V34.2675ZM8.67304 34.1843C8.55218 34.129 8.45804 34.0489 8.38823 33.9431L8.22132 34.0533C8.3125 34.1914 8.43616 34.2959 8.58992 34.3662L8.67304 34.1843ZM8.3886 33.9437C8.32204 33.8414 8.28581 33.7111 8.28581 33.5472H8.08581C8.08581 33.7409 8.1289 33.9112 8.22095 34.0528L8.3886 33.9437ZM8.28581 33.5472C8.28581 33.4051 8.31212 33.2961 8.35812 33.2147L8.18397 33.1163C8.11632 33.2361 8.08581 33.3816 8.08581 33.5472H8.28581ZM8.35812 33.2147C8.40662 33.1288 8.47222 33.0607 8.55599 33.0092L8.45129 32.8388C8.33857 32.9081 8.2491 33.001 8.18397 33.1163L8.35812 33.2147ZM8.55599 33.0092C8.64471 32.9547 8.74575 32.9128 8.85992 32.8843L8.81142 32.6903C8.67938 32.7233 8.55907 32.7726 8.45129 32.8388L8.55599 33.0092ZM8.86058 32.8841C8.98001 32.8534 9.10367 32.8312 9.23162 32.8175L9.21032 32.6186C9.07312 32.6333 8.93992 32.6572 8.81077 32.6904L8.86058 32.8841ZM9.23128 32.8175C9.39152 32.8009 9.52212 32.786 9.6228 32.7728L9.59683 32.5745C9.49865 32.5874 9.37002 32.602 9.21065 32.6186L9.23128 32.8175ZM9.62396 32.7726C9.72713 32.7579 9.81653 32.7343 9.87984 32.6943L9.77304 32.5252C9.74638 32.542 9.69137 32.561 9.59568 32.5747L9.62396 32.7726ZM9.8804 32.6939C9.95917 32.6434 9.99569 32.5637 9.99569 32.473H9.79569C9.79569 32.5054 9.78603 32.5168 9.77247 32.5255L9.8804 32.6939ZM9.99569 32.473V32.4624H9.79569V32.473H9.99569ZM9.99569 32.4624C9.99569 32.3078 9.9491 32.1749 9.84464 32.0782L9.7088 32.225C9.76297 32.2751 9.79569 32.3494 9.79569 32.4624H9.99569ZM9.84464 32.0782C9.74081 31.9822 9.59871 31.9415 9.43404 31.9415V32.1415C9.56766 32.1415 9.65402 32.1743 9.7088 32.225L9.84464 32.0782ZM9.43404 31.9415C9.26289 31.9415 9.11465 31.9788 8.99972 32.0643L9.11906 32.2248C9.1888 32.1729 9.29032 32.1415 9.43404 32.1415V31.9415ZM8.99923 32.0647C8.89464 32.1434 8.8195 32.2402 8.78011 32.3554L8.96936 32.4201C8.99389 32.3484 9.04185 32.2829 9.11956 32.2244L8.99923 32.0647ZM8.88879 32.2888L8.28865 32.2036L8.26053 32.4016L8.86067 32.4868L8.88879 32.2888ZM8.37074 32.33C8.41402 32.1786 8.48437 32.0552 8.58043 31.957L8.4375 31.8171C8.31576 31.9415 8.22986 32.0951 8.17844 32.2751L8.37074 32.33ZM8.5808 31.9566C8.67824 31.856 8.79794 31.7801 8.94179 31.7292L8.87515 31.5407C8.70413 31.6011 8.5575 31.6932 8.43713 31.8175L8.5808 31.9566ZM8.94242 31.729C9.08757 31.6766 9.2499 31.6497 9.43049 31.6497V31.4497C9.22992 31.4497 9.04424 31.4796 8.87452 31.5409L8.94242 31.729ZM9.43049 31.6497C9.55399 31.6497 9.67708 31.6642 9.79988 31.6932L9.84589 31.4986C9.70828 31.466 9.56977 31.4497 9.43049 31.4497V31.6497ZM9.79988 31.6932C9.91911 31.7214 10.0272 31.7677 10.1247 31.8321L10.2348 31.6651C10.117 31.5874 9.98708 31.5319 9.84589 31.4986L9.79988 31.6932ZM10.1254 31.8325C10.218 31.8926 10.2933 31.9749 10.351 32.0819L10.527 31.987C10.4545 31.8525 10.3569 31.7443 10.2342 31.6647L10.1254 31.8325ZM10.3514 32.0826C10.4074 32.1846 10.4384 32.3178 10.4384 32.4872H10.6384C10.6384 32.2944 10.6032 32.1257 10.5267 31.9863L10.3514 32.0826ZM10.4384 32.4872V34.3125H10.6384V32.4872H10.4384ZM10.5384 34.2125H9.92054V34.4125H10.5384V34.2125ZM10.0205 34.3125V33.9379H9.82054V34.3125H10.0205ZM9.92054 33.8379H9.89924V34.0379H9.92054V33.8379ZM9.81036 33.892C9.77724 33.9563 9.72966 34.0183 9.66588 34.0778L9.80234 34.224C9.8806 34.151 9.94311 34.071 9.98812 33.9837L9.81036 33.892ZM9.66592 34.0778C9.60725 34.1325 9.53087 34.1789 9.43421 34.2154L9.50489 34.4025C9.6213 34.3585 9.72129 34.2996 9.8023 34.2241L9.66592 34.0778ZM9.43478 34.2152C9.34306 34.2492 9.23163 34.2675 9.09846 34.2675V34.4675C9.24937 34.4675 9.38533 34.4468 9.50431 34.4027L9.43478 34.2152ZM9.26536 33.9952C9.40762 33.9952 9.53639 33.9671 9.64829 33.907L9.5536 33.7308C9.4761 33.7725 9.38115 33.7952 9.26536 33.7952V33.9952ZM9.64913 33.9065C9.75797 33.8467 9.84439 33.766 9.90519 33.6642L9.73348 33.5617C9.69248 33.6303 9.63331 33.687 9.55275 33.7313L9.64913 33.9065ZM9.90466 33.6651C9.96642 33.564 9.99746 33.453 9.99746 33.3342H9.79746C9.79746 33.4165 9.77642 33.4914 9.73401 33.5608L9.90466 33.6651ZM9.99746 33.3342V33.0128H9.79746V33.3342H9.99746ZM9.83389 32.9356C9.82997 32.9388 9.81185 32.9497 9.76639 32.963L9.82257 33.1549C9.87417 33.1398 9.9247 33.1199 9.96103 33.09L9.83389 32.9356ZM9.76574 32.9632C9.72269 32.9761 9.67319 32.9877 9.61696 32.9978L9.65239 33.1947C9.71453 33.1835 9.77157 33.1702 9.82321 33.1547L9.76574 32.9632ZM9.61696 32.9978C9.55893 33.0083 9.50153 33.0175 9.44475 33.0256L9.47304 33.2236C9.53226 33.2152 9.59205 33.2055 9.65239 33.1947L9.61696 32.9978ZM9.44475 33.0256C9.38684 33.0339 9.33666 33.041 9.29422 33.0469L9.32173 33.245C9.36451 33.2391 9.41495 33.2319 9.47304 33.2236L9.44475 33.0256ZM9.29452 33.0469C9.19222 33.0608 9.0985 33.0838 9.01413 33.1167L9.0869 33.303C9.15404 33.2768 9.23197 33.2572 9.32143 33.245L9.29452 33.0469ZM9.01413 33.1167C8.92531 33.1514 8.8504 33.202 8.79394 33.2707L8.94843 33.3977C8.97956 33.3598 9.0242 33.3275 9.0869 33.303L9.01413 33.1167ZM8.79465 33.2698C8.73259 33.3436 8.70549 33.4355 8.70549 33.5366H8.90549C8.90549 33.4719 8.92218 33.4289 8.94772 33.3985L8.79465 33.2698ZM8.70549 33.5366C8.70549 33.6829 8.76103 33.8051 8.87783 33.8867L8.99237 33.7227C8.93635 33.6836 8.90549 33.627 8.90549 33.5366H8.70549ZM8.87783 33.8867C8.98506 33.9616 9.11663 33.9952 9.26536 33.9952V33.7952C9.14657 33.7952 9.05797 33.7685 8.99237 33.7227L8.87783 33.8867ZM11.8275 34.3125V34.4125H11.9275V34.3125H11.8275ZM11.1847 34.3125H11.0847V34.4125H11.1847V34.3125ZM11.1847 31.5852V31.4852H11.0847V31.5852H11.1847ZM11.7991 31.5852H11.8991V31.4852H11.7991V31.5852ZM11.7991 32.0487H11.6991V32.1487H11.7991V32.0487ZM11.8311 32.0487V32.1487H11.8981L11.9236 32.0867L11.8311 32.0487ZM12.1311 31.6847L12.0767 31.6008L12.0763 31.601L12.1311 31.6847ZM13.1361 31.6705L13.0862 31.7571L13.0865 31.7573L13.1361 31.6705ZM13.4628 32.0202L13.3735 32.0652L13.3738 32.0658L13.4628 32.0202ZM13.5782 32.576L13.4782 32.5755V32.576H13.5782ZM13.5782 34.3125V34.4125H13.6782V34.3125H13.5782ZM12.9355 34.3125H12.8355V34.4125H12.9355V34.3125ZM12.7934 32.2475L12.7194 32.3147L12.7198 32.3152L12.7934 32.2475ZM12.1045 32.1676L12.1535 32.2548L12.1539 32.2546L12.1045 32.1676ZM11.9003 32.3789L11.8123 32.3315L11.8118 32.3324L11.9003 32.3789ZM11.7275 32.7145V34.3125H11.9275V32.7145H11.7275ZM11.8275 34.2125H11.1847V34.4125H11.8275V34.2125ZM11.2847 34.3125V31.5852H11.0847V34.3125H11.2847ZM11.1847 31.6852H11.7991V31.4852H11.1847V31.6852ZM11.6991 31.5852V32.0487H11.8991V31.5852H11.6991ZM11.7991 32.1487H11.8311V31.9487H11.7991V32.1487ZM11.9236 32.0867C11.9787 31.9525 12.0656 31.8471 12.1859 31.7683L12.0763 31.601C11.922 31.7021 11.8089 31.8394 11.7386 32.0106L11.9236 32.0867ZM12.1856 31.7685C12.3045 31.6913 12.4555 31.6497 12.6443 31.6497V31.4497C12.4258 31.4497 12.2348 31.4981 12.0767 31.6008L12.1856 31.7685ZM12.6443 31.6497C12.8179 31.6497 12.9641 31.6867 13.0862 31.7571L13.186 31.5838C13.0288 31.4932 12.847 31.4497 12.6443 31.4497V31.6497ZM13.0865 31.7573C13.2094 31.8275 13.3049 31.9291 13.3735 32.0652L13.5521 31.9752C13.4668 31.806 13.3446 31.6744 13.1857 31.5836L13.0865 31.7573ZM13.3738 32.0658C13.4429 32.2009 13.4793 32.3695 13.4782 32.5755L13.6782 32.5765C13.6795 32.3469 13.639 32.145 13.5518 31.9747L13.3738 32.0658ZM13.4782 32.576V34.3125H13.6782V32.576H13.4782ZM13.5782 34.2125H12.9355V34.4125H13.5782V34.2125ZM13.0355 34.3125V32.6754H12.8355V34.3125H13.0355ZM13.0355 32.6754C13.0355 32.4759 12.9833 32.3063 12.867 32.1798L12.7198 32.3152C12.7929 32.3947 12.8355 32.5104 12.8355 32.6754H13.0355ZM12.8674 32.1803C12.7514 32.0524 12.5926 31.993 12.4046 31.993V32.193C12.548 32.193 12.6484 32.2366 12.7194 32.3147L12.8674 32.1803ZM12.4046 31.993C12.2769 31.993 12.1595 32.0214 12.0551 32.0806L12.1539 32.2546C12.2247 32.2144 12.3074 32.193 12.4046 32.193V31.993ZM12.0555 32.0804C11.9516 32.1388 11.8704 32.2235 11.8123 32.3315L11.9883 32.4263C12.0296 32.3497 12.0846 32.2935 12.1535 32.2548L12.0555 32.0804ZM11.8118 32.3324C11.754 32.4423 11.7275 32.571 11.7275 32.7145H11.9275C11.9275 32.5952 11.9495 32.5002 11.9888 32.4254L11.8118 32.3324ZM14.7306 34.1953L14.6803 34.2818L14.6809 34.2821L14.7306 34.1953ZM14.2742 33.7088L14.185 33.7539L14.1851 33.7541L14.2742 33.7088ZM14.2742 32.2262L14.185 32.1811L14.1849 32.1813L14.2742 32.2262ZM14.7252 31.729L14.7775 31.8143L14.7779 31.8141L14.7252 31.729ZM15.8811 31.6314L15.8468 31.7253L15.8477 31.7256L15.8811 31.6314ZM16.2789 31.88L16.2089 31.9514L16.2092 31.9518L16.2789 31.88ZM16.5523 32.3097L16.4588 32.3453L16.4589 32.3455L16.5523 32.3097ZM16.6517 33.1246V33.2246H16.7517V33.1246H16.6517ZM14.4163 33.1246H14.3163V33.2246H14.4163V33.1246ZM14.4163 32.6914V32.5914H14.3163V32.6914H14.4163ZM16.0356 32.6914V32.7914H16.1366L16.1356 32.6904L16.0356 32.6914ZM15.9557 32.3629L15.8676 32.4102L15.8678 32.4107L15.9557 32.3629ZM15.7373 32.1339L15.6857 32.2195L15.6862 32.2198L15.7373 32.1339ZM15.0679 32.1463L15.1213 32.2309L15.122 32.2304L15.0679 32.1463ZM14.8353 32.3949L14.7473 32.3474L14.7471 32.3477L14.8353 32.3949ZM14.7519 32.7305L14.6519 32.7295V32.7305H14.7519ZM14.8389 33.517L14.7498 33.5625L14.75 33.5629L14.8389 33.517ZM15.0821 33.7763L15.032 33.8628L15.0327 33.8632L15.0821 33.7763ZM15.7018 33.826L15.7343 33.9206L15.7356 33.9201L15.7018 33.826ZM15.8989 33.707L15.8305 33.634L15.8989 33.707ZM16.0249 33.5135L16.0361 33.4141L15.9583 33.4054L15.9311 33.4789L16.0249 33.5135ZM16.6251 33.581L16.7224 33.6042L16.7486 33.4942L16.6363 33.4816L16.6251 33.581ZM16.4085 33.9964L16.3341 33.9296L16.3341 33.9296L16.4085 33.9964ZM16.0036 34.2699L16.0399 34.3631L16.0404 34.3629L16.0036 34.2699ZM15.439 34.2658C15.1796 34.2658 14.9612 34.212 14.7802 34.1085L14.6809 34.2821C14.8976 34.4059 15.1515 34.4658 15.439 34.4658V34.2658ZM14.7808 34.1088C14.6003 34.004 14.4614 33.8563 14.3634 33.6635L14.1851 33.7541C14.3001 33.9803 14.4655 34.157 14.6803 34.2818L14.7808 34.1088ZM14.3635 33.6637C14.2653 33.4696 14.2144 33.2377 14.2144 32.9648H14.0144C14.0144 33.2626 14.0701 33.5266 14.185 33.7539L14.3635 33.6637ZM14.2144 32.9648C14.2144 32.6971 14.2652 32.4667 14.3636 32.2711L14.1849 32.1813C14.0702 32.4094 14.0144 32.6715 14.0144 32.9648H14.2144ZM14.3635 32.2713C14.4633 32.0738 14.6013 31.9224 14.7775 31.8143L14.6729 31.6438C14.4633 31.7724 14.3006 31.9524 14.185 32.1811L14.3635 32.2713ZM14.7779 31.8141C14.9528 31.7057 15.1607 31.6497 15.4053 31.6497V31.4497C15.129 31.4497 14.8835 31.5133 14.6726 31.644L14.7779 31.8141ZM15.4053 31.6497C15.5624 31.6497 15.7093 31.6751 15.8468 31.7253L15.9154 31.5375C15.7547 31.4788 15.5844 31.4497 15.4053 31.4497V31.6497ZM15.8477 31.7256C15.9842 31.774 16.1044 31.8491 16.2089 31.9514L16.3488 31.8085C16.2237 31.686 16.0787 31.5953 15.9145 31.5371L15.8477 31.7256ZM16.2092 31.9518C16.3133 32.0526 16.397 32.1828 16.4588 32.3453L16.6457 32.2741C16.575 32.0885 16.4764 31.9322 16.3485 31.8082L16.2092 31.9518ZM16.4589 32.3455C16.5198 32.5041 16.5517 32.6973 16.5517 32.9276H16.7517C16.7517 32.6796 16.7174 32.4609 16.6457 32.2738L16.4589 32.3455ZM16.5517 32.9276V33.1246H16.7517V32.9276H16.5517ZM16.6517 33.0246H14.4163V33.2246H16.6517V33.0246ZM14.5163 33.1246V32.6914H14.3163V33.1246H14.5163ZM14.4163 32.7914H16.0356V32.5914H14.4163V32.7914ZM16.1356 32.6904C16.1343 32.5531 16.1044 32.4272 16.0436 32.3152L15.8678 32.4107C15.9112 32.4904 15.9346 32.5835 15.9356 32.6924L16.1356 32.6904ZM16.0438 32.3156C15.9833 32.2028 15.8978 32.113 15.7884 32.0479L15.6862 32.2198C15.7639 32.266 15.824 32.3289 15.8676 32.4102L16.0438 32.3156ZM15.7889 32.0482C15.6789 31.9819 15.5528 31.9504 15.4142 31.9504V32.1504C15.5217 32.1504 15.6111 32.1746 15.6857 32.2195L15.7889 32.0482ZM15.4142 31.9504C15.2658 31.9504 15.1312 31.9868 15.0138 32.0622L15.122 32.2304C15.2035 32.178 15.2997 32.1504 15.4142 32.1504V31.9504ZM15.0146 32.0617C14.9007 32.1336 14.8112 32.2292 14.7473 32.3474L14.9233 32.4424C14.9707 32.3546 15.0363 32.2845 15.1213 32.2309L15.0146 32.0617ZM14.7471 32.3477C14.6847 32.4645 14.6532 32.5924 14.6519 32.7295L14.8519 32.7314C14.8529 32.6247 14.8771 32.5288 14.9235 32.4421L14.7471 32.3477ZM14.6519 32.7305V33.1087H14.8519V32.7305H14.6519ZM14.6519 33.1087C14.6519 33.2793 14.6831 33.4318 14.7498 33.5625L14.9279 33.4716C14.8787 33.375 14.8519 33.2552 14.8519 33.1087H14.6519ZM14.75 33.5629C14.8163 33.6914 14.9104 33.7923 15.032 33.8628L15.1323 33.6898C15.0455 33.6395 14.9775 33.5676 14.9277 33.4712L14.75 33.5629ZM15.0327 33.8632C15.1543 33.9323 15.2938 33.9651 15.4479 33.9651V33.7651C15.3226 33.7651 15.2183 33.7386 15.1315 33.6893L15.0327 33.8632ZM15.4479 33.9651C15.5507 33.9651 15.6465 33.9507 15.7343 33.9206L15.6693 33.7314C15.6056 33.7533 15.5321 33.7651 15.4479 33.7651V33.9651ZM15.7356 33.9201C15.8235 33.8885 15.9011 33.8419 15.9672 33.78L15.8305 33.634C15.7854 33.6763 15.7316 33.709 15.668 33.7319L15.7356 33.9201ZM15.9672 33.78C16.0351 33.7165 16.0854 33.6385 16.1188 33.5481L15.9311 33.4789C15.9077 33.5423 15.874 33.5934 15.8305 33.634L15.9672 33.78ZM16.0138 33.6129L16.6139 33.6803L16.6363 33.4816L16.0361 33.4141L16.0138 33.6129ZM16.5278 33.5577C16.4937 33.7005 16.4292 33.8239 16.3341 33.9296L16.4828 34.0633C16.6008 33.9323 16.6807 33.7786 16.7224 33.6042L16.5278 33.5577ZM16.3341 33.9296C16.2403 34.0339 16.1188 34.1168 15.9668 34.1769L16.0404 34.3629C16.2176 34.2928 16.3659 34.1933 16.4828 34.0633L16.3341 33.9296ZM15.9674 34.1767C15.8165 34.2353 15.6409 34.2658 15.439 34.2658V34.4658C15.6609 34.4658 15.8617 34.4323 16.0399 34.3631L15.9674 34.1767ZM17.1955 34.3125H17.0955V34.4125H17.1955V34.3125ZM17.1955 31.5852V31.4852H17.0955V31.5852H17.1955ZM17.8187 31.5852H17.9187V31.4852H17.8187V31.5852ZM17.8187 32.0398H17.7187V32.1398H17.8187V32.0398ZM17.8471 32.0398V32.1398H17.9204L17.9425 32.0699L17.8471 32.0398ZM18.1028 31.6758L18.1605 31.7575L18.1606 31.7574L18.1028 31.6758ZM18.639 31.5515L18.6309 31.6512L18.6338 31.6514L18.639 31.5515ZM18.7509 31.5639H18.8509V31.4819L18.7705 31.4659L18.7509 31.5639ZM18.7509 32.1552L18.718 32.2496L18.8509 32.2958V32.1552H18.7509ZM18.6213 32.1303L18.6071 32.2293L18.6094 32.2296L18.6213 32.1303ZM18.1365 32.1942L18.184 32.2823L18.1843 32.2821L18.1365 32.1942ZM17.8382 34.3125V34.4125H17.9382V34.3125H17.8382ZM17.2955 34.3125V31.5852H17.0955V34.3125H17.2955ZM17.1955 31.6852H17.8187V31.4852H17.1955V31.6852ZM17.7187 31.5852V32.0398H17.9187V31.5852H17.7187ZM17.8187 32.1398H17.8471V31.9398H17.8187V32.1398ZM17.9425 32.0699C17.9864 31.9307 18.0597 31.8286 18.1605 31.7575L18.0451 31.5941C17.9044 31.6934 17.8073 31.8339 17.7518 32.0097L17.9425 32.0699ZM18.1606 31.7574C18.2648 31.6835 18.3835 31.6462 18.5201 31.6462V31.4462C18.3441 31.4462 18.1846 31.4952 18.045 31.5942L18.1606 31.7574ZM18.5201 31.6462C18.5523 31.6462 18.5892 31.6478 18.6309 31.6512L18.6471 31.4518C18.6012 31.4481 18.5588 31.4462 18.5201 31.4462V31.6462ZM18.6338 31.6514C18.676 31.6536 18.7081 31.6573 18.7313 31.662L18.7705 31.4659C18.7345 31.4587 18.692 31.4541 18.6443 31.4516L18.6338 31.6514ZM18.6509 31.5639V32.1552H18.8509V31.5639H18.6509ZM18.7837 32.0607C18.7458 32.0475 18.6936 32.0383 18.6332 32.031L18.6094 32.2296C18.6673 32.2366 18.7015 32.2439 18.718 32.2496L18.7837 32.0607ZM18.6354 32.0313C18.5731 32.0224 18.5121 32.0179 18.4526 32.0179V32.2179C18.502 32.2179 18.5535 32.2217 18.6071 32.2293L18.6354 32.0313ZM18.4526 32.0179C18.3204 32.0179 18.1984 32.0467 18.0887 32.1064L18.1843 32.2821C18.2618 32.2399 18.3504 32.2179 18.4526 32.2179V32.0179ZM18.0891 32.1062C17.9812 32.1643 17.895 32.2461 17.8324 32.3505L18.0039 32.4534C18.0478 32.3803 18.1072 32.3236 18.184 32.2823L18.0891 32.1062ZM17.8324 32.3505C17.7687 32.4567 17.7382 32.5773 17.7382 32.7092H17.9382C17.9382 32.609 17.961 32.5249 18.0039 32.4534L17.8324 32.3505ZM17.7382 32.7092V34.3125H17.9382V32.7092H17.7382ZM17.8382 34.2125H17.1955V34.4125H17.8382V34.2125Z" fill="black"/>
<g filter="url(#filter1_i_101_28)">
<path d="M2.33487 26.3633C2.3183 26.2082 2.24846 26.0875 2.12536 26.0011C2.00343 25.9147 1.84482 25.8714 1.6495 25.8714C1.51219 25.8714 1.39441 25.8922 1.29616 25.9336C1.19792 25.975 1.12275 26.0312 1.07067 26.1023C1.01858 26.1733 0.991951 26.2544 0.990767 26.3455C0.990767 26.4213 1.00793 26.487 1.04226 26.5426C1.07777 26.5982 1.12571 26.6456 1.18608 26.6847C1.24645 26.7225 1.31333 26.7545 1.38672 26.7805C1.46011 26.8066 1.53409 26.8285 1.60866 26.8462L1.94957 26.9315C2.08688 26.9634 2.21887 27.0066 2.34553 27.0611C2.47337 27.1155 2.58759 27.1842 2.68821 27.267C2.79001 27.3499 2.8705 27.4499 2.92969 27.5671C2.98887 27.6843 3.01847 27.8216 3.01847 27.979C3.01847 28.1921 2.96402 28.3797 2.85511 28.5419C2.74621 28.7029 2.58878 28.829 2.38281 28.9201C2.17803 29.0101 1.93004 29.055 1.63885 29.055C1.35594 29.055 1.11032 29.0112 0.901989 28.9237C0.694839 28.8361 0.53267 28.7082 0.415483 28.5401C0.299479 28.372 0.236742 28.1673 0.227273 27.9258H0.875355C0.884825 28.0524 0.923887 28.1578 0.992543 28.2418C1.0612 28.3259 1.15057 28.3886 1.26065 28.43C1.37192 28.4715 1.49621 28.4922 1.63352 28.4922C1.77675 28.4922 1.90223 28.4709 2.00994 28.4283C2.11884 28.3845 2.20407 28.3241 2.26562 28.2472C2.32718 28.169 2.35855 28.0779 2.35973 27.9737C2.35855 27.879 2.33073 27.8009 2.27628 27.7393C2.22183 27.6766 2.14548 27.6245 2.04723 27.5831C1.95017 27.5405 1.83653 27.5026 1.70632 27.4695L1.29261 27.3629C0.993135 27.286 0.756392 27.1694 0.582386 27.0131C0.409564 26.8557 0.323153 26.6468 0.323153 26.3864C0.323153 26.1721 0.381155 25.9845 0.497159 25.8235C0.614347 25.6625 0.773556 25.5376 0.974787 25.4489C1.17602 25.3589 1.40388 25.3139 1.65838 25.3139C1.91643 25.3139 2.14252 25.3589 2.33665 25.4489C2.53196 25.5376 2.68525 25.6613 2.79652 25.82C2.90779 25.9774 2.9652 26.1585 2.96875 26.3633H2.33487ZM4.96049 27.7784H5.55708L5.91042 28.2365L6.16255 28.5348L6.76802 29.3125H6.12882L5.71689 28.7905L5.5411 28.5419L4.96049 27.7784ZM6.85502 27.1818C6.85502 27.5736 6.78163 27.9092 6.63485 28.1886C6.48926 28.4667 6.29039 28.6798 6.03826 28.8278C5.78732 28.9757 5.50263 29.0497 5.18422 29.0497C4.8658 29.0497 4.58052 28.9757 4.32839 28.8278C4.07744 28.6786 3.87858 28.465 3.7318 28.1868C3.5862 27.9074 3.51341 27.5724 3.51341 27.1818C3.51341 26.79 3.5862 26.455 3.7318 26.1768C3.87858 25.8975 4.07744 25.6838 4.32839 25.5359C4.58052 25.3879 4.8658 25.3139 5.18422 25.3139C5.50263 25.3139 5.78732 25.3879 6.03826 25.5359C6.29039 25.6838 6.48926 25.8975 6.63485 26.1768C6.78163 26.455 6.85502 26.79 6.85502 27.1818ZM6.19274 27.1818C6.19274 26.906 6.14953 26.6734 6.06312 26.484C5.97789 26.2934 5.85952 26.1496 5.70801 26.0526C5.55649 25.9543 5.3819 25.9052 5.18422 25.9052C4.98654 25.9052 4.81194 25.9543 4.66042 26.0526C4.50891 26.1496 4.38994 26.2934 4.30353 26.484C4.21831 26.6734 4.17569 26.906 4.17569 27.1818C4.17569 27.4576 4.21831 27.6908 4.30353 27.8814C4.38994 28.0708 4.50891 28.2146 4.66042 28.3129C4.81194 28.4099 4.98654 28.4585 5.18422 28.4585C5.3819 28.4585 5.55649 28.4099 5.70801 28.3129C5.85952 28.2146 5.97789 28.0708 6.06312 27.8814C6.14953 27.6908 6.19274 27.4576 6.19274 27.1818ZM7.48269 29V25.3636H8.14142V28.4478H9.74299V29H7.48269Z" fill="#FD7A02"/>
</g>
<path d="M2.33487 26.3633L2.23544 26.3739L2.24499 26.4633H2.33487V26.3633ZM2.12536 26.0011L2.06753 26.0827L2.0679 26.0829L2.12536 26.0011ZM1.29616 25.9336L1.33502 26.0257L1.33502 26.0257L1.29616 25.9336ZM1.07067 26.1023L0.990027 26.0431L0.990027 26.0431L1.07067 26.1023ZM0.990767 26.3455L0.890767 26.3442V26.3455H0.990767ZM1.04226 26.5426L0.957145 26.5951L0.957966 26.5964L1.04226 26.5426ZM1.18608 26.6847L1.13175 26.7686L1.13293 26.7694L1.18608 26.6847ZM1.38672 26.7805L1.35328 26.8748L1.35328 26.8748L1.38672 26.7805ZM1.60866 26.8462L1.63292 26.7492L1.63183 26.749L1.60866 26.8462ZM1.94957 26.9315L1.92532 27.0285L1.9269 27.0289L1.94957 26.9315ZM2.34553 27.0611L2.30603 27.153L2.30634 27.1531L2.34553 27.0611ZM2.68821 27.267L2.62464 27.3442L2.62508 27.3446L2.68821 27.267ZM2.85511 28.5419L2.93794 28.5979L2.93813 28.5977L2.85511 28.5419ZM2.38281 28.9201L2.42303 29.0117L2.42328 29.0115L2.38281 28.9201ZM0.901989 28.9237L0.863042 29.0158L0.86323 29.0158L0.901989 28.9237ZM0.415483 28.5401L0.333179 28.5969L0.333451 28.5973L0.415483 28.5401ZM0.227273 27.9258V27.8258H0.123274L0.12735 27.9297L0.227273 27.9258ZM0.875355 27.9258L0.975077 27.9183L0.968158 27.8258H0.875355V27.9258ZM0.992543 28.2418L1.06999 28.1786L1.06999 28.1786L0.992543 28.2418ZM1.26065 28.43L1.22543 28.5236L1.22576 28.5238L1.26065 28.43ZM2.00994 28.4283L2.04673 28.5213L2.04726 28.521L2.00994 28.4283ZM2.26562 28.2472L2.34371 28.3096L2.34417 28.309L2.26562 28.2472ZM2.35973 27.9737L2.45975 27.9749L2.45972 27.9725L2.35973 27.9737ZM2.27628 27.7393L2.20075 27.8049L2.20138 27.8056L2.27628 27.7393ZM2.04723 27.5831L2.00703 27.6747L2.00837 27.6752L2.04723 27.5831ZM1.70632 27.4695L1.68138 27.5663L1.68165 27.5664L1.70632 27.4695ZM1.29261 27.3629L1.31755 27.2661L1.3175 27.2661L1.29261 27.3629ZM0.582386 27.0131L0.515042 27.0871L0.515574 27.0875L0.582386 27.0131ZM0.497159 25.8235L0.41631 25.7647L0.416028 25.765L0.497159 25.8235ZM0.974787 25.4489L1.01515 25.5404L1.0156 25.5402L0.974787 25.4489ZM2.33665 25.4489L2.2946 25.5396L2.29527 25.5399L2.33665 25.4489ZM2.79652 25.82L2.71465 25.8774L2.71486 25.8777L2.79652 25.82ZM2.96875 26.3633V26.4633H3.0705L3.06873 26.3615L2.96875 26.3633ZM2.43431 26.3527C2.4148 26.1701 2.3305 26.0229 2.18281 25.9192L2.0679 26.0829C2.16642 26.1521 2.2218 26.2463 2.23544 26.3739L2.43431 26.3527ZM2.18318 25.9195C2.03984 25.8179 1.85921 25.7714 1.6495 25.7714V25.9714C1.83042 25.9714 1.96702 26.0114 2.06753 26.0827L2.18318 25.9195ZM1.6495 25.7714C1.50252 25.7714 1.37084 25.7936 1.25731 25.8415L1.33502 26.0257C1.41798 25.9908 1.52186 25.9714 1.6495 25.9714V25.7714ZM1.25731 25.8415C1.14592 25.8884 1.05485 25.9547 0.990027 26.0431L1.15131 26.1614C1.19065 26.1078 1.24991 26.0616 1.33502 26.0257L1.25731 25.8415ZM0.990027 26.0431C0.925177 26.1316 0.89222 26.233 0.890776 26.3442L1.09076 26.3468C1.09168 26.2757 1.11199 26.215 1.15131 26.1614L0.990027 26.0431ZM0.890767 26.3455C0.890767 26.4368 0.911626 26.5213 0.957155 26.5951L1.12736 26.4901C1.10424 26.4526 1.09077 26.4057 1.09077 26.3455H0.890767ZM0.957966 26.5964C1.00186 26.6652 1.06044 26.7225 1.13175 26.7686L1.2404 26.6007C1.19098 26.5687 1.15368 26.5313 1.12655 26.4888L0.957966 26.5964ZM1.13293 26.7694C1.20004 26.8115 1.27362 26.8465 1.35328 26.8748L1.42016 26.6863C1.35304 26.6625 1.29286 26.6336 1.23923 26.6L1.13293 26.7694ZM1.35328 26.8748C1.42998 26.902 1.5074 26.9249 1.5855 26.9435L1.63183 26.749C1.56079 26.732 1.49023 26.7112 1.42016 26.6863L1.35328 26.8748ZM1.58441 26.9433L1.92532 27.0285L1.97383 26.8344L1.63292 26.7492L1.58441 26.9433ZM1.9269 27.0289C2.05858 27.0595 2.18493 27.1009 2.30603 27.1529L2.38502 26.9692C2.25281 26.9124 2.11519 26.8673 1.97224 26.8341L1.9269 27.0289ZM2.30634 27.1531C2.42597 27.204 2.53187 27.2678 2.62464 27.3442L2.75178 27.1899C2.64332 27.1005 2.52077 27.027 2.38471 26.9691L2.30634 27.1531ZM2.62508 27.3446C2.71598 27.4186 2.78757 27.5075 2.84043 27.6122L3.01895 27.522C2.95343 27.3923 2.86403 27.2812 2.75134 27.1895L2.62508 27.3446ZM2.84043 27.6122C2.89128 27.7129 2.91847 27.8342 2.91847 27.979H3.11847C3.11847 27.809 3.08647 27.6557 3.01895 27.522L2.84043 27.6122ZM2.91847 27.979C2.91847 28.1741 2.86892 28.342 2.7721 28.4862L2.93813 28.5977C3.05911 28.4175 3.11847 28.2101 3.11847 27.979H2.91847ZM2.77229 28.4859C2.67548 28.629 2.53393 28.7439 2.34235 28.8287L2.42328 29.0115C2.64363 28.914 2.81694 28.7768 2.93794 28.5979L2.77229 28.4859ZM2.34259 28.8285C2.1537 28.9115 1.92019 28.955 1.63885 28.955V29.155C1.93989 29.155 2.20237 29.1086 2.42303 29.0117L2.34259 28.8285ZM1.63885 28.955C1.36602 28.955 1.13414 28.9128 0.940748 28.8315L0.86323 29.0158C1.0865 29.1097 1.34587 29.155 1.63885 29.155V28.955ZM0.940935 28.8315C0.749395 28.7506 0.602878 28.6341 0.497515 28.4829L0.333451 28.5973C0.462463 28.7824 0.640283 28.9216 0.863042 29.0158L0.940935 28.8315ZM0.497786 28.4833C0.394389 28.3335 0.336061 28.1479 0.327196 27.9219L0.12735 27.9297C0.137424 28.1866 0.20457 28.4106 0.33318 28.5969L0.497786 28.4833ZM0.227273 28.0258H0.875355V27.8258H0.227273V28.0258ZM0.775633 27.9332C0.786364 28.0768 0.831371 28.2026 0.915098 28.3051L1.06999 28.1786C1.0164 28.113 0.983286 28.0281 0.975077 27.9183L0.775633 27.9332ZM0.915098 28.3051C0.995835 28.4039 1.10027 28.4765 1.22543 28.5236L1.29588 28.3365C1.20086 28.3007 1.12656 28.2478 1.06999 28.1786L0.915098 28.3051ZM1.22576 28.5238C1.34979 28.5699 1.48613 28.5922 1.63352 28.5922V28.3922C1.50629 28.3922 1.39405 28.373 1.29555 28.3363L1.22576 28.5238ZM1.63352 28.5922C1.78647 28.5922 1.92489 28.5695 2.04673 28.5213L1.97316 28.3353C1.87956 28.3723 1.76704 28.3922 1.63352 28.3922V28.5922ZM2.04726 28.521C2.16907 28.4721 2.26952 28.4024 2.34371 28.3096L2.18754 28.1847C2.13863 28.2458 2.06862 28.2969 1.97263 28.3355L2.04726 28.521ZM2.34417 28.309C2.42006 28.2127 2.4583 28.1 2.45972 27.9749L2.25974 27.9726C2.25879 28.0558 2.2343 28.1253 2.18708 28.1853L2.34417 28.309ZM2.45972 27.9725C2.45829 27.8577 2.42391 27.7553 2.35118 27.6731L2.20138 27.8056C2.23755 27.8465 2.25881 27.9004 2.25974 27.975L2.45972 27.9725ZM2.3518 27.6738C2.28489 27.5967 2.19456 27.5367 2.08609 27.491L2.00837 27.6752C2.09639 27.7124 2.15876 27.7565 2.20076 27.8049L2.3518 27.6738ZM2.08743 27.4915C1.98422 27.4462 1.86518 27.4067 1.73099 27.3726L1.68165 27.5664C1.80788 27.5985 1.91611 27.6347 2.00703 27.6747L2.08743 27.4915ZM1.73126 27.3726L1.31755 27.2661L1.26768 27.4598L1.68138 27.5663L1.73126 27.3726ZM1.3175 27.2661C1.02877 27.1919 0.80801 27.0813 0.649199 26.9387L0.515574 27.0875C0.704774 27.2574 0.957499 27.3801 1.26773 27.4598L1.3175 27.2661ZM0.649729 26.9392C0.500205 26.803 0.423153 26.6222 0.423153 26.3864H0.223153C0.223153 26.6714 0.318924 26.9084 0.515044 27.0871L0.649729 26.9392ZM0.423153 26.3864C0.423153 26.1913 0.475548 26.0246 0.57829 25.882L0.416028 25.765C0.286762 25.9444 0.223153 26.1529 0.223153 26.3864H0.423153ZM0.578007 25.8824C0.683754 25.7371 0.828325 25.6228 1.01515 25.5404L0.934423 25.3574C0.718787 25.4525 0.544939 25.588 0.416311 25.7647L0.578007 25.8824ZM1.0156 25.5402C1.20215 25.4568 1.41579 25.4139 1.65838 25.4139V25.2139C1.39198 25.2139 1.14988 25.261 0.933974 25.3576L1.0156 25.5402ZM1.65838 25.4139C1.90485 25.4139 2.11608 25.4569 2.2946 25.5396L2.37869 25.3581C2.16896 25.2609 1.92801 25.2139 1.65838 25.2139V25.4139ZM2.29527 25.5399C2.47612 25.6221 2.61471 25.7349 2.71465 25.8774L2.87839 25.7625C2.75579 25.5878 2.5878 25.4532 2.37803 25.3578L2.29527 25.5399ZM2.71486 25.8777C2.8138 26.0177 2.86554 26.179 2.86877 26.365L3.06873 26.3615C3.06486 26.138 3.00178 25.9371 2.87818 25.7622L2.71486 25.8777ZM2.96875 26.2633H2.33487V26.4633H2.96875V26.2633ZM4.96049 27.7784V27.6784H4.75882L4.8809 27.8389L4.96049 27.7784ZM5.55708 27.7784L5.63627 27.7173L5.60624 27.6784H5.55708V27.7784ZM5.91042 28.2365L5.83116 28.2976L5.83405 28.3011L5.91042 28.2365ZM6.16255 28.5348L6.24152 28.4733L6.23893 28.4702L6.16255 28.5348ZM6.76802 29.3125V29.4125H6.97261L6.84693 29.2511L6.76802 29.3125ZM6.12882 29.3125L6.05032 29.3744L6.08034 29.4125H6.12882V29.3125ZM5.71689 28.7905L5.63512 28.8483L5.63838 28.8524L5.71689 28.7905ZM5.5411 28.5419L5.6228 28.4841L5.6207 28.4814L5.5411 28.5419ZM6.63485 28.1886L6.54633 28.1421L6.54626 28.1422L6.63485 28.1886ZM6.03826 28.8278L5.98765 28.7415L5.98747 28.7416L6.03826 28.8278ZM4.32839 28.8278L4.2773 28.9137L4.27778 28.914L4.32839 28.8278ZM3.7318 28.1868L3.64312 28.233L3.64336 28.2335L3.7318 28.1868ZM3.7318 26.1768L3.64328 26.1303L3.6432 26.1305L3.7318 26.1768ZM4.32839 25.5359L4.27778 25.4496L4.2776 25.4497L4.32839 25.5359ZM6.03826 25.5359L5.98747 25.622L5.98765 25.6221L6.03826 25.5359ZM6.63485 26.1768L6.54617 26.2231L6.54641 26.2235L6.63485 26.1768ZM6.06312 26.484L5.97183 26.5248L5.97214 26.5255L6.06312 26.484ZM5.70801 26.0526L5.6536 26.1365L5.65407 26.1368L5.70801 26.0526ZM4.66042 26.0526L4.71437 26.1368L4.71483 26.1365L4.66042 26.0526ZM4.30353 26.484L4.21246 26.4427L4.21234 26.443L4.30353 26.484ZM4.30353 27.8814L4.21224 27.9222L4.21256 27.9229L4.30353 27.8814ZM4.66042 28.3129L4.60602 28.3968L4.60648 28.3971L4.66042 28.3129ZM5.70801 28.3129L5.76195 28.3971L5.76241 28.3968L5.70801 28.3129ZM6.06312 27.8814L5.97205 27.8401L5.97193 27.8404L6.06312 27.8814ZM4.96049 27.8784H5.55708V27.6784H4.96049V27.8784ZM5.4779 27.8395L5.83124 28.2976L5.98961 28.1754L5.63627 27.7173L5.4779 27.8395ZM5.83405 28.3011L6.08618 28.5994L6.23893 28.4702L5.9868 28.172L5.83405 28.3011ZM6.08365 28.5962L6.68912 29.3739L6.84693 29.2511L6.24146 28.4734L6.08365 28.5962ZM6.76802 29.2125H6.12882V29.4125H6.76802V29.2125ZM6.20732 29.2506L5.79539 28.7285L5.63838 28.8524L6.05032 29.3744L6.20732 29.2506ZM5.79853 28.7327L5.62275 28.4842L5.45946 28.5996L5.63524 28.8482L5.79853 28.7327ZM5.6207 28.4814L5.04009 27.7179L4.8809 27.8389L5.46151 28.6024L5.6207 28.4814ZM6.75502 27.1818C6.75502 27.5613 6.68397 27.8801 6.54633 28.1421L6.72338 28.2351C6.8793 27.9383 6.95502 27.586 6.95502 27.1818H6.75502ZM6.54626 28.1422C6.40867 28.4051 6.22244 28.6037 5.98765 28.7415L6.08888 28.914C6.35835 28.7559 6.56984 28.5284 6.72345 28.2349L6.54626 28.1422ZM5.98747 28.7416C5.75333 28.8797 5.48648 28.9497 5.18422 28.9497V29.1497C5.51878 29.1497 5.82131 29.0718 6.08905 28.9139L5.98747 28.7416ZM5.18422 28.9497C4.88195 28.9497 4.61444 28.8797 4.379 28.7415L4.27778 28.914C4.54661 29.0718 4.84964 29.1497 5.18422 29.1497V28.9497ZM4.37948 28.7418C4.14559 28.6028 3.95912 28.4033 3.82024 28.1401L3.64336 28.2335C3.79804 28.5266 4.0093 28.7544 4.2773 28.9137L4.37948 28.7418ZM3.82048 28.1406C3.6839 27.8785 3.61341 27.5601 3.61341 27.1818H3.41341C3.41341 27.5847 3.48851 27.9364 3.64312 28.233L3.82048 28.1406ZM3.61341 27.1818C3.61341 26.8022 3.68392 26.484 3.8204 26.2232L3.6432 26.1305C3.48849 26.4261 3.41341 26.7778 3.41341 27.1818H3.61341ZM3.82032 26.2234C3.9592 25.959 4.14558 25.7597 4.37918 25.622L4.2776 25.4497C4.00931 25.6079 3.79796 25.8359 3.64328 26.1303L3.82032 26.2234ZM4.379 25.6221C4.61444 25.4839 4.88195 25.4139 5.18422 25.4139V25.2139C4.84964 25.2139 4.54661 25.2919 4.27778 25.4496L4.379 25.6221ZM5.18422 25.4139C5.48648 25.4139 5.75333 25.4839 5.98747 25.622L6.08905 25.4497C5.82131 25.2919 5.51878 25.2139 5.18422 25.2139V25.4139ZM5.98765 25.6221C6.22233 25.7598 6.40856 25.959 6.54618 26.2231L6.72353 26.1306C6.56996 25.836 6.35846 25.6078 6.08888 25.4496L5.98765 25.6221ZM6.54641 26.2235C6.68396 26.4842 6.75502 26.8023 6.75502 27.1818H6.95502C6.95502 26.7777 6.87931 26.4258 6.7233 26.1302L6.54641 26.2235ZM6.29274 27.1818C6.29274 26.8961 6.24806 26.6484 6.1541 26.4425L5.97214 26.5255C6.05101 26.6984 6.09274 26.9159 6.09274 27.1818H6.29274ZM6.15441 26.4432C6.06253 26.2377 5.93237 26.0775 5.76195 25.9684L5.65407 26.1368C5.78667 26.2217 5.89326 26.3491 5.97183 26.5248L6.15441 26.4432ZM5.76241 25.9687C5.59317 25.8589 5.3993 25.8052 5.18422 25.8052V26.0052C5.36449 26.0052 5.51981 26.0497 5.6536 26.1365L5.76241 25.9687ZM5.18422 25.8052C4.96913 25.8052 4.77526 25.8589 4.60602 25.9687L4.71483 26.1365C4.84862 26.0497 5.00394 26.0052 5.18422 26.0052V25.8052ZM4.60648 25.9684C4.43619 26.0774 4.30552 26.2375 4.21246 26.4427L4.39461 26.5253C4.47437 26.3494 4.58162 26.2218 4.71437 26.1368L4.60648 25.9684ZM4.21234 26.443C4.11974 26.6488 4.07569 26.8963 4.07569 27.1818H4.27569C4.27569 26.9157 4.31688 26.6981 4.39473 26.5251L4.21234 26.443ZM4.07569 27.1818C4.07569 27.4674 4.11975 27.7154 4.21225 27.9222L4.39482 27.8406C4.31687 27.6663 4.27569 27.4479 4.27569 27.1818H4.07569ZM4.21256 27.9229C4.30564 28.1269 4.4362 28.2866 4.60602 28.3968L4.71483 28.229C4.58162 28.1426 4.47425 28.0147 4.39451 27.8399L4.21256 27.9229ZM4.60648 28.3971C4.77567 28.5054 4.96937 28.5585 5.18422 28.5585V28.3585C5.0037 28.3585 4.84821 28.3144 4.71437 28.2287L4.60648 28.3971ZM5.18422 28.5585C5.39906 28.5585 5.59276 28.5054 5.76195 28.3971L5.65407 28.2287C5.52022 28.3144 5.36473 28.3585 5.18422 28.3585V28.5585ZM5.76241 28.3968C5.93237 28.2866 6.06241 28.1267 6.15431 27.9224L5.97193 27.8404C5.89338 28.0149 5.78668 28.1427 5.6536 28.229L5.76241 28.3968ZM6.1542 27.9227C6.24804 27.7157 6.29274 27.4675 6.29274 27.1818H6.09274C6.09274 27.4477 6.05102 27.6659 5.97205 27.8401L6.1542 27.9227ZM7.48269 29H7.38269V29.1H7.48269V29ZM7.48269 25.3636V25.2636H7.38269V25.3636H7.48269ZM8.14142 25.3636H8.24142V25.2636H8.14142V25.3636ZM8.14142 28.4478H8.04142V28.5478H8.14142V28.4478ZM9.74299 28.4478H9.84299V28.3478H9.74299V28.4478ZM9.74299 29V29.1H9.84299V29H9.74299ZM7.58269 29V25.3636H7.38269V29H7.58269ZM7.48269 25.4636H8.14142V25.2636H7.48269V25.4636ZM8.04142 25.3636V28.4478H8.24142V25.3636H8.04142ZM8.14142 28.5478H9.74299V28.3478H8.14142V28.5478ZM9.64299 28.4478V29H9.84299V28.4478H9.64299ZM9.74299 28.9H7.48269V29.1H9.74299V28.9Z" fill="black"/>
<defs>
<filter id="filter0_i_101_28" x="0.266327" y="30.6264" width="18.4846" height="7.74112" filterUnits="userSpaceOnUse" color-interpolation-filters="sRGB">
<feFlood flood-opacity="0" result="BackgroundImageFix"/>
<feBlend mode="normal" in="SourceGraphic" in2="BackgroundImageFix" result="shape"/>
<feColorMatrix in="SourceAlpha" type="matrix" values="0 0 0 0 0 0 0 0 0 0 0 0 0 0 0 0 0 0 127 0" result="hardAlpha"/>
<feOffset dy="4"/>
<feGaussianBlur stdDeviation="2"/>
<feComposite in2="hardAlpha" operator="arithmetic" k2="-1" k3="1"/>
<feColorMatrix type="matrix" values="0 0 0 0 0 0 0 0 0 0 0 0 0 0 0 0 0 0 0.25 0"/>
<feBlend mode="normal" in2="shape" result="effect1_innerShadow_101_28"/>
</filter>
<filter id="filter1_i_101_28" x="0.227264" y="25.3139" width="9.51572" height="7.99858" filterUnits="userSpaceOnUse" color-interpolation-filters="sRGB">
<feFlood flood-opacity="0" result="BackgroundImageFix"/>
<feBlend mode="normal" in="SourceGraphic" in2="BackgroundImageFix" result="shape"/>
<feColorMatrix in="SourceAlpha" type="matrix" values="0 0 0 0 0 0 0 0 0 0 0 0 0 0 0 0 0 0 127 0" result="hardAlpha"/>
<feOffset dy="4"/>
<feGaussianBlur stdDeviation="2"/>
<feComposite in2="hardAlpha" operator="arithmetic" k2="-1" k3="1"/>
<feColorMatrix type="matrix" values="0 0 0 0 0 0 0 0 0 0 0 0 0 0 0 0 0 0 0.25 0"/>
<feBlend mode="normal" in2="shape" result="effect1_innerShadow_101_28"/>
</filter>
</defs>
</svg>
