<svg width="14" height="14" viewBox="0 0 14 14" fill="none" xmlns="http://www.w3.org/2000/svg">
<path fill-rule="evenodd" clip-rule="evenodd" d="M2.72431 8.55513C2.21853 8.89251 1.62755 9.05265 1.03137 9.20197L1.39414 9.37446L1.41142 9.60444L1.61872 9.59007L1.82601 9.67631L1.79147 9.80568L2.03331 9.93505C2.15424 10.0052 2.30107 9.9681 2.422 9.9638C2.30533 10.2676 2.41878 10.2159 2.44791 10.2944C2.61865 10.3765 2.81573 10.3189 3.00934 10.2297C2.9618 10.4439 2.98505 10.5639 3.05253 10.625C3.25584 10.6636 3.37853 10.6484 3.46712 10.6106C3.45456 10.7543 3.47524 10.8782 3.6226 10.9269C3.74661 10.9815 3.74566 10.9671 3.80398 10.9556L4.14084 10.7041C4.08331 10.8211 4.25963 10.674 3.91627 11.1137C3.96401 11.1368 3.93431 11.2027 4.10629 11.1569L4.57271 10.8406C4.45601 11.0198 4.38258 11.2246 4.42588 11.4228C4.57559 11.2744 4.72531 11.119 4.87502 11.0634C4.78577 11.2039 4.69652 11.4126 4.60726 11.5881C4.64417 11.6281 4.82534 11.476 4.97003 11.3725C4.94238 11.5574 4.9257 11.7372 5.05641 11.8468C5.15254 11.8406 5.15321 11.7549 5.16006 11.6743C5.18633 11.7875 5.23331 11.9204 5.32417 11.9977C5.41409 11.5536 5.66103 11.1856 5.85105 10.7831C5.68933 11.224 5.47296 11.6763 5.57465 12.0624L5.69558 11.9762C5.55987 12.3137 5.76219 12.2584 5.90287 12.2134C6.07784 12.358 6.23443 12.3957 6.38657 12.4074L6.50749 12.0912C6.51901 12.3595 6.59963 12.5032 6.74934 12.5224C6.78262 12.6804 6.83128 12.7233 6.88754 12.7093C6.97675 12.6988 6.9812 12.5469 7.00846 12.4505C7.15539 12.7576 7.23067 12.707 7.33669 12.8099C7.38608 12.8651 7.42212 12.9871 7.49216 12.9392L7.639 12.7308C7.7266 12.8948 7.83077 12.8796 7.9413 12.7955C7.84539 12.6322 7.68664 12.3392 7.63204 12.1429C7.55983 11.8832 7.51656 11.7099 7.54398 11.43L2.72431 8.55513Z" fill="white" stroke="white" stroke-width="0.377953"/>
<path fill-rule="evenodd" clip-rule="evenodd" d="M7.54398 11.4444C7.95569 11.424 8.36741 11.3161 8.77913 11.1425C9.0567 11.5243 9.30149 11.9232 9.75515 12.2134L9.54786 12.2996L9.3492 12.2637C9.34516 12.3638 9.41525 12.5205 9.15054 12.4218L8.9346 12.3643L8.83959 12.5727L8.59774 12.6015C8.64333 12.6921 8.59884 12.7078 8.55455 12.7237C8.45133 12.7851 8.38775 12.764 8.32998 12.7308C8.29213 12.8263 8.13256 12.8205 7.95857 12.8027C7.83218 12.6062 7.68114 12.3387 7.6068 12.0872C7.54814 11.8887 7.55354 11.7245 7.54398 11.4444Z" fill="white" stroke="white" stroke-width="0.2"/>
<path fill-rule="evenodd" clip-rule="evenodd" d="M2.8174 8.48047C2.80204 8.48093 2.78723 8.48542 2.77514 8.49335C2.22299 8.85876 1.59338 9.03984 1.05738 9.13484C0.994194 9.14603 0.978901 9.21552 1.03319 9.24475L1.34097 9.41084L1.3625 9.61534C1.36651 9.65346 1.41136 9.67891 1.45526 9.66796C1.4975 9.65748 1.54008 9.64468 1.58283 9.63088C1.59722 9.65504 1.61712 9.67865 1.64928 9.69372C1.67553 9.70602 1.71624 9.7051 1.75054 9.70926C1.74123 9.74089 1.72131 9.7707 1.73353 9.80496C1.75511 9.86547 1.82322 9.90981 1.91878 9.93308C1.92906 9.93555 1.93986 9.93608 1.95041 9.93464C2.00081 9.98731 2.07503 10.0185 2.15401 10.0295C2.2099 10.0372 2.27184 10.0238 2.33208 10.0177C2.31884 10.0433 2.3041 10.0623 2.29567 10.0923C2.27679 10.1594 2.28324 10.2428 2.34989 10.3134C2.35355 10.3173 2.35774 10.3207 2.36238 10.3237C2.38142 10.336 2.40328 10.3422 2.42564 10.3459C2.46467 10.3845 2.52633 10.3993 2.58644 10.4C2.65754 10.4008 2.73702 10.3863 2.82112 10.3603C2.86034 10.3481 2.9003 10.3249 2.94046 10.3077C2.90268 10.4292 2.9361 10.5611 2.99787 10.6676C3.01203 10.692 3.04385 10.7055 3.07575 10.7007H3.07602C3.19572 10.7225 3.25556 10.7306 3.31469 10.7238C3.34817 10.7199 3.38889 10.7076 3.4226 10.6985C3.42137 10.7421 3.4047 10.7833 3.42342 10.8277C3.45702 10.9075 3.59916 11.0549 3.63818 10.9781C3.65791 11.0456 3.70776 11.0377 3.73253 11.0464C3.77784 11.0449 3.81104 11.0272 3.84895 11.0031C3.91134 10.9635 4.00637 10.8772 4.11579 10.7771C4.03094 10.944 3.97112 10.9564 3.84808 11.1148C3.82541 11.1443 3.87617 11.1837 3.91306 11.2005C4.01467 11.2466 4.10288 11.2077 4.21043 11.1592C4.27091 11.132 4.41967 10.9836 4.48134 10.9391C4.47852 10.9449 4.37781 11.0902 4.37514 11.096C4.31263 11.232 4.29788 11.3267 4.3638 11.4536C4.38521 11.495 4.4513 11.5029 4.48579 11.4683C4.51983 11.4341 4.69087 11.2304 4.75986 11.195C4.68154 11.2715 4.54947 11.4819 4.53762 11.5434C4.52978 11.5746 4.54907 11.6067 4.55381 11.6288C4.57548 11.6718 4.61971 11.6584 4.6572 11.6699C4.68991 11.6646 4.70851 11.6524 4.7279 11.6397C4.78583 11.5981 4.84364 11.5484 4.89162 11.5098C4.88651 11.5695 4.86071 11.6337 4.87568 11.6857C4.90519 11.7881 4.97002 11.8759 5.07661 11.9073C5.10198 11.9148 5.13024 11.9099 5.14997 11.8946C5.15788 11.9161 5.16482 11.9402 5.17416 11.9579C5.19092 11.9896 5.20846 12.0179 5.24804 12.0378C5.26784 12.0478 5.29516 12.0535 5.3206 12.0505C5.37204 12.0529 5.38325 12.0121 5.40725 11.9959C5.42916 11.9303 5.55169 11.4327 5.60713 11.361C5.57321 11.4384 5.47719 11.9187 5.48432 11.971C5.49405 12.0423 5.49445 12.1925 5.59905 12.0995C5.5892 12.1207 5.58731 12.1922 5.58958 12.2099C5.61691 12.2479 5.65027 12.2769 5.69377 12.2905C5.73726 12.3042 5.78333 12.2977 5.81763 12.285C5.84644 12.2743 5.8615 12.2583 5.88381 12.2435C5.90535 12.2906 5.93599 12.3309 5.97922 12.3558C6.02386 12.3815 6.07225 12.3956 6.12089 12.4067C6.12171 12.4131 6.12171 12.4198 6.12275 12.4262C6.12541 12.4434 6.13684 12.4589 6.15411 12.4686C6.30911 12.5556 6.45347 12.5253 6.49445 12.228C6.48932 12.3524 6.50034 12.4386 6.53604 12.475C6.57704 12.5169 6.63648 12.5494 6.71279 12.571C6.71952 12.6189 6.72785 12.6658 6.73937 12.7104C6.74227 12.7218 6.74899 12.7322 6.75877 12.7404C6.77942 12.7577 6.80173 12.7718 6.83133 12.7788C6.86093 12.7858 6.89738 12.781 6.9217 12.7686C6.97034 12.7438 6.98454 12.7092 7.00037 12.6758C7.01479 12.6453 7.01463 12.5748 7.02686 12.5453C7.05985 12.589 7.08804 12.6953 7.13353 12.7273C7.17184 12.7542 7.21356 12.7759 7.25685 12.7926C7.27132 12.8472 7.31101 12.8839 7.34137 12.9227C7.38768 12.9443 7.43399 13.0058 7.47985 12.9996C7.52571 12.9933 7.56183 12.9184 7.58403 12.8931C7.60269 12.8719 7.60621 12.8518 7.61673 12.8296C7.6215 12.8329 7.62677 12.8346 7.63161 12.8376C7.63937 12.8516 7.6462 12.8662 7.65473 12.8796C7.66125 12.8898 7.67112 12.8982 7.68317 12.9038C7.72948 12.9254 7.77579 12.9367 7.82165 12.9304C7.8675 12.9242 7.90363 12.8995 7.92583 12.8743C7.95251 12.882 7.97317 12.8678 7.98621 12.866C7.99084 12.8647 8.01675 12.8487 8.02099 12.8467C8.04875 12.8586 8.08083 12.8619 8.1079 12.8687C8.1953 12.8749 8.27564 12.8525 8.3495 12.8328C8.37422 12.8261 8.39278 12.8089 8.39814 12.7877C8.47663 12.7889 8.54958 12.7695 8.61688 12.7515C8.65974 12.74 8.67983 12.699 8.65887 12.6658C8.73993 12.6683 8.81505 12.6481 8.88426 12.6296C8.92782 12.6178 8.94748 12.5756 8.92492 12.5423C8.93024 12.5367 8.93734 12.5314 8.9414 12.5257C8.95731 12.503 8.9581 12.4828 8.96585 12.4599C9.01623 12.4878 9.06938 12.5056 9.12187 12.5048C9.13667 12.5046 9.1507 12.5025 9.16493 12.5008L9.16653 12.5021C9.17679 12.5099 9.18953 12.5151 9.20321 12.517C9.25555 12.5243 9.30368 12.5218 9.34434 12.503C9.385 12.4842 9.40887 12.4507 9.41955 12.4206C9.42852 12.3954 9.42366 12.3756 9.42462 12.3518C9.4815 12.3687 9.53814 12.3753 9.58887 12.364C9.67363 12.3452 9.74021 12.3013 9.80177 12.2619C9.83938 12.2378 9.83951 12.1905 9.80204 12.1662C9.37512 11.8903 9.12672 11.5499 8.81411 11.0113C8.80596 10.9974 8.79169 10.9865 8.77425 10.9811C8.42765 10.8272 7.5854 10.9918 7.482 11.3022C6.69159 10.7518 5.78732 10.2564 5.01393 9.80343L5.01475 9.80229L4.52172 9.49964L4.49009 9.50964C4.489 9.50861 4.48783 9.50768 4.48663 9.50675L4.25354 9.334C4.24073 9.32456 4.22436 9.31921 4.20729 9.3189H4.2062L3.91197 9.14792C3.90714 9.13534 3.89754 9.12442 3.8846 9.11684L3.60313 8.9523V8.95208C3.5986 8.9472 3.59324 8.94294 3.58718 8.93942L3.12339 8.66497C3.12027 8.66313 3.11698 8.66149 3.11355 8.66009C3.10928 8.6546 3.104 8.64973 3.09787 8.64566L2.86478 8.49311C2.85129 8.48436 2.83447 8.4799 2.8174 8.48047ZM2.76103 8.60112L2.98453 8.74813C2.82981 8.86018 2.60193 8.95731 2.42263 9.07428C2.23986 9.17644 1.81084 9.29175 1.62219 9.3502C1.59394 9.31785 2.0765 9.14635 2.21965 9.05818C2.28337 9.02753 2.33541 8.96058 2.26188 8.95973C2.24809 8.95962 2.22281 8.96884 2.22281 8.96884C1.97714 9.09175 1.78194 9.20065 1.7144 9.22721C1.64684 9.25377 1.62099 9.2975 1.43137 9.33504L1.34492 9.30296L1.13847 9.20627C1.63987 9.10547 2.24778 8.92916 2.76103 8.60112ZM3.08186 8.78889L3.46285 9.01892C3.32432 9.11662 3.1838 9.1969 3.07959 9.28634C2.72566 9.52076 2.51488 9.72247 1.96875 9.837C1.92769 9.82337 1.87583 9.78823 1.87201 9.7775C1.86864 9.76807 1.87324 9.74067 1.88264 9.71637C2.15662 9.69662 2.33668 9.57951 2.66609 9.3584C2.72113 9.32267 2.96902 9.18438 2.89933 9.14978C2.84432 9.14291 2.61809 9.30575 2.60553 9.31449C2.26439 9.54348 2.08971 9.58979 1.83586 9.59913C1.83059 9.5991 1.82532 9.59958 1.82018 9.60046C1.76311 9.60035 1.73071 9.59329 1.71998 9.58825C1.71553 9.58617 1.7139 9.58503 1.71228 9.58359C2.01955 9.46396 2.33143 9.27545 2.61594 9.08222C2.76307 8.99598 2.91505 8.899 3.08186 8.78889ZM3.52121 9.05971L3.6828 9.14616L3.71127 9.17239C3.50465 9.32394 3.25186 9.49821 3.03167 9.63916C2.81757 9.77622 2.62622 9.87905 2.45987 9.91557C2.45502 9.9158 2.39008 9.92712 2.33813 9.92811C2.24716 9.94858 2.23133 9.94458 2.16477 9.93533C2.14219 9.93219 2.07758 9.89688 2.06078 9.89093C2.4016 9.80357 2.75002 9.62887 2.90192 9.54206C2.97917 9.48373 3.05236 9.4222 3.12678 9.35954C3.27689 9.25996 3.39168 9.15344 3.52121 9.05971ZM3.83961 9.25319L4.1076 9.39984C4.08047 9.42022 4.04511 9.46694 4.01821 9.48802C3.72748 9.70609 3.45976 9.91988 3.28386 10.1605C3.2077 10.2621 3.12951 10.4006 3.06822 10.5114C3.02627 10.443 3.03732 10.3693 3.0494 10.3211C3.05777 10.2878 3.09566 10.2181 3.14194 10.1758C3.16508 10.1546 3.20567 10.1099 3.22504 10.0907C3.28762 10.0288 3.3218 9.98825 3.35268 9.94562C3.39862 9.88222 3.47528 9.82472 3.44334 9.79522C3.41897 9.77993 3.28188 9.91654 3.2298 9.97394C3.13492 10.0785 2.97869 10.2038 2.84615 10.252C2.83114 10.2574 2.78551 10.2425 2.77089 10.2471C2.76504 10.2489 2.61573 10.3091 2.59277 10.2784C2.58632 10.2311 2.72395 10.1933 2.80748 10.1443C2.91607 10.0697 2.97896 10.0336 3.12342 9.92225C3.32728 9.76506 3.50805 9.55072 3.71629 9.35311C3.76051 9.31458 3.79991 9.28417 3.83961 9.25319ZM1.5334 9.39729C1.52632 9.4878 2.00001 9.34178 2.00912 9.34521C2.01875 9.36115 1.62625 9.51288 1.62826 9.53417C1.61063 9.5401 1.47227 9.55872 1.45482 9.56404L1.48556 9.40662C1.5039 9.40304 1.51752 9.40039 1.5334 9.39729ZM4.20613 9.46057L4.33291 9.55472C4.30585 9.57522 4.28073 9.59687 4.25477 9.618C3.95134 9.8071 3.815 10.1085 3.70924 10.3504C3.68547 10.4047 3.67399 10.494 3.66995 10.5516C3.6482 10.6428 3.64749 10.7776 3.63849 10.8829C3.62496 10.8667 3.56407 10.8369 3.55974 10.7877C3.53669 10.733 3.54054 10.6692 3.55337 10.6461C3.57915 10.5995 3.52813 10.549 3.46885 10.5624C3.36697 10.5853 3.32568 10.6006 3.29502 10.6041C3.27984 10.6058 3.22935 10.5965 3.20093 10.5934C3.35183 10.2539 3.708 9.80302 4.20613 9.46057ZM4.40372 9.58867C4.37624 9.61908 4.55506 9.68904 4.55358 9.69089C4.32642 9.97957 4.07814 10.1393 3.87675 10.2343C3.9715 10.0745 4.09622 9.82041 4.24327 9.69728C4.30293 9.65576 4.33243 9.61543 4.40372 9.58867ZM3.65646 9.28107C3.6366 9.3631 3.0752 9.85839 3.00097 9.9267C2.86384 10.0529 2.71697 10.0922 2.61408 10.1598C2.56263 10.1936 2.51727 10.2159 2.48756 10.2246C2.46588 10.231 2.46483 10.2285 2.46099 10.2273C2.43248 10.1916 2.42517 10.1602 2.43653 10.1198C2.44674 10.0835 2.46998 10.0437 2.49288 10.0037C2.69121 9.95651 2.80262 9.85409 3.01655 9.71714C3.048 9.697 3.6121 9.27341 3.65646 9.28107ZM4.61889 9.7006L4.82993 9.83005C4.82142 9.84516 4.85119 9.87736 4.84254 9.89218L4.54464 10.291C4.52034 10.3235 4.30504 10.655 4.27669 10.6846C4.25568 10.7065 4.16393 10.9008 4.14926 10.9128C4.14044 10.92 4.19386 10.7315 4.19209 10.6853C4.20853 10.6027 4.29734 10.4687 4.26727 10.4292C4.2005 10.4627 4.14224 10.6359 4.07164 10.6956C3.91421 10.8286 3.85934 10.8748 3.7923 10.9197C3.67969 10.9355 3.74898 10.6403 3.75373 10.5839C3.90718 10.5505 4.07708 10.5035 4.16942 10.4309C4.27189 10.3497 4.3085 10.3084 4.43838 10.2035C4.48581 10.1652 4.62746 10.0309 4.58731 10.0038C4.56849 10.0034 4.48994 10.0697 4.39881 10.1452C4.28935 10.2359 4.16678 10.3277 4.06572 10.3899C4.00062 10.43 3.94573 10.4395 3.80055 10.4726C3.816 10.419 3.83383 10.3684 3.85397 10.3201C3.87371 10.3251 3.89508 10.3228 3.91271 10.3139C4.19218 10.1719 4.34589 10.0482 4.61438 9.70701C4.61605 9.70494 4.61754 9.70282 4.61889 9.7006ZM4.9389 9.9071L5.0492 9.97149L5.04893 9.97172C4.81655 10.1974 4.52154 10.6369 4.30463 10.8086C4.50561 10.5098 4.75142 10.1472 4.9389 9.9071ZM5.16721 10.0405L5.49514 10.2375C5.41643 10.3864 5.296 10.5011 5.18874 10.6241C5.13178 10.685 5.02373 10.807 4.96602 10.8683C4.78385 11.0482 4.64222 11.1454 4.47697 11.2986C4.47405 11.2353 4.48418 11.1677 4.51869 11.0926C4.57348 10.9733 4.6695 10.8456 4.77518 10.7264C4.88085 10.6073 4.99571 10.4967 5.08774 10.408C5.17347 10.3042 5.14177 10.2769 5.03718 10.3364C4.78679 10.5846 4.6521 10.6634 4.4355 10.8497C4.35307 10.9205 4.20169 11.0616 4.16614 11.009C4.46449 10.7651 4.80062 10.398 5.15843 10.0505C5.16176 10.0475 5.1647 10.0441 5.16721 10.0405ZM5.76388 10.3959C5.69319 10.5046 5.59066 10.6717 5.52433 10.797C5.34156 11.1569 5.15151 11.4618 5.0891 11.7828C5.07453 11.762 5.02497 11.6878 5.01624 11.6575C4.99408 11.5805 4.99781 11.4802 5.04255 11.3824C5.06733 11.3288 4.99716 11.2793 4.9381 11.3086C4.85203 11.351 4.78028 11.4265 4.71644 11.4841C4.89487 11.1587 5.11056 10.883 5.3154 10.6173C5.3939 10.5267 5.48992 10.3697 5.55217 10.2741C5.63245 10.3019 5.69602 10.3517 5.76388 10.3959ZM6.3255 10.7398C6.26724 10.8554 6.17831 10.9893 6.08417 11.1314C6.01902 11.2237 5.95267 11.3162 5.89068 11.4114C5.78068 11.5805 5.6706 11.7958 5.61493 11.9674C5.58539 11.8442 5.62111 11.7286 5.63456 11.6062C5.67326 11.2537 5.7446 11.1578 5.84092 10.9C5.85248 10.8691 5.95107 10.712 5.89735 10.6959C5.8362 10.6775 5.74651 10.9164 5.74618 10.917C5.53431 11.296 5.42956 11.5184 5.30062 11.889C5.28115 11.8466 5.22625 11.7742 5.20805 11.6843C5.31603 11.365 5.50166 11.0228 5.66767 10.7193C5.72478 10.6325 5.75472 10.5201 5.817 10.4324C5.95836 10.5598 6.15331 10.6429 6.3255 10.7398ZM6.56364 10.8737C6.2475 11.2975 5.97884 11.6973 5.90902 12.0813C5.86015 12.177 5.76378 12.2043 5.74287 12.1957C5.73363 12.1843 5.73356 12.1227 5.74103 12.0698C5.85735 11.6537 6.09341 11.2605 6.29605 10.9345C6.4405 10.7892 6.3942 10.7845 6.56364 10.8737ZM6.90597 11.0766C6.89318 11.1258 6.88013 11.1817 6.8669 11.2345C6.74901 11.6272 6.66896 11.9677 6.69654 12.3001C6.69613 12.3417 6.69907 12.3816 6.70107 12.422C6.62254 12.3979 6.61646 12.3365 6.59953 12.2845C6.58894 12.1909 6.57757 12.093 6.57075 11.9865C6.54998 11.6625 6.65852 11.5165 6.74753 11.325C6.76749 11.2843 6.8119 11.1897 6.75926 11.1556C6.73014 11.1567 6.69168 11.3229 6.68152 11.3457C6.50345 11.7255 6.50432 11.7902 6.45998 11.9879C6.42871 12.1274 6.36592 12.2328 6.29758 12.3627C6.12504 12.3559 6.29799 11.8663 6.37122 11.6553C6.45489 11.4579 6.54061 11.2559 6.62283 11.0675C6.75437 11.0055 6.81479 11.0406 6.90597 11.0766ZM8.6785 11.079C8.83223 11.4661 8.96982 12.0067 9.2749 12.3556C9.29838 12.3886 9.20629 12.4197 9.16684 12.3813C9.00077 12.2304 8.87844 12.0332 8.74283 11.7842C8.71481 11.7328 8.59844 11.4594 8.52649 11.3002C8.49401 11.2283 8.59772 11.1339 8.6785 11.079ZM4.14392 11.0892C4.17803 11.139 4.12234 11.1095 4.12714 11.1118C4.12067 11.1114 3.99854 11.1211 3.99122 11.1223C3.99333 11.1197 4.01723 11.0164 4.07089 10.9815C4.09287 11.0134 4.13211 11.0488 4.14392 11.0892ZM8.32101 11.2123C8.33457 11.3153 8.34775 11.3684 8.36458 11.4614C8.37265 11.5383 8.3814 11.6566 8.39198 11.7336C8.4336 12.0369 8.60954 12.2839 8.77475 12.4959C8.76947 12.5139 8.6319 12.5564 8.62906 12.5562C8.58206 12.5529 8.58732 12.5517 8.54599 12.4906C8.5423 12.4852 8.47995 12.3631 8.45485 12.3129C8.29076 11.9844 8.21881 11.7949 8.15586 11.3063C8.15389 11.291 8.18146 11.2661 8.16739 11.2561L8.15623 11.2483C8.1481 11.0517 8.14274 11.0862 8.32101 11.2123ZM6.50676 11.1326C6.42566 11.2968 6.35099 11.4573 6.2944 11.612C6.21374 11.8344 6.12367 12.0704 6.11526 12.2736C6.09398 12.2688 6.07384 12.2636 6.06131 12.2563C6.0248 12.2353 6.00382 12.2114 6.00178 12.1504C6.02843 12.1434 6.01781 12.0812 6.02167 12.0581C6.09041 11.6499 6.27128 11.3854 6.50676 11.1326ZM6.95889 11.1352L7.13668 11.2214C7.14003 11.2778 7.14917 11.3372 7.142 11.3999C7.11291 11.6544 7.11465 11.893 7.13668 12.1209C7.15297 12.2894 7.24243 12.5763 7.31922 12.7379C7.18892 12.7046 7.09858 12.5464 7.08266 12.4916C7.0682 12.4418 7.05741 12.4323 6.99939 12.3765C6.94853 12.4341 6.93822 12.6212 6.87355 12.6156C6.82639 12.6115 6.83674 12.5042 6.83041 12.4817C6.8138 12.4228 6.806 12.1775 6.80555 12.1448C6.79951 11.7033 6.86009 11.5249 6.95889 11.1352ZM8.12032 11.3279C8.1175 11.4963 8.11435 11.6568 8.08575 11.8456C8.08263 11.8662 8.04274 12.1018 8.0433 12.1225C7.90507 11.9959 7.86645 11.619 7.84149 11.4253C8.04295 11.3083 7.95098 11.2103 8.12032 11.3279ZM7.62147 11.2984L7.75037 11.3897C7.74816 11.5691 7.74043 11.764 7.74321 11.9584C7.74444 12.0467 7.80292 12.3545 7.81046 12.4402C7.6829 12.3439 7.59568 11.8691 7.57449 11.6582C7.56204 11.5342 7.62417 11.4065 7.62147 11.2984ZM8.7838 11.2403C9.0245 11.6216 9.30928 11.9657 9.64462 12.2006C9.61274 12.2181 9.57775 12.2414 9.5516 12.2472C9.50602 12.2574 9.46981 12.2558 9.40621 12.2099C9.36417 12.1799 9.29893 12.1988 9.28821 12.2441C9.06959 11.979 8.89565 11.6251 8.7838 11.2403ZM7.29455 11.328L7.49412 11.4415C7.50497 11.524 7.48314 11.5942 7.48705 11.6708C7.49321 11.7919 7.49765 11.9727 7.49946 12.097C7.50267 12.3184 7.51777 12.4665 7.57944 12.6557C7.58221 12.6517 7.5985 12.737 7.56473 12.7677C7.5515 12.7971 7.49474 12.8621 7.484 12.8853C7.47448 12.8926 7.41914 12.824 7.40431 12.7909C7.32422 12.6121 7.24264 12.1999 7.22003 12.0029C7.19005 11.7418 7.21521 11.5956 7.21769 11.3767C7.21796 11.3469 7.25369 11.2994 7.29455 11.328ZM8.49351 11.3435C8.54597 11.4735 8.59944 11.6286 8.65883 11.7618C8.74587 11.9572 8.8436 12.146 8.96687 12.3016C8.92561 12.2812 8.87237 12.2993 8.86003 12.338C8.85126 12.3659 8.84384 12.3931 8.83664 12.416C8.63278 12.1638 8.39424 11.7925 8.40983 11.4008C8.38919 11.3572 8.45368 11.3504 8.49351 11.3435ZM8.15594 11.6727C8.22477 11.6527 8.30472 12.2905 8.42335 12.4688C8.52356 12.6194 8.69442 12.6955 8.44912 12.7129C8.38255 12.728 8.32222 12.6011 8.31065 12.6018C8.00963 12.4063 8.12287 11.9275 8.15594 11.6727ZM7.88858 11.973C7.94658 12.2008 8.11929 12.5347 8.28233 12.7103C8.24148 12.8097 8.06496 12.7702 8.03554 12.7561C7.92754 12.7047 7.81205 12.0578 7.81126 12.0233C7.79038 11.8164 7.84646 11.7875 7.88858 11.973ZM7.6313 12.2619C7.6893 12.4183 7.76274 12.5643 7.85695 12.706C7.8482 12.7262 7.83977 12.7448 7.83224 12.761C7.81194 12.7653 7.79284 12.7683 7.77828 12.7673C7.76985 12.7667 7.76229 12.7653 7.75463 12.7639C7.6843 12.6269 7.6475 12.4527 7.6313 12.2619Z" fill="black"/>
<path fill-rule="evenodd" clip-rule="evenodd" d="M2.67444 8.12796C2.92012 7.94234 3.19677 7.95074 3.70721 7.9148C4.1283 7.88515 4.22245 7.91716 4.45746 8.0548C5.59772 8.72258 8.48213 10.3983 8.74953 10.5742C8.94869 10.7283 9.06723 11.0123 8.65233 11.1731C8.09995 11.3872 7.80317 11.4799 7.65601 11.4472L2.77164 8.57458C2.58901 8.47278 2.5508 8.29019 2.67444 8.12796Z" fill="white" stroke="black" stroke-width="0.2"/>
<path fill-rule="evenodd" clip-rule="evenodd" d="M2.83239 8.60505L7.52236 11.366C8.01284 11.6794 8.25309 11.132 7.88686 10.96L3.1969 8.17873C2.75285 7.90189 2.33428 8.29585 2.83239 8.60505Z" fill="white" stroke="black" stroke-width="0.2"/>
<path fill-rule="evenodd" clip-rule="evenodd" d="M5.72207 9.11852L12.5262 1.07928C12.7903 0.855872 13.1431 1.15188 12.9393 1.3838L6.13518 9.36213C6.00226 9.49008 5.57726 9.25677 5.72207 9.11852Z" fill="white" stroke="black" stroke-width="0.2"/>
</svg>
